<svg width="80" height="90" xmlns="http://www.w3.org/2000/svg" xmlns:svg="http://www.w3.org/2000/svg" version="1.1">
 <metadata id="metadata5996">image/svg+xmlOpenclipart</metadata>
 <g class="layer" display="inline">
  <title>Layer 1</title>
  <g id="g10" transform="translate(1 0) translate(1 0) translate(1 0) translate(1 0) translate(1 0) translate(1 0) translate(1 0) translate(1 0) translate(1 0) matrix(1.94846 0 0 -2.04659 -2.7155 50.9342)">
   <g id="g12">
    <g id="g6578">
     <path d="m21.2,21.1l-6.3,-3.4l-5.9,-1.4l-5.6,-2.8l-1.4,0.1l-1.2,-1.6l-0.3,-2l1.4,-4.7c0,0 26.2,-3.3 27.5,-3.4c1.3,-0.1 5.1,2.7 5.1,2.7l0.7,4.4l-4,6.9l-5.2,3.8l-4.8,1.4z" fill="#cba390" fill-rule="evenodd" id="path6542" stroke-width="0.8px"/>
     <path d="m30.02,17.14c1.41,-1.24 2.22,-1.95 2.45,-2.14c1.76,-1.57 2.71,-3.44 2.83,-5.59c-0.02,-0.15 -0.14,-0.44 -0.37,-0.88c-1.16,-1.97 -2.89,-3.15 -5.22,-3.55c1.44,0.96 2.47,1.71 3.08,2.26c1.97,1.68 2.04,3.48 0.22,5.4c-1.55,1.68 -3.21,2.97 -4.97,3.87c-0.29,0.19 -0.46,0.37 -0.5,0.56c-0.39,0.97 -0.7,1.87 -0.91,2.71c1.03,-0.7 2.16,-1.58 3.39,-2.64z" fill="#d7b9a3" fill-rule="evenodd" id="path14"/>
     <path d="m29.39,8.97c1.6,-0.44 2.54,-0.63 2.83,-0.57c0.3,0 0.51,0.15 0.63,0.44c0.23,0.25 -0.45,0.56 -2.04,0.91c-1.07,0.3 -3.17,1.08 -6.32,2.36c-2.8,1.21 -4.88,2.68 -6.22,4.4c0.46,-0.08 0.91,0.02 1.35,0.31c0.25,0.17 0.44,0.32 0.57,0.44l0.31,0.19c0.04,0.08 0.22,0.26 0.54,0.54l0.37,0.31c0.53,0.73 1.19,1.31 1.98,1.73c0,0.21 -0.1,0.32 -0.31,0.34c-1.22,0.07 -2.42,-0.18 -3.62,-0.72l-1.72,-0.72c-0.17,-0.08 -0.34,-0.21 -0.51,-0.38c0,-0.04 -0.04,-0.06 -0.12,-0.06l0,-0.13c0,-0.17 -0.02,-0.27 -0.06,-0.31c-0.21,-0.59 -0.66,-0.92 -1.36,-0.98c-0.27,-0.08 -0.74,-0.16 -1.41,-0.25c-0.23,0 -0.51,0.05 -0.85,0.13l-0.25,0.12l-7.16,-2.89c0.63,-0.42 2.11,-0.33 4.46,0.26c2.37,0.58 3.7,0.95 3.99,1.09l0.81,0.38c3.17,-1.82 6.22,-3.46 9.15,-4.9c1.28,-0.73 2.93,-1.41 4.96,-2.04zm-2.76,10.8c0.21,-0.83 0.51,-1.73 0.91,-2.7c0.04,-0.19 0.21,-0.37 0.5,-0.56c1.76,-0.9 3.42,-2.19 4.97,-3.87c1.82,-1.92 1.75,-3.73 -0.22,-5.4c-0.61,-0.55 -1.63,-1.3 -3.08,-2.26l-1.54,-0.13c-0.59,0 -1.49,0.05 -2.7,0.13c-4.03,0.44 -7.71,1.75 -11.06,3.92c-1.74,-0.43 -3.52,-0.56 -5.34,-0.37c-2.29,0.27 -4.22,1.03 -5.82,2.29c-1.3,0.88 -1.5,1.96 -0.63,3.24c1.93,0.52 3.65,1.28 5.16,2.29c0.77,0.48 2.02,0.85 3.74,1.1c1.8,0.25 2.89,0.6 3.26,1.04c0.49,0.42 1.24,0.91 2.27,1.48c0.92,0.48 2.44,0.89 4.55,1.22c1.84,0.25 3.52,-0.22 5.03,-1.42z" fill="#ad866f" fill-rule="evenodd" id="path16"/>
     <path d="m30.81,9.75c1.59,-0.35 2.27,-0.66 2.04,-0.91c-0.12,-0.29 -0.33,-0.44 -0.63,-0.44c-0.29,-0.06 -1.23,0.13 -2.82,0.57c-2.04,0.62 -3.69,1.3 -4.97,2.04c-2.93,1.44 -5.98,3.08 -9.14,4.9l-0.82,-0.38c-0.29,-0.14 -1.62,-0.51 -3.99,-1.09c-2.35,-0.59 -3.83,-0.68 -4.46,-0.26l7.16,2.89l0.25,-0.12c0.34,-0.08 0.62,-0.13 0.85,-0.13c0.67,0.08 1.14,0.17 1.42,0.25c0.69,0.07 1.14,0.39 1.35,0.98c0.04,0.04 0.06,0.14 0.06,0.31l0,0.13c0.09,0 0.12,0.02 0.12,0.06c0.17,0.17 0.34,0.3 0.51,0.38l1.73,0.72c1.19,0.55 2.39,0.79 3.61,0.72c0.21,-0.02 0.32,-0.13 0.32,-0.34c-0.8,-0.42 -1.46,-1 -1.99,-1.73l-0.37,-0.31c-0.32,-0.28 -0.5,-0.45 -0.54,-0.54l-0.31,-0.19c-0.13,-0.12 -0.31,-0.27 -0.57,-0.44c-0.44,-0.29 -0.89,-0.39 -1.35,-0.31c1.34,-1.72 3.42,-3.19 6.22,-4.4c3.15,-1.28 5.25,-2.07 6.32,-2.36z" fill="#e0d0bd" fill-rule="evenodd" id="path18"/>
     <path d="m3.25,10.82c1.59,-1.26 3.53,-2.02 5.82,-2.29c1.82,-0.19 3.6,-0.06 5.34,0.37c3.35,-2.18 7.04,-3.48 11.06,-3.92c-0.9,0.04 -2.11,0.14 -3.61,0.31c-2.23,0.21 -4.24,0.45 -6.04,0.72l-5.59,0.98c-1.89,0.39 -3.65,0.84 -5.28,1.32c-2.14,0.54 -3.66,1.73 -4.59,3.55l0,0.18c0.13,1.16 0.88,1.83 2.26,2.02c-0.87,-1.28 -0.67,-2.36 0.63,-3.24z" fill="#d7b9a3" fill-rule="evenodd" id="path20"/>
     <path d="m25.47,4.98c1.21,-0.09 2.11,-0.13 2.7,-0.13l1.54,0.13c2.32,0.4 4.06,1.58 5.22,3.55c0.23,0.44 0.35,0.73 0.37,0.88c0.23,-1.78 0.09,-3.65 -0.44,-5.6c-0.5,-1.74 -1.61,-2.82 -3.33,-3.27c-1.8,-0.41 -3.61,-0.59 -5.43,-0.53c-1.41,0.05 -3.46,0.06 -6.16,0.06c-1.93,-0.12 -3.89,-0.01 -5.88,0.35c-1.99,0.33 -4.06,0.89 -6.22,1.67l-6,2.38c-0.5,0.23 -0.87,0.63 -1.1,1.2c-0.84,1.97 -0.96,4.03 -0.38,6.19c0.92,-1.82 2.45,-3.01 4.59,-3.55c1.63,-0.49 3.39,-0.93 5.28,-1.32l5.59,-0.98c1.8,-0.27 3.81,-0.51 6.03,-0.72c1.51,-0.17 2.72,-0.27 3.62,-0.31z" fill="#c5a48e" fill-rule="evenodd" id="path22"/>
     <path d="m11.58,16.53c0.03,-0.01 0.06,-0.02 0.07,-0.05c0.07,-0.14 -0.05,-0.16 -0.03,-0.32c0.01,-0.06 0.07,-0.1 0.09,-0.16c0.02,-0.07 0.01,-0.15 0.02,-0.22c0.01,-0.09 0.03,-0.17 0.04,-0.26c-0.01,-0.24 -0.03,-0.35 0.04,-0.59c0.03,-0.09 0.09,-0.17 0.13,-0.25c0.03,-0.1 0.03,-0.2 0.07,-0.29c0.03,-0.08 0.1,-0.15 0.15,-0.23c0.04,-0.07 0.07,-0.16 0.1,-0.24c0.04,-0.25 0.01,-0.21 0.13,-0.41c0.02,-0.04 0.06,-0.08 0.08,-0.12c0.02,-0.04 0.03,-0.08 0.04,-0.11c0.03,-0.07 0.06,-0.12 0.1,-0.19c-0.02,-0.05 -0.07,-0.1 -0.06,-0.16c0.01,-0.05 0.09,-0.07 0.11,-0.12c0.07,-0.19 -0.04,-0.29 -0.03,-0.49c0.03,-0.7 0.17,0.27 0,-0.57c0.05,-0.08 0.11,-0.14 0.13,-0.22c0.03,-0.08 0.01,-0.17 0.02,-0.26c0,-0.07 0,-0.14 0.02,-0.22c0.02,-0.05 0.07,-0.1 0.07,-0.16c0.01,-0.27 -0.18,-0.14 0.07,-0.24c-0.06,-0.05 0.06,-0.13 0.05,-0.15c-0.02,-0.03 -0.06,-0.04 -0.07,-0.07c-0.01,-0.01 0.03,0.01 0.04,0.01c0,-0.01 0,-0.01 0,-0.02c0,0 -0.02,-0.01 -0.02,-0.01c0,-0.01 0,-0.01 0,-0.01c0.01,0 0.03,0.01 0.02,0c0,-0.01 -0.02,-0.02 -0.03,-0.03c-0.01,-0.02 -0.04,-0.03 -0.03,-0.05c0.01,-0.02 0.04,0.01 0.06,0.01c0.11,-0.12 -0.08,0.2 -0.09,-0.11c0,-0.04 0.08,0.03 0.12,0.04c0.01,0 -0.03,-0.02 -0.02,-0.02c0.01,-0.01 0.03,0 0.05,0c0,0 -0.47,-0.25 -0.47,-0.25l0,0c0.11,0.1 0.03,0 0.01,0.04c-0.01,0.01 0.01,0.02 0.01,0.03c0.01,0.03 -0.02,0.03 -0.01,0.06c-0.12,0.02 0.09,-0.03 0.01,0.04c-0.02,0.02 -0.08,-0.03 -0.07,-0.01c0.01,0.03 0.07,0.04 0.09,0.07c0.01,0.01 -0.06,-0.02 -0.04,0.01c0.01,0 0.07,0.04 0.07,0.05c-0.01,0.01 -0.03,0 -0.05,0c-0.15,0.01 -0.08,0.06 0.01,0.18c-0.13,0.13 -0.05,0.02 -0.1,0.23c-0.01,0.05 -0.04,0.11 -0.05,0.17c-0.01,0.08 0.02,0.16 0.02,0.24c-0.01,0.17 -0.09,0.34 -0.06,0.52c-0.02,0.09 -0.04,0.17 -0.06,0.26c-0.07,0.49 0.03,0.07 -0.02,0.54c-0.01,0.06 -0.03,0.12 -0.05,0.19c-0.02,0.16 -0.02,0.15 0,0.3c0,0.01 -0.09,0.15 -0.1,0.16c-0.01,0.04 0,0.09 -0.01,0.13c-0.03,0.05 -0.08,0.07 -0.11,0.12c-0.09,0.16 -0.08,0.23 -0.1,0.42c-0.4,0.4 -0.04,-0.05 -0.2,0.51c-0.03,0.09 -0.12,0.15 -0.15,0.24c-0.11,0.27 -0.02,0.58 -0.17,0.85c0.01,0.26 0.03,0.25 -0.04,0.49c-0.04,0.12 -0.11,0.19 -0.1,0.32c0,0.05 0.04,0.1 0.04,0.15c0,0.03 -0.03,0.05 -0.04,0.07c0,0 0.3,0.16 0.3,0.16z" fill="#55443b" id="path6546" opacity="0.83" stroke-linecap="round" stroke-linejoin="round" stroke-miterlimit="4" stroke-width="2"/>
     <path d="m13.13,17.38c0.01,-0.29 -0.02,0.1 0.06,-0.21c0.02,-0.06 0.01,-0.12 0.02,-0.17c0.01,-0.07 0.04,-0.13 0.06,-0.2c0.02,-0.08 0.02,-0.17 0.05,-0.25c0.04,-0.1 0.11,-0.19 0.16,-0.28c0,-0.14 -0.02,-0.29 0,-0.43c0.03,-0.15 0.12,-0.28 0.16,-0.42c0.04,-0.16 0.14,-0.81 0.19,-0.96c0.05,-0.16 0.13,-0.3 0.18,-0.45c0.05,-0.15 0.1,-0.3 0.15,-0.45c0.07,-0.31 0.31,-0.54 0.4,-0.84c0.04,-0.15 -0.01,-0.33 0.06,-0.47c0.05,-0.14 0.21,-0.22 0.27,-0.35c0.07,-0.12 0.06,-0.27 0.11,-0.41c0.04,-0.13 0.09,-0.25 0.14,-0.38c0.3,-0.57 0.07,-0.08 0.27,-0.67c0.03,-0.1 0.1,-0.18 0.11,-0.29c0.01,-0.1 -0.05,-0.21 -0.04,-0.32c0.06,-0.67 0.15,0.27 0.06,-0.42c0.08,-0.15 0.06,-0.08 0.06,-0.24c0,-0.03 0,-0.05 0,-0.08c0.01,-0.02 0.02,-0.04 0.02,-0.06c0.01,-0.01 0.02,-0.02 0.02,-0.03c0,-0.02 -0.02,-0.03 -0.03,-0.05c0.02,-0.01 0.01,-0.01 0.03,-0.01c0,0 -0.4,-0.2 -0.4,-0.2l0,0c-0.01,0.02 0,0 0.03,0.04c-0.01,0 -0.03,0.06 -0.03,0.06c0,0.02 0.02,0.05 0.03,0.08c0,0.02 -0.02,0.04 -0.02,0.07c-0.04,0.13 -0.03,0.09 -0.03,0.25c0.04,0.21 0.08,0.24 -0.01,0.44c-0.04,0.08 -0.12,0.14 -0.15,0.22c-0.03,0.12 0.02,0.24 0,0.35c-0.04,0.24 -0.22,0.45 -0.22,0.7c-0.07,0.15 -0.27,0.59 -0.32,0.74c-0.05,0.15 -0.05,0.3 -0.1,0.45c-0.05,0.14 -0.15,0.25 -0.22,0.39c-0.2,0.4 -0.2,0.43 -0.35,0.86c-0.05,0.15 -0.1,0.3 -0.15,0.45c-0.05,0.16 -0.11,0.31 -0.15,0.46c-0.04,0.17 -0.05,0.33 -0.09,0.49c-0.1,0.43 -0.31,0.84 -0.33,1.29c-0.04,0.09 -0.21,0.4 -0.22,0.52c-0.01,0.09 0.06,0.17 0.04,0.25c-0.01,0.06 -0.09,0.08 -0.13,0.12c-0.12,0.11 -0.1,0.06 -0.07,0.2c0,0 0.38,0.21 0.38,0.21z" fill="#55443b" id="path6548" opacity="0.83" stroke-linecap="round" stroke-linejoin="round" stroke-miterlimit="4" stroke-width="2"/>
     <path d="m14.82,17.64c0.02,-0.02 0.06,-0.04 0.08,-0.06c0.02,-0.04 0.03,-0.08 0.05,-0.12c0.02,-0.05 0.05,-0.1 0.08,-0.14c0.05,-0.08 0.22,-0.25 0.27,-0.32c0.05,-0.07 0.09,-0.13 0.13,-0.2c0.18,-0.63 -0.06,0.11 0.24,-0.48c0.05,-0.09 0.04,-0.2 0.09,-0.28c0.06,-0.09 0.18,-0.13 0.23,-0.22c0.06,-0.11 0.07,-0.24 0.11,-0.35c0.05,-0.13 0.1,-0.25 0.15,-0.37c0.05,-0.14 0.07,-0.29 0.13,-0.42c0.06,-0.13 0.18,-0.23 0.24,-0.36c0.01,-0.01 0.22,-0.8 0.23,-0.84c0.04,-0.11 0.1,-0.22 0.14,-0.33c0.05,-0.09 0.08,-0.19 0.12,-0.28c0.07,-0.55 -0.04,-0.04 0.15,-0.42c0.02,-0.04 0,-0.1 0.03,-0.13c0.02,-0.04 0.08,-0.03 0.11,-0.06c0.01,-0.01 0.01,-0.17 0.01,-0.18c0,-0.03 0.03,-0.16 0.03,-0.19c0,-0.05 -0.03,-0.1 -0.03,-0.15c-0.01,-0.14 0.05,-0.31 0.09,-0.44c-0.1,-0.59 -0.02,0.12 0.03,-0.26c0.01,-0.03 -0.04,-0.06 -0.03,-0.1c0.01,-0.05 0.15,0.01 0.02,-0.06c0.01,0.01 0.03,0.03 0.04,0.03c0.01,0 0.01,-0.03 0.01,-0.04c-0.01,-0.01 -0.05,-0.02 -0.04,-0.04c0.01,-0.02 0.05,0.02 0.06,0c0.01,-0.03 -0.03,-0.05 -0.03,-0.08c-0.01,-0.03 -0.01,-0.06 -0.02,-0.09c0.13,-0.14 0.02,0.01 0.08,-0.16c0,-0.02 0.03,-0.04 0.04,-0.06c0,-0.02 -0.01,-0.04 0,-0.06c0,-0.01 0.02,-0.02 0.03,-0.01c0.01,0 -0.01,0.02 -0.02,0.02c0,0 -0.33,-0.25 -0.33,-0.25l0,0c-0.06,0.02 -0.02,0 -0.06,0.04c-0.06,0.05 -0.05,0.02 -0.05,0.11c-0.01,0.03 0.01,0.07 -0.01,0.1c-0.01,0.03 -0.04,0.04 -0.06,0.07c-0.01,0.15 -0.01,0.01 0.02,0.15c0,0.02 0.01,0.04 0,0.05c-0.01,0.01 -0.04,-0.01 -0.03,0c0,0 0.07,0.01 0.01,0c0.03,0.06 0.04,0.14 0.02,0.2c-0.01,0.03 -0.05,0.05 -0.05,0.09c-0.01,0.05 0,0.1 0,0.15c-0.02,0.05 -0.07,0.08 -0.07,0.13c-0.02,0.12 0.07,0.24 0.05,0.36c0,0.04 -0.05,0.06 -0.06,0.1c-0.03,0.21 0.11,0.05 -0.03,0.18c0.02,0.04 0.07,0.07 0.07,0.12c0,0.03 -0.04,0.04 -0.06,0.06c-0.02,0.03 -0.04,0.06 -0.06,0.08c-0.03,0.04 -0.08,0.07 -0.1,0.11c-0.08,0.12 -0.1,0.28 -0.13,0.42c-0.04,0.09 -0.08,0.19 -0.12,0.28c-0.05,0.12 -0.11,0.22 -0.15,0.33c-0.37,1.04 0.15,-0.28 -0.15,0.88c-0.04,0.14 -0.32,0.64 -0.39,0.76c-0.03,0.14 -0.03,0.29 -0.08,0.42c-0.04,0.11 -0.13,0.2 -0.19,0.3c-0.05,0.09 -0.08,0.18 -0.14,0.27c-0.05,0.08 -0.14,0.14 -0.19,0.22c-0.04,0.09 -0.04,0.19 -0.08,0.27c-0.04,0.08 -0.1,0.14 -0.15,0.21c-0.33,0.33 -0.03,0.01 -0.29,0.36c-0.01,0.01 -0.22,0.25 -0.23,0.28c-0.04,0.06 -0.03,0.15 -0.09,0.21c0,0 0.33,0.19 0.33,0.19z" fill="#6d5c52" id="path6550" stroke-linecap="round" stroke-linejoin="round" stroke-miterlimit="4" stroke-width="2"/>
     <path d="m16.72,17.11c0.02,-0.03 0.08,-0.13 0.09,-0.14c0.03,-0.04 0.08,-0.06 0.1,-0.1c0.03,-0.05 0.03,-0.11 0.05,-0.17c0.02,-0.07 0.06,-0.13 0.09,-0.2c0.03,-0.08 0.06,-0.16 0.09,-0.24c0.14,-0.15 0.26,-0.28 0.37,-0.46c0.05,-0.08 0.09,-0.17 0.13,-0.25c0.05,-0.08 0.1,-0.16 0.14,-0.24c0.04,-0.08 0.07,-0.17 0.11,-0.25c0.05,-0.08 0.11,-0.16 0.16,-0.23c0.05,-0.08 0.11,-0.16 0.15,-0.25c0.04,-0.09 0.05,-0.19 0.1,-0.28c0.11,-0.21 0.3,-0.32 0.37,-0.56c0.28,-0.98 -0.27,0.11 0.22,-0.75c0.03,-0.15 0.04,-0.29 0.07,-0.43c0.03,-0.14 0.09,-0.27 0.11,-0.41c0.03,-0.16 0.02,-0.32 0.04,-0.47c0.01,-0.15 0.04,-0.3 0.06,-0.45c0.07,-0.69 -0.02,-0.18 0.1,-0.78c0.05,-0.26 0.04,-0.29 0.13,-0.51c0.03,-0.06 0.07,-0.11 0.08,-0.17c0.02,-0.05 -0.03,-0.11 -0.01,-0.16c0.01,-0.04 0.07,-0.04 0.09,-0.07c0.02,-0.03 0.02,-0.06 0.03,-0.09c0.03,-0.01 0.08,-0.02 0.09,-0.04c0.06,-0.09 -0.07,-0.09 0.04,-0.15c0.03,-0.02 0.09,0.01 0.11,-0.02c0.02,-0.04 -0.02,-0.08 -0.03,-0.11c0,-0.04 0,-0.07 0,-0.1c-0.01,-0.02 -0.05,-0.18 -0.03,-0.21c0.01,-0.03 0.06,-0.03 0.08,-0.06c0.01,-0.03 -0.02,-0.07 -0.02,-0.1c-0.02,-0.16 0,-0.03 -0.03,-0.19c0.03,0 0.06,0 0.08,-0.02c0.01,0 0.01,-0.06 0,-0.07c-0.02,-0.03 -0.05,-0.04 -0.08,-0.05c-0.1,-0.05 -0.2,-0.09 -0.3,-0.14c0,0 0.35,0.16 0.35,0.16l0,0c-0.13,-0.06 -0.25,-0.13 -0.38,-0.2c0,0 0.01,0.01 0,0.02c-0.01,0.01 -0.07,0.01 -0.06,0.04c0.01,0.04 0.04,0.06 0.06,0.09c-0.02,0.03 -0.06,0.11 -0.05,0.14c0.01,0.05 0.06,0.09 0.07,0.14c0.01,0.03 -0.02,0.05 -0.03,0.08c-0.02,0.05 -0.03,0.11 -0.06,0.16c0,0.03 -0.01,0.05 -0.01,0.08c-0.01,0.03 -0.03,0.05 -0.03,0.07c0,0.03 0.03,0.07 0.02,0.09c-0.01,0.03 -0.06,0.03 -0.07,0.05c-0.1,0.22 0.14,-0.05 -0.05,0.14c-0.21,0.14 0.01,-0.04 -0.07,0.2c-0.13,0.38 -0.1,-0.23 -0.19,0.27c-0.13,0.73 0.2,-0.23 -0.1,0.53c0.01,0.26 0.04,0.57 -0.01,0.83c-0.03,0.14 -0.12,0.27 -0.14,0.41c-0.03,0.15 0,0.31 -0.02,0.47c-0.02,0.13 -0.18,0.68 -0.22,0.81c-0.01,0.15 0.01,0.29 -0.03,0.43c-0.04,0.12 -0.14,0.21 -0.19,0.32c-0.04,0.12 -0.05,0.24 -0.1,0.35c-0.05,0.1 -0.14,0.17 -0.19,0.26c-0.29,0.54 0.11,0.04 -0.29,0.5c-0.05,0.08 -0.1,0.16 -0.14,0.24c-0.03,0.09 -0.05,0.18 -0.1,0.26c-0.05,0.08 -0.13,0.13 -0.19,0.21c-0.05,0.08 -0.08,0.18 -0.13,0.26c-0.1,0.17 -0.24,0.31 -0.32,0.48c-0.06,0.07 -0.13,0.12 -0.16,0.2c-0.04,0.07 -0.02,0.15 -0.05,0.22c-0.03,0.05 -0.09,0.08 -0.13,0.13c-0.02,0.04 -0.01,0.09 -0.03,0.13c-0.02,0.05 -0.09,0.08 -0.14,0.1c0,0 0.4,0.25 0.4,0.25z" fill="#55443b" id="path6552" opacity="0.83" stroke-linecap="round" stroke-linejoin="round" stroke-miterlimit="4" stroke-width="2"/>
     <path d="m18.14,19.52c0.13,-0.19 -0.02,0.04 0.12,-0.23c0.03,-0.06 0.08,-0.11 0.11,-0.18c0.11,-0.26 0.04,-0.29 0.18,-0.56c0.05,-0.11 0.13,-0.21 0.2,-0.31c0.31,-0.87 -0.05,0.09 0.34,-0.82c0.07,-0.15 0.13,-0.31 0.19,-0.48c0.06,-0.18 0.09,-0.37 0.16,-0.55c0.52,-1.44 0,0.34 0.43,-1.24c0.05,-0.25 0.06,-0.51 0.13,-0.75c0.06,-0.24 0.18,-0.46 0.26,-0.69c0.31,-0.97 0.09,-0.5 0.36,-1.49c0.48,-1.8 0.01,0.35 0.37,-1.42c0,-0.39 0.29,-0.67 0.39,-1.02c0.04,-0.12 0.01,-0.25 0.04,-0.37c0.01,-0.06 0.1,-0.22 0.18,-0.26c0.01,-0.01 0.02,0.01 0.04,0.01c-0.12,-0.06 -0.45,-0.35 -0.38,-0.13c0.01,0.02 0.03,0.04 0.04,0.07c0,0.03 -0.07,0.04 -0.07,0.02c0.01,-0.01 0.04,0 0.05,-0.01c0.13,0.07 0.25,0.14 0.37,0.21c0,0 -0.06,-0.04 -0.02,-0.06c0.01,0 0.05,0.01 0.04,0c-0.06,-0.08 -0.19,-0.1 -0.04,-0.07c0,0 -0.4,-0.22 -0.4,-0.22l0,0c0.01,0.01 0.05,0.05 0.02,0.07c-0.02,0.01 -0.06,-0.01 -0.06,0c0.02,0.04 0.07,0.05 0.09,0.08c0.01,0.01 -0.02,0.01 -0.03,0.01c0.13,0.09 0.26,0.18 0.39,0.27c0,-0.02 0,-0.03 0,-0.05c0.01,0 0.02,-0.01 0.02,-0.02c0.01,-0.01 0,-0.02 0,-0.04c0,-0.02 -0.02,-0.04 -0.01,-0.07c0.01,-0.01 0.04,-0.01 0.06,-0.02c-0.14,-0.09 -0.27,-0.18 -0.41,-0.26c-0.09,0.06 0.06,-0.05 -0.07,0.12c-0.33,0.41 -0.02,-0.2 -0.19,0.53c-0.08,0.36 -0.3,0.67 -0.36,1.04c-0.19,1.35 0.02,0.11 -0.3,1.46c-0.06,0.25 -0.09,0.51 -0.16,0.76c-0.06,0.24 -0.2,0.46 -0.26,0.7c-0.05,0.26 -0.01,0.53 -0.07,0.79c-0.05,0.24 -0.18,0.45 -0.27,0.67c-0.16,0.52 -0.21,0.75 -0.45,1.23c-0.08,0.17 -0.22,0.31 -0.28,0.49c-0.06,0.16 -0.03,0.36 -0.09,0.53c-0.1,0.27 -0.37,0.47 -0.46,0.75c-0.21,0.88 0.04,-0.08 -0.21,0.66c-0.03,0.09 -0.03,0.18 -0.06,0.27c-0.03,0.06 -0.1,0.11 -0.14,0.17c-0.04,0.07 -0.07,0.15 -0.12,0.22c0,0 0.33,0.19 0.33,0.19z" fill="#55443b" id="path6554" opacity="0.83" stroke-linecap="round" stroke-linejoin="round" stroke-miterlimit="4" stroke-width="2"/>
     <path d="m21.29,17.94c0.03,-0.07 0.05,-0.14 0.1,-0.19c0.03,-0.04 0.09,-0.06 0.11,-0.11c0.03,-0.07 0.01,-0.14 0.02,-0.21c0.02,-0.17 0.08,-0.35 0.13,-0.51c0.05,-0.11 0.09,-0.22 0.14,-0.33c0.01,-0.16 -0.03,-0.32 0.02,-0.47c0.05,-0.15 0.2,-0.24 0.26,-0.39c0.06,-0.16 0.04,-0.34 0.07,-0.5c0.09,-0.57 0.05,-0.39 0.25,-0.9c0.15,-0.54 0.07,-0.3 0.25,-0.81c0.05,-0.12 0.11,-0.24 0.13,-0.36c0.1,-0.44 -0.03,-0.34 0.09,-0.75c0.03,-0.1 0.09,-0.18 0.14,-0.28c0.14,-0.31 0.1,-0.16 0.14,-0.49c0.01,-0.07 0.01,-0.15 0.03,-0.22c0.02,-0.06 0.06,-0.11 0.07,-0.17c0.09,-0.43 -0.09,0.04 0.07,-0.33c0.03,-0.09 0.04,-0.2 0.08,-0.29c0.01,-0.05 0.03,-0.1 0.05,-0.14c0.02,-0.05 0.04,-0.1 0.04,-0.15c0.03,-0.27 -0.1,-0.09 0.09,-0.27c-0.03,-0.28 -0.03,-0.07 0.02,-0.31c0.04,-0.15 0.01,-0.16 0.05,-0.31c0.09,-0.29 0.03,0.04 0.07,-0.25c0.1,-0.04 -0.08,-0.17 -0.02,-0.21c0.04,-0.02 0.1,0.04 0.14,0.02c0.02,-0.01 -0.06,-0.04 -0.07,-0.06c0,-0.02 0.04,0.01 0.05,0.01c0,0 0.01,0 0.01,-0.01c-0.05,-0.02 -0.04,-0.03 -0.04,0c0,0 -0.31,-0.24 -0.31,-0.24l0,0c-0.03,0.02 -0.01,0.02 -0.04,0.01c0.02,0.06 -0.01,-0.03 -0.04,0.02c0,0.01 0.03,0.03 0.02,0.04c0,0.02 -0.02,0.03 -0.02,0.04c-0.02,0.07 0.03,0.17 0.04,0.23c-0.01,0.03 -0.03,0.07 -0.05,0.11c-0.05,0.09 -0.13,0.14 -0.12,0.26c0,0.06 0.04,0.12 0.05,0.19c0.03,0.19 0.01,0.15 -0.14,0.24c-0.01,0.05 -0.01,0.1 -0.02,0.15c0,0.05 0.01,0.11 -0.01,0.15c-0.02,0.05 -0.07,0.08 -0.08,0.13c-0.02,0.05 0.01,0.11 0,0.17c0,0.08 -0.05,0.22 -0.08,0.3c-0.01,0.05 -0.02,0.1 -0.04,0.15c-0.03,0.05 -0.08,0.09 -0.09,0.14c-0.01,0.07 0.03,0.15 0.03,0.22c-0.01,0.07 -0.05,0.13 -0.07,0.2c-0.02,0.08 -0.11,0.44 -0.13,0.5c-0.27,0.68 0.03,-0.13 -0.17,0.63c-0.03,0.12 -0.09,0.23 -0.13,0.35c-0.04,0.13 -0.07,0.25 -0.11,0.38c-0.19,0.62 -0.09,0.15 -0.2,0.83c-0.02,0.16 -0.01,0.33 -0.05,0.48c-0.43,1.5 0.01,-0.69 -0.33,0.89c-0.04,0.16 -0.03,0.34 -0.08,0.49c-0.04,0.14 -0.12,0.25 -0.19,0.38c-0.03,0.12 -0.06,0.23 -0.1,0.35c-0.02,0.09 -0.04,0.19 -0.07,0.28c-0.03,0.07 -0.08,0.14 -0.1,0.21c-0.01,0.07 0.02,0.14 0,0.21c-0.01,0.05 -0.06,0.08 -0.08,0.13c-0.08,0.23 0.06,0.06 -0.08,0.2c0,0 0.3,0.17 0.3,0.17z" fill="#55443b" id="path6556" opacity="0.83" stroke-linecap="round" stroke-linejoin="round" stroke-miterlimit="4" stroke-width="2"/>
     <path d="m23.91,16.02c0.04,-0.07 0.1,-0.16 0.11,-0.23c0.02,-0.08 0.01,-0.16 0.03,-0.24c0.02,-0.1 0.07,-0.18 0.1,-0.28c0.09,-0.28 0.12,-0.48 0.18,-0.78c0.16,-0.4 0.23,-0.52 0.3,-0.97c0.04,-0.21 0.03,-0.44 0.06,-0.65c0.04,-0.25 0.08,-0.49 0.13,-0.72c0.06,-0.27 0.15,-0.52 0.19,-0.78c0.03,-0.3 0.02,-0.6 0.03,-0.9c0.06,-1.27 -0.03,-0.44 0.21,-1.59c0.05,-0.21 0.09,-0.42 0.12,-0.63c0.14,-0.31 -0.02,-0.63 0.01,-0.95c0.01,-0.08 0.07,-0.14 0.1,-0.21c-0.15,-0.41 -0.08,-0.07 -0.03,-0.25c0,-0.02 -0.01,-0.03 -0.02,-0.04c0,-0.01 0.01,-0.02 0.01,-0.02c-0.02,-0.02 -0.05,-0.02 -0.06,-0.04c0,-0.01 0.03,0 0.04,0c0,-0.01 -0.02,-0.02 -0.02,-0.03c0,-0.01 0.01,-0.02 0.02,-0.03c-0.03,-0.03 -0.07,-0.05 -0.08,-0.08c0,-0.02 0.05,0 0.05,-0.02c0.01,-0.03 -0.03,-0.04 -0.05,-0.07c-0.01,-0.01 -0.01,-0.02 -0.01,-0.04c0.22,0.06 0.07,0.01 -0.31,-0.16c0,0 0.31,0.15 0.31,0.15l0,0c-0.1,-0.05 -0.19,-0.11 -0.29,-0.16c-0.01,-0.01 -0.03,-0.02 -0.04,-0.02c-0.01,0 0,0.02 0,0.03c0.01,0.01 0.03,0.02 0.03,0.04c0,0.03 -0.08,0.02 -0.04,0.07c0.01,0.02 0.03,0.04 0.02,0.06c-0.03,0.07 -0.2,-0.12 0.06,0.09c-0.02,0 -0.04,0 -0.06,0c-0.01,0 -0.01,0.01 -0.01,0.01c0.02,0.02 0.1,0.06 0.09,0.08c0,0.03 -0.05,0.03 -0.07,0.04c0.01,0.06 0.02,0.11 0.03,0.17c0,0.44 0.01,0.09 -0.01,0.65c0,0.18 0,0.37 -0.01,0.55c-0.05,0.72 -0.07,0.66 -0.17,1.42c-0.03,0.28 -0.05,0.56 -0.08,0.84c-0.09,1.75 0.06,0.09 -0.27,1.65c-0.05,0.24 -0.07,0.49 -0.09,0.74c-0.03,0.22 -0.02,0.44 -0.06,0.66c-0.04,0.17 -0.13,0.33 -0.19,0.49c-0.03,0.17 -0.05,0.33 -0.08,0.49c-0.08,0.11 -0.21,0.2 -0.26,0.33c-0.04,0.13 0.03,0.28 0,0.41c-0.02,0.09 -0.1,0.16 -0.13,0.26c-0.03,0.07 0,0.16 -0.03,0.24c-0.13,0.4 -0.08,-0.09 -0.1,0.24c0,0 0.34,0.18 0.34,0.18z" fill="#55443b" id="path6558" opacity="0.83" stroke-linecap="round" stroke-linejoin="round" stroke-miterlimit="4" stroke-width="2"/>
     <path d="m26.23,14.79c0.03,-0.09 0.04,-0.08 0.05,-0.19c0.01,-0.05 0,-0.11 0.01,-0.16c0.02,-0.06 0.05,-0.11 0.08,-0.16c0.06,-0.13 0.13,-0.25 0.19,-0.38c0.01,-0.1 -0.02,-0.2 0.01,-0.29c0.04,-0.09 0.16,-0.13 0.2,-0.22c0.05,-0.1 0.03,-0.22 0.05,-0.34c0.02,-0.12 0.06,-0.25 0.09,-0.37c0.03,-0.15 0.04,-0.3 0.09,-0.44c0.05,-0.15 0.13,-0.29 0.2,-0.44c0,-0.39 0.17,-0.75 0.22,-1.13c0.03,-0.2 0,-0.41 0.03,-0.62c0.02,-0.17 0.11,-0.33 0.13,-0.5c0.14,-1.03 -0.13,-0.02 0.1,-0.77c-0.17,-0.2 0.13,-0.19 0.14,-0.3c0,-0.05 -0.07,-0.08 -0.09,-0.13c-0.08,-0.18 0.08,0.07 0.04,-0.08c-0.01,-0.03 -0.04,-0.05 -0.06,-0.08c0.02,-0.05 -0.01,-0.1 0.01,-0.15c0.01,-0.03 0.04,-0.05 0.04,-0.08c0.01,-0.07 -0.06,-0.24 -0.07,-0.3c0,-0.05 0.02,-0.1 0.02,-0.14c0.03,-0.1 0,-0.19 0.01,-0.28c0.01,-0.04 0.03,-0.06 0.04,-0.09c0.01,-0.07 -0.02,-0.14 -0.03,-0.21c0.05,0.02 0.01,-0.05 0.03,-0.05c0.03,-0.01 0.08,0.04 0.09,0.01c0.02,-0.03 -0.1,-0.07 -0.07,-0.1c0.01,-0.01 0.03,0 0.04,0c-0.01,-0.02 -0.02,-0.03 -0.03,-0.04c0,0 0.01,-0.01 0.01,-0.01c-0.01,-0.01 -0.05,-0.03 -0.03,-0.03c0.03,-0.01 0.1,0.05 0.04,0c0,0 -0.37,-0.18 -0.37,-0.18l0,0c0.06,0.05 0.03,0.01 0,0.01c-0.01,0 -0.03,0.06 -0.04,0.02c0.01,0.09 -0.02,-0.09 0.04,0.07c0.01,0.03 -0.05,0.03 -0.06,0.04c-0.01,0.02 0.03,0.06 -0.01,0.07c-0.05,0.07 -0.01,-0.01 0.01,0.12c0.01,0.03 -0.01,0.06 -0.01,0.08c0.01,0.05 0.05,0.09 0.05,0.13c0,0.04 -0.05,0.07 -0.06,0.11c-0.01,0.05 0,0.1 0,0.15c0.01,0.05 0.04,0.26 0.04,0.31c0,0.04 -0.02,0.08 -0.02,0.12c-0.01,0.03 -0.03,0.06 -0.02,0.09c0.01,0.04 0.04,0.08 0.06,0.11c0,0.03 0,0.05 0,0.08c-0.03,0 -0.08,-0.03 -0.09,0c-0.02,0.03 0.11,0.09 0.1,0.15c0,0.02 -0.05,0.02 -0.06,0.04c-0.01,0.06 0.02,0.11 0.02,0.16c-0.02,0.07 -0.03,0.13 -0.05,0.2c-0.21,0.71 0.01,-0.2 0,0.82c0,0.17 -0.07,0.34 -0.1,0.52c-0.03,0.2 -0.02,0.4 -0.07,0.6c-0.04,0.19 -0.12,0.37 -0.18,0.55c-0.03,0.18 -0.07,0.36 -0.11,0.54c-0.41,1.44 0.14,-0.4 -0.31,0.87c-0.04,0.12 -0.05,0.25 -0.09,0.37c-0.04,0.1 -0.1,0.19 -0.14,0.29c-0.1,0.22 -0.12,0.28 -0.19,0.51c0,0.67 0.04,-0.08 -0.1,0.44c-0.02,0.06 0.01,0.13 0,0.2c-0.03,0.11 -0.13,0.18 -0.21,0.26c0,0 0.39,0.22 0.39,0.22z" fill="#55443b" id="path6560" opacity="0.83" stroke-linecap="round" stroke-linejoin="round" stroke-miterlimit="4" stroke-width="2"/>
     <path d="m28.5,13.12c0.01,-0.02 0.01,-0.04 0.03,-0.06c0.02,-0.03 0.05,-0.05 0.07,-0.08c0.02,-0.03 0.03,-0.07 0.04,-0.11c0.02,-0.04 0.04,-0.09 0.06,-0.13c0.02,-0.05 0.07,-0.09 0.08,-0.15c0.01,-0.08 -0.02,-0.16 -0.03,-0.24c0.22,-0.92 -0.13,0.51 0.16,-0.43c0.03,-0.09 0.03,-0.18 0.05,-0.27c0.02,-0.09 0.06,-0.16 0.08,-0.25c0.04,-0.18 0.05,-0.3 0.07,-0.48c-0.05,-0.14 0.09,-0.2 0.12,-0.31c0.01,-0.04 -0.02,-0.09 -0.01,-0.13c0,-0.02 0.09,-0.1 0.11,-0.11c-0.01,-0.03 -0.03,-0.06 -0.05,-0.08c-0.01,-0.02 -0.05,-0.03 -0.04,-0.05c0.01,-0.02 0.06,0.02 0.07,0c0.01,-0.03 -0.03,-0.05 -0.04,-0.08c0,-0.03 0,-0.05 0,-0.08c-0.04,-0.07 0.03,-0.14 0.02,-0.21c-0.01,-0.06 -0.07,-0.11 -0.07,-0.18c-0.01,-0.04 0.04,-0.07 0.05,-0.12c0.01,-0.04 0,-0.09 0,-0.14c0,-0.04 0.01,-0.08 0.01,-0.12c0.11,-0.34 -0.04,0.17 0,-0.18c0,-0.01 0.03,0 0.04,-0.01c0,-0.01 -0.03,-0.03 -0.02,-0.03c0.02,0 0.08,0.03 0.06,0.02c-0.02,-0.01 -0.05,-0.01 -0.07,-0.02c0.1,0 -0.04,-0.06 0,-0.1c0.02,-0.02 0.07,0.01 0.08,-0.02c0.07,-0.19 -0.12,0 -0.01,-0.1c0.08,0.04 -0.1,-0.09 -0.06,-0.1c0.02,-0.01 0.07,0.04 0.07,0.01c-0.01,-0.03 -0.06,-0.03 -0.08,-0.05c-0.01,-0.01 0.05,0.01 0.06,0.02c0,-0.01 -0.01,-0.01 -0.01,-0.01c0,0 -0.42,-0.21 -0.42,-0.21l0,0c0.01,0.01 0.02,0.01 0.03,0.02c0,0 0,0.01 0,0.01c-0.03,-0.01 -0.08,-0.05 -0.07,-0.03c0.02,0.02 0.06,0.03 0.08,0.05c0.01,0.01 0.04,0.02 0.03,0.04c-0.06,0.08 -0.06,-0.09 -0.05,0.03c0.04,0.12 0.01,0 0,0.1c0,0.02 0.01,0.03 0.01,0.05c0,0.03 -0.04,0.04 -0.03,0.07c-0.06,0.05 0.01,-0.02 0.01,0.05c0,0.02 -0.04,0.01 -0.04,0.02c0.07,0.23 0.1,-0.01 0.05,0.19c-0.12,0.21 -0.02,-0.01 0,0.28c0.01,0.04 -0.02,0.08 -0.03,0.13c-0.01,0.04 -0.03,0.08 -0.03,0.12c-0.01,0.09 0.01,0.16 0.04,0.24c0,0.03 0,0.06 0.01,0.09c0,0.08 -0.02,0.02 0,0.1c0,0.01 0,0.02 0.01,0.03c0.02,0.02 0.06,0.02 0.05,0.04c-0.01,0.02 -0.04,-0.01 -0.06,-0.01c0.01,0.01 0.07,0.08 0.04,0.11c-0.03,0.02 -0.09,-0.01 -0.11,0.02c-0.02,0.04 0.01,0.09 0.01,0.13c0.03,0.27 0.06,0.1 -0.04,0.36c-0.22,0.31 -0.06,0.03 -0.17,0.43c-0.02,0.08 -0.07,0.16 -0.08,0.24c-0.02,0.1 0,0.2 0,0.29c-0.02,0.27 -0.03,0.23 -0.14,0.45c-0.02,0.06 -0.05,0.12 -0.07,0.19c-0.01,0.05 -0.01,0.11 -0.04,0.16c-0.02,0.05 -0.08,0.07 -0.09,0.11c-0.01,0.05 0.04,0.1 0.02,0.15c-0.02,0.05 -0.14,0.02 -0.14,0.1c0,0 0.38,0.23 0.38,0.23z" fill="#55443b" id="path6562" opacity="0.83" stroke-linecap="round" stroke-linejoin="round" stroke-miterlimit="4" stroke-width="2"/>
     <path d="m29.38,15.16c-0.01,-0.03 -0.04,-0.06 -0.03,-0.09c0,-0.03 0.05,-0.04 0.06,-0.07c0.02,-0.03 0,-0.07 0.02,-0.1c0.03,-0.04 0.07,-0.05 0.1,-0.08c0.08,-0.12 0.04,-0.17 0.03,-0.3c0.01,-0.32 -0.02,-0.04 0.07,-0.34c0.02,-0.06 0.04,-0.13 0.04,-0.2c0.01,-0.07 -0.01,-0.16 0.01,-0.23c0.14,-0.51 0.13,0.17 0.09,-0.46c0.08,-0.14 0.04,-0.3 0.08,-0.45c0.08,-0.23 0.13,-0.11 0.18,-0.34c0.12,-0.51 -0.12,0.07 0.08,-0.37c-0.01,-0.12 -0.03,-0.25 0.02,-0.37c0.02,-0.04 0.07,-0.07 0.09,-0.12c0.01,-0.04 -0.02,-0.1 -0.01,-0.15c0.01,-0.03 0.05,-0.05 0.07,-0.09c0.02,-0.02 0.02,-0.05 0.03,-0.08c0.01,-0.04 0,-0.07 0.01,-0.1c0,-0.03 0.02,-0.06 0.03,-0.09c0.02,-0.14 -0.03,-0.06 0.01,-0.2c0.07,-0.25 0.01,0.09 0.05,-0.17c0,-0.03 0,-0.05 0.01,-0.08c0.01,-0.02 0.04,-0.04 0.05,-0.06c0,-0.06 -0.06,-0.14 -0.02,-0.2c0.08,-0.15 0.11,0.08 0.04,-0.15c0,-0.06 0,-0.13 0.05,-0.18c0.01,-0.01 0.03,0 0.03,-0.01c-0.03,-0.04 -0.03,-0.02 -0.03,-0.05c0.01,-0.01 0.06,0.01 0.05,-0.01c-0.01,-0.01 -0.04,-0.01 -0.05,-0.02c-0.01,0 -0.01,-0.01 -0.01,-0.02c-0.02,-0.01 -0.03,-0.03 -0.05,-0.04c0,0 -0.31,-0.16 -0.31,-0.16l0,0c-0.04,0.02 -0.09,0.02 0,0.07c0,0 0,-0.02 -0.01,-0.02c0.01,0.01 0.04,0.01 0.03,0.02c-0.01,0.01 -0.04,-0.01 -0.05,0c0,0 0.01,0.07 0,0.08c-0.05,0.12 -0.07,-0.05 -0.02,0.15c0.1,0.32 0.02,-0.06 -0.03,0.16c-0.01,0.03 0.04,0.07 0.03,0.1c-0.01,0.03 -0.06,0.03 -0.08,0.05c-0.05,0.07 -0.01,0.11 0.02,0.19c0,0.03 0,0.06 0,0.09c0.01,0.07 0.03,0.13 -0.04,0.18c-0.04,0.03 -0.1,0 -0.12,0.04c-0.04,0.06 0.09,0.14 0.01,0.21c-0.1,0.26 0.04,-0.12 -0.04,0.21c-0.01,0.04 -0.05,0.07 -0.05,0.12c-0.01,0.05 -0.01,0.1 -0.01,0.16c0,0.06 0.02,0.13 0.01,0.19c-0.01,0.05 -0.06,0.09 -0.09,0.14c-0.14,0.32 -0.03,0.01 -0.06,0.38c-0.03,0.24 -0.07,0.14 -0.12,0.38c-0.16,0.61 0.11,-0.16 -0.11,0.43c-0.06,0.31 -0.02,0.16 -0.12,0.45c-0.03,0.06 -0.07,0.12 -0.08,0.19c0,0.09 0.04,0.17 0.05,0.25c0.01,0.16 -0.02,0.2 -0.07,0.33c-0.01,0.05 -0.03,0.09 -0.05,0.14c-0.01,0.04 -0.01,0.09 -0.03,0.13c-0.01,0.04 -0.06,0.05 -0.08,0.09c-0.01,0.03 0,0.07 -0.01,0.11c-0.01,0.08 -0.02,0.08 -0.06,0.14c0,0 0.39,0.22 0.39,0.22z" fill="#55443b" id="path6564" opacity="0.83" stroke-linecap="round" stroke-linejoin="round" stroke-miterlimit="4" stroke-width="2"/>
     <path d="m11.13,13.39c0,-0.04 -0.02,-0.08 -0.02,-0.12c0,-0.05 0.03,-0.09 0.04,-0.14c0.02,-0.06 0.04,-0.11 0.06,-0.17c0.02,-0.06 0.05,-0.12 0.07,-0.19c0.12,-0.61 -0.11,0.12 0.09,-0.46c0,-0.21 -0.02,-0.34 0.03,-0.54c0.03,-0.09 0.07,-0.16 0.1,-0.24c0.04,-0.12 0.13,-0.38 0.15,-0.5c0.02,-0.09 0.02,-0.17 0.03,-0.26c0.1,-0.11 0.03,-0.28 0.1,-0.39c0.03,-0.05 0.11,-0.04 0.13,-0.09c0.02,-0.04 -0.02,-0.09 -0.01,-0.14c0,-0.01 0.07,-0.1 0.08,-0.12c-0.21,-0.3 -0.01,0.04 0,-0.1c0.01,-0.03 -0.05,-0.04 -0.05,-0.08c0,-0.01 0.08,-0.1 0.08,-0.12c0.01,-0.04 0,-0.08 0,-0.12c0,-0.04 0.03,-0.08 0.02,-0.11c0,-0.05 -0.04,-0.1 -0.04,-0.15c0,-0.03 0.03,-0.05 0.04,-0.08c0.01,-0.03 0.01,-0.06 0.02,-0.08c0.01,-0.01 0.05,0 0.06,-0.02c0.01,-0.02 -0.02,-0.04 -0.03,-0.05c0.04,0 -0.07,-0.05 -0.05,-0.06c0.02,-0.01 0.06,0.02 0.05,0.01c-0.02,-0.03 -0.11,-0.04 -0.08,-0.05c0.03,-0.01 0.15,0.08 0.07,0.02c0.02,0 0.01,0.01 -0.02,-0.02c0,0 -0.35,-0.17 -0.35,-0.17l0,0c-0.05,-0.01 -0.05,-0.02 -0.02,0.01c0.01,0 0.02,0.01 0.01,0.01c0,0.01 -0.02,0 -0.02,0c0.02,0.01 0.05,0.01 0.05,0.03c0,0.01 -0.05,-0.03 -0.05,-0.02c0.01,0.02 0.06,0.02 0.05,0.05c-0.01,0 -0.03,0 -0.04,0.01c-0.01,0.02 0,0.04 0,0.06c-0.03,0.15 -0.03,-0.02 -0.01,0.18c0,0.08 -0.05,0.15 -0.05,0.23c-0.01,0.03 -0.04,0.15 -0.04,0.19c0,0.03 0.01,0.06 0.02,0.09c0.01,0.02 0.03,0.04 0.03,0.06c0,0.03 -0.07,0.04 -0.04,0.08c0.01,0.14 0.02,0 -0.04,0.13c-0.02,0.06 -0.04,0.21 -0.06,0.26c-0.14,0.39 -0.03,-0.11 -0.11,0.38c-0.11,0.2 -0.16,0.24 -0.2,0.46c-0.02,0.1 0,0.19 -0.02,0.28c-0.02,0.09 -0.09,0.16 -0.1,0.24c-0.03,0.18 0.06,0.37 -0.02,0.55c-0.04,0.06 -0.1,0.12 -0.12,0.2c-0.02,0.07 -0.01,0.16 -0.01,0.24c-0.04,0.32 -0.02,0.1 -0.1,0.38c-0.02,0.04 -0.02,0.09 -0.03,0.14c-0.01,0.03 -0.02,0.06 -0.04,0.1c0,0 0.39,0.2 0.39,0.2z" fill="#55443b" id="path6566" opacity="0.83" stroke-linecap="round" stroke-linejoin="round" stroke-miterlimit="4" stroke-width="2"/>
     <path d="m8.52,15.9c0.05,-0.04 0.09,-0.06 0.11,-0.14c0.01,-0.05 0,-0.11 0.02,-0.16c0.02,-0.06 0.1,-0.09 0.12,-0.15c0.15,-0.56 -0.23,0.02 0.13,-0.45c0.01,-0.03 0.13,-0.57 0.13,-0.58c0.04,-0.11 0.14,-0.19 0.17,-0.31c0.03,-0.14 0,-0.29 0.03,-0.43c0.02,-0.12 0.25,-0.73 0.29,-0.84c0.08,-0.82 -0.02,-0.2 0.21,-0.92c0.04,-0.13 0.06,-0.27 0.1,-0.4c0.11,-0.3 0.21,-0.34 0.24,-0.65c0.02,-0.1 0,-0.2 -0.01,-0.3c0.03,-0.07 0.06,-0.14 0.08,-0.2c0.01,-0.07 0.01,-0.13 0.03,-0.19c0.01,-0.05 0.05,-0.08 0.07,-0.13c0.02,-0.04 0.01,-0.08 0.03,-0.12c0.1,-0.16 0.1,0.05 0.07,-0.15c0.12,-0.16 -0.03,0.08 0.01,-0.12c0.01,-0.02 0.05,0 0.05,-0.02c0,-0.02 -0.04,-0.03 -0.05,-0.05c0,0 0.02,0 0.02,0c-0.01,-0.01 -0.02,-0.02 -0.04,-0.02c0.16,0.07 0.05,0 0.01,-0.01c0,0 -0.34,-0.23 -0.34,-0.23l0,0c0,0.01 0,0.02 0,0.02c0.02,0.04 0.09,0.05 -0.04,0c0.01,0.01 0.02,0.03 0.03,0.05c0.01,0.01 0.05,0.01 0.04,0.03c-0.01,0.02 -0.04,-0.02 -0.05,-0.01c-0.02,0.01 0.01,0.03 0.01,0.04c-0.05,0.13 -0.06,-0.1 -0.03,0.11c-0.02,0.02 -0.04,0.03 -0.05,0.06c-0.01,0.04 0.01,0.08 0.01,0.11c0,0.05 -0.01,0.09 -0.01,0.13c-0.01,0.05 0,0.11 -0.01,0.16c-0.01,0.06 -0.04,0.12 -0.07,0.17c-0.03,0.06 -0.07,0.12 -0.1,0.19c-0.02,0.84 0.03,-0.29 -0.13,0.58c-0.02,0.14 0.02,0.28 -0.01,0.41c-0.03,0.14 -0.12,0.25 -0.17,0.38c-0.19,0.47 -0.14,0.36 -0.25,0.89c-0.04,0.14 -0.09,0.29 -0.13,0.43c-0.07,0.24 -0.16,0.59 -0.22,0.83c-0.03,0.12 -0.06,0.23 -0.09,0.35c-0.02,0.1 -0.03,0.21 -0.07,0.31c-0.04,0.08 -0.11,0.14 -0.16,0.21c-0.02,0.22 0,0.28 -0.08,0.48c-0.03,0.05 -0.07,0.1 -0.1,0.16c-0.02,0.05 0,0.11 -0.03,0.15c-0.02,0.04 -0.08,0.03 -0.11,0.06c-0.01,0.03 0.01,0.06 0.01,0.09c0,0 0.33,0.18 0.33,0.18z" fill="#55443b" id="path6568" opacity="0.83" stroke-linecap="round" stroke-linejoin="round" stroke-miterlimit="4" stroke-width="2"/>
     <path d="m7.39,13.41c0.02,-0.02 0.06,-0.03 0.07,-0.05c0.02,-0.05 0,-0.26 0.01,-0.3c0.02,-0.05 0.08,-0.07 0.09,-0.12c0.12,-0.37 -0.13,0 0.09,-0.28c-0.09,-0.13 0.11,-0.16 0.11,-0.25c0,-0.07 -0.11,-0.12 -0.1,-0.2c0.01,-0.05 0.1,-0.04 0.13,-0.09c0.01,-0.23 -0.02,-0.12 0.1,-0.32c0.07,-0.14 -0.03,-0.28 0,-0.42c0.01,-0.07 0.06,-0.11 0.09,-0.17c0.03,-0.05 0.08,-0.09 0.09,-0.15c0.04,-0.26 -0.16,-0.13 0.08,-0.23c0.11,-0.01 0,-0.08 0.02,-0.11c0.01,-0.01 0.05,0.03 0.06,0.01c0.01,-0.02 -0.05,-0.03 -0.03,-0.04c0.04,-0.03 0.1,0.08 0.04,-0.02c0.06,-0.07 -0.02,-0.02 -0.01,-0.08c0,-0.01 0.02,0 0.03,0c0.01,-0.01 0,-0.04 0,-0.05c0,0 -0.3,-0.16 -0.3,-0.16l0,0c-0.03,-0.01 -0.06,-0.03 -0.09,-0.03c-0.01,0 0.01,0.02 0,0.03c0,0.01 -0.02,0 -0.02,0.01c-0.01,0.01 0.01,0.02 0.01,0.02c0,0.01 -0.01,0.01 -0.01,0.01c0,0.01 0.01,0.02 0.02,0.03c-0.01,0 -0.02,0 -0.03,0c-0.01,0.01 0,0.02 0,0.02c0,0.05 -0.02,-0.02 -0.01,0.05c0.01,0.1 0.05,0.05 -0.06,0.1c-0.04,0.45 0.05,-0.29 -0.11,0.22c-0.02,0.06 0.01,0.13 0,0.2c0,0.06 0,0.13 -0.03,0.2c-0.14,0.35 -0.12,-0.06 -0.09,0.37c-0.03,0.05 -0.07,0.09 -0.09,0.14c-0.02,0.06 -0.01,0.12 -0.02,0.17c-0.01,0.05 -0.02,0.1 -0.04,0.15c-0.04,0.13 -0.05,0.12 -0.15,0.21c-0.02,0.05 0,0.1 0.01,0.15c-0.03,0.07 -0.1,0.21 -0.1,0.29c0,0.06 0.05,0.13 0.04,0.19c-0.01,0.05 -0.09,0.06 -0.11,0.11c-0.11,0.37 0.15,0 -0.02,0.22c0,0 0.33,0.17 0.33,0.17z" fill="#55443b" id="path6570" opacity="0.83" stroke-linecap="round" stroke-linejoin="round" stroke-miterlimit="4" stroke-width="2"/>
     <path d="m5.52,14.37c0.16,-0.07 -0.02,0.03 0.02,-0.15c0,-0.03 0.06,-0.02 0.08,-0.05c0.02,-0.02 0.01,-0.05 0.02,-0.08c0.03,-0.14 0,-0.04 0.05,-0.19c0.19,-0.21 -0.04,0.07 0.09,-0.18c0.02,-0.03 0.06,-0.05 0.07,-0.08c0.02,-0.03 0.01,-0.08 0.03,-0.11c0,0 0.09,-0.17 0.09,-0.17c0.15,-0.17 0,0.04 0.01,-0.23c0,-0.03 0.05,-0.06 0.07,-0.09c0.02,-0.04 0.05,-0.08 0.05,-0.13c0.04,-0.32 -0.11,-0.06 0.08,-0.32c0.08,-0.11 -0.04,-0.26 0.01,-0.38c0.27,-0.65 0.04,0.35 0.21,-0.25c0.09,-0.31 -0.07,-0.02 0.08,-0.25c0.03,-0.13 -0.04,-0.21 0.05,-0.32c0.02,-0.03 0.06,-0.04 0.07,-0.07c0.01,-0.04 -0.01,-0.08 -0.01,-0.12c0,-0.03 0,-0.06 0,-0.1c0.02,-0.02 0.03,-0.05 0.04,-0.08c-0.02,-0.04 -0.07,-0.08 -0.06,-0.12c0,-0.03 0.08,-0.01 0.08,-0.04c0.01,-0.05 -0.07,-0.07 -0.06,-0.12c0,-0.02 0.05,-0.01 0.07,-0.02c0.01,-0.01 0.01,-0.03 0.01,-0.05c-0.01,-0.02 -0.06,-0.05 -0.04,-0.07c0.02,-0.02 0.07,0.04 0.1,0.02c0.02,-0.02 -0.04,-0.04 -0.04,-0.07c0,-0.02 0.02,-0.03 0.02,-0.05c0.01,-0.19 -0.05,0.02 0.02,-0.16c0.04,-0.07 0,-0.13 0.02,-0.2c0,-0.02 0.04,-0.04 0.03,-0.06c0,-0.04 -0.05,-0.06 -0.06,-0.09c0.06,-0.03 0.06,0 0.04,-0.06c0,0 -0.37,-0.2 -0.37,-0.2l0,0c0.01,0.02 0.02,0.03 0.02,0.05c-0.01,0.03 -0.08,0.02 -0.05,0.07c-0.01,0.03 0.01,0.06 0.01,0.09c0.01,0.12 0.01,0.09 -0.03,0.19c-0.15,0.19 0.04,-0.09 0.05,0.2c0,0.03 -0.08,-0.01 -0.1,0.01c-0.01,0.03 0.05,0.04 0.05,0.07c0,0.02 -0.03,0.01 -0.05,0.01c0.01,0.02 0.01,0.04 0.02,0.06c0.01,0.02 0.03,0.04 0.02,0.06c-0.05,0.12 -0.08,-0.06 -0.09,0.1c0,0.03 0.03,0.06 0.02,0.1c0,0.05 -0.09,0.09 -0.05,0.16c-0.04,0.12 -0.03,0.06 -0.01,0.2c-0.04,0.18 -0.07,-0.03 -0.09,0.17c-0.02,0.21 0.08,0.05 -0.06,0.2c0.07,0.33 0.05,0 -0.08,0.26c-0.02,0.04 -0.01,0.1 -0.02,0.16c0,0.06 -0.02,0.12 -0.02,0.17c-0.02,0.29 0.08,0.14 -0.14,0.32c-0.02,0.12 -0.02,0.21 -0.06,0.33c-0.02,0.04 -0.05,0.07 -0.06,0.12c-0.01,0.04 0.01,0.09 0,0.14c-0.07,0.28 -0.08,-0.14 -0.05,0.19c-0.04,0.13 0,0.08 -0.11,0.16c-0.02,0.04 0.02,0.09 0.01,0.13c-0.03,0.11 -0.19,0.13 -0.16,0.27c-0.01,0.03 -0.03,0.06 -0.04,0.09c-0.01,0.03 -0.01,0.06 -0.02,0.09c-0.02,0.02 -0.06,0.03 -0.07,0.06c-0.01,0.03 0.01,0.06 -0.01,0.09c-0.01,0.04 -0.07,0.06 -0.07,0.11c0,0 0.37,0.21 0.37,0.21z" fill="#55443b" id="path6572" opacity="0.83" stroke-linecap="round" stroke-linejoin="round" stroke-miterlimit="4" stroke-width="2"/>
     <path d="m4.88,13.05c-0.08,-0.31 0.01,0.12 0,-0.19c0,-0.05 -0.03,-0.1 -0.03,-0.15c-0.01,-0.01 0.02,-0.29 0.02,-0.29c0.01,-0.05 0.03,-0.09 0.05,-0.13c0,-0.06 0.01,-0.11 0.01,-0.17c-0.01,-0.06 -0.02,-0.12 -0.02,-0.18c0,-0.05 0,-0.11 0.02,-0.15c0.03,-0.05 0.13,-0.04 0.14,-0.09c0.09,-0.4 -0.26,-0.05 0.05,-0.31c0.03,-0.12 0.04,-0.27 0.14,-0.37c0.02,-0.02 0.07,-0.02 0.08,-0.05c0.03,-0.15 -0.13,-0.09 0,-0.12c0,0 -0.38,-0.22 -0.38,-0.22l0,0c0.08,0.16 0.03,0 -0.04,0.1c-0.01,0.03 0.02,0.07 0,0.1c-0.01,0.04 -0.06,0.06 -0.08,0.09c-0.04,0.08 -0.04,0.21 -0.05,0.29c-0.11,0.54 0.05,-0.21 -0.11,0.28c-0.01,0.05 0,0.1 -0.01,0.15c-0.02,0.05 -0.05,0.09 -0.07,0.13c-0.05,0.15 -0.03,0.19 -0.02,0.34c-0.01,0.04 -0.02,0.09 -0.04,0.14c-0.02,0.04 -0.08,0.07 -0.08,0.12c0.01,0.07 0.09,0.12 0.1,0.19c0,0.04 -0.04,0.07 -0.05,0.11c-0.04,0.1 -0.03,0.08 0,0.19c0,0 0.37,0.19 0.37,0.19z" fill="#55443b" id="path6574" opacity="0.83" stroke-linecap="round" stroke-linejoin="round" stroke-miterlimit="4" stroke-width="2"/>
     <path d="m3.86,12.87c0.15,-0.08 0,0.03 0.07,-0.13c0.01,-0.03 0.06,-0.03 0.07,-0.06c0.01,-0.04 -0.01,-0.08 -0.01,-0.12c-0.01,-0.15 -0.02,-0.09 0.04,-0.22c0.01,-0.03 0.04,-0.05 0.05,-0.09c0,-0.04 -0.02,-0.08 -0.02,-0.12c0,-0.04 -0.01,-0.07 -0.01,-0.1c0,-0.03 0,-0.05 0.02,-0.07c0.05,-0.09 0.05,0.01 0.04,-0.08c-0.02,-0.04 -0.01,-0.02 -0.04,-0.05c0,0 -0.28,-0.16 -0.28,-0.16l0,0c-0.11,-0.03 -0.1,-0.04 0,0.04c-0.01,0 -0.02,0.01 -0.04,0.02c-0.01,0.01 -0.04,0.01 -0.05,0.03c-0.01,0.02 0.01,0.05 0.01,0.08c-0.01,0.1 -0.07,0.19 -0.09,0.29c0,0.03 0,0.07 0,0.11c0,0.05 0.03,0.09 0.02,0.13c0,0.04 -0.06,0.04 -0.07,0.08c-0.01,0.03 0.02,0.07 0.02,0.11c0.01,0.12 -0.01,0.08 -0.12,0.1c0,0 0.39,0.21 0.39,0.21z" fill="#55443b" id="path6576" opacity="0.83" stroke-linecap="round" stroke-linejoin="round" stroke-miterlimit="4" stroke-width="2"/>
    </g>
   </g>
  </g>
 </g>
</svg>