<svg width="1709.589" height="1672.897" xmlns="http://www.w3.org/2000/svg" xmlns:svg="http://www.w3.org/2000/svg" enable-background="new 0 0 1709.589 1672.897" version="1.1" xml:space="preserve">
    <g class="layer">
    <title>Layer 1</title>
    <g id="svg_1" transform="translate(1.68357 1.75062) scale(1.20797 1.19448) translate(-1.68357 -1.75062) translate(1.40466 1.56879) matrix(0.0536192 0 0 0.0616805 -1.47883 -1.82858)">
    <path d="m1152.27,80.52c11.81,-0.37 142.97,-0.08 148.29,0.11c0.04,35.71 0.17,71.43 -0.07,107.14c-21.19,0.25 -42.39,0.13 -63.59,0.07c-14.57,-43.75 -33.31,-102.81 -35.24,-107.27c-8.74,-0.17 -17.49,-0.22 -26.22,0.04c4.68,15.48 32.5,99.21 34.62,107.19c-6.92,0.15 -13.83,0.13 -20.74,0.06c-2.87,-7.99 -35.35,-100.57 -37.05,-107.34z" fill="#7F7F7F" id="svg_2" stroke="#7F7F7F" stroke-width="0.5"/>
    <path d="m1002.66,80.58c36.6,-0.37 73.21,-0.08 109.8,-0.14c0.35,1 34.67,99.59 37.02,107.36c-48.93,0.19 -97.87,0.1 -146.8,0.04c-0.24,-11.64 -0.24,-97.49 -0.02,-107.26z" fill="#7F7F7F" id="svg_3" stroke="#7F7F7F" stroke-width="0.5"/>
    <path d="m1112.46,80.44c13.27,-0.09 26.55,-0.26 39.81,0.08c1.72,6.85 34.13,99.21 37.05,107.34c-13.28,-0.04 -26.57,0.09 -39.84,-0.06c-2.31,-7.63 -36.66,-106.36 -37.02,-107.36z" fill="#E7E5E6" id="svg_4" stroke="#E7E5E6" stroke-width="0.5"/>
    <path d="m1175.44,80.61c8.74,-0.25 17.48,-0.21 26.22,-0.04c1.93,4.46 20.67,63.5 35.24,107.27c-8.95,0.01 -17.9,0.09 -26.84,-0.04c-1.98,-7.47 -30.2,-92.58 -34.62,-107.19z" fill="#E7E5E6" id="svg_5" stroke="#E7E5E6" stroke-width="0.5"/>
    <path d="m728.68,581.59c0,-1 -0.15,-431.92 -0.24,-433.65c-4.45,6.58 -42.39,73.41 -46.69,80.14c-3.8,-3.05 -16.96,-28.42 -26.33,-43.77c-15.72,-26.43 -20.4,-39.61 -22.88,-35.27c-1.39,2 -39.18,67.2 -39.76,68.2c-1.89,3.45 -3.71,7.01 -6.51,9.84c-4.08,-4.52 -41.62,-71.54 -46.12,-78.15c-1.82,-3.12 -7.6,-3.56 -9.11,0.06c-3.43,6.5 -41.09,72.61 -46.23,78.03c-5.33,-5.51 -5.97,-10.47 -25.93,-43.21c0,0 0,0 0,0c-4.18,-7.54 -8.74,-14.89 -12.99,-22.39c-2.6,-4.41 -4.64,-9.24 -8.3,-12.92c-0.84,7.93 -0.74,261.68 0.02,267.84c0.28,-0.82 0.49,-1.34 0.66,-2.31c-0.21,1.23 -0.49,1.75 -0.89,3.04c-0.08,54.84 0,109.67 -0.03,164.52c97.11,-0.01 194.22,-0.02 291.33,0zm-132.6,-56.51c-26.71,0.07 -53.43,0.04 -80.15,0.02c-0.04,-8.18 -0.04,-16.34 0,-24.52c26.72,-0.02 53.43,-0.05 80.15,0.02c0.05,8.16 0.05,16.32 0,24.48zm0,-38.46c-26.71,0.06 -53.43,0.05 -80.14,0c-0.05,-8.44 -0.05,-16.87 -0.01,-25.32c26.72,-0.02 53.44,-0.05 80.15,0.02c0.05,8.43 0.05,16.86 0,25.3zm0,-37.63c-26.71,0.03 -53.42,0.06 -80.13,-0.02c-0.08,-8.17 -0.06,-16.33 -0.01,-24.49c26.71,-0.04 53.43,-0.04 80.14,0.01c0.05,8.16 0.05,16.33 0,24.5zm0,-36.84c-26.71,0.06 -53.42,0.06 -80.14,0c-0.04,-8.43 -0.07,-16.86 0.01,-25.29c26.71,-0.09 53.42,-0.05 80.14,-0.02c0.04,8.44 0.04,16.87 -0.01,25.31zm64.65,112.93c-9.81,0.06 -19.6,0.06 -29.4,0c-0.06,-8.16 -0.07,-16.32 0.01,-24.48c9.79,-0.07 19.59,-0.06 29.39,0c0.05,8.16 0.05,16.32 0,24.48zm-29.4,-63.76c9.8,-0.07 19.6,-0.06 29.4,0c0.05,8.43 0.05,16.86 0,25.3c-9.8,0.06 -19.6,0.06 -29.41,0.01c-0.04,-8.44 -0.06,-16.88 0.01,-25.31zm29.39,-12.34c-9.8,0.06 -19.6,0.06 -29.4,0c-0.05,-8.17 -0.05,-16.33 0,-24.49c9.81,-0.05 19.61,-0.05 29.41,0c0.04,8.16 0.07,16.32 -0.01,24.49zm0,-38.47c-9.8,0.08 -19.6,0.05 -29.39,0.01c-0.06,-8.71 -0.06,-17.43 0,-26.13c9.8,-0.05 19.59,-0.06 29.39,0c0.06,8.71 0.07,17.41 0,26.12zm0.01,-40.91c-49.36,0.06 -98.71,0.04 -148.07,0.01c-0.05,-8.72 -0.05,-17.43 0,-26.14c49.36,-0.04 98.71,-0.05 148.07,0.01c0.05,8.71 0.05,17.41 0,26.12zm-148.08,-65.41c49.37,-0.04 98.72,-0.05 148.08,0.01c0.04,8.43 0.05,16.86 -0.01,25.3c-49.35,0.06 -98.7,0.05 -148.06,0.01c-0.05,-8.45 -0.04,-16.88 -0.01,-25.32zm-73.92,-35.83c-0.04,79.47 0.12,114.85 0.03,131.32c0.09,-16.47 -0.07,-51.87 -0.03,-131.32z" fill="#D9D9D9" id="svg_6" stroke="#D9D9D9" stroke-width="0.5"/>
    <path d="m1420.49,501.58c-3.77,-33.78 -21.42,-51.63 -32.06,-62.38c-0.22,-0.07 -0.65,-0.22 -0.86,-0.3c-4.51,-0.68 -7.78,-4.04 -11.35,-6.52c-7.71,-5.81 -27.29,-12.92 -36.26,-13.4c-2.51,-0.13 -4.35,-0.24 -5.7,-0.35c1.35,0.11 3.2,0.22 5.7,0.35c8.99,0.48 28.56,7.6 36.26,13.4c3.57,2.48 6.84,5.84 11.35,6.52c-0.29,-0.41 -0.85,-1.24 -1.14,-1.66c-43.82,-26.96 -26.43,-19.91 -202.65,-21.06c-0.13,-8.17 -0.11,-152.89 -0.03,-178.24c41.75,-0.22 83.5,0.19 125.25,-0.2c13.61,-2.42 25.47,-13.33 27.98,-27.07c0.95,-6.71 0.53,-13.51 0.64,-20.26c0,-126.75 0.42,-122.27 -1.07,-128.38c-1.59,-6.2 -4.98,-12.01 -9.81,-16.24c-0.15,3.49 2.95,5.67 4.67,8.33c3.34,4.35 4.35,9.93 4.64,15.29c0,0 0,0 0,0c-0.29,-5.35 -1.3,-10.94 -4.64,-15.29c-1.72,-2.66 -4.82,-4.84 -4.67,-8.33c-4.64,-4.38 -10.48,-7.59 -16.81,-8.61c-14.4,0.37 -95.28,0.28 -171.07,0.22c76.28,0.05 157.68,0.12 171.07,-0.22c-6,-0.91 14.34,-0.71 -294.83,-0.68c-10.76,0.33 -22.66,-1.65 -32.15,4.71c-7.65,4.28 -13.36,11.73 -15.74,20.14c-1.8,6.07 -1.31,3.53 -1.31,130.7c0.03,6.08 -0.22,12.21 0.64,18.25c1.91,9.91 8.31,18.99 17.38,23.59c9.22,5.49 8.14,3.98 135.79,4.09c0.3,0.87 0.52,1.05 0.7,1.92c-0.13,-0.52 -0.29,-0.72 -0.48,-1.28c-0.24,14.44 -0.27,152.51 0,176.63c-0.13,0.35 -0.27,0.7 -0.43,1.07c-4.38,1.42 -9.03,0.84 -13.54,0.86c-422.9,-0.09 -365.83,0.44 -377.34,-0.85c0.08,29.52 0.14,222.68 -0.08,240.39c-9.83,0.25 -277.6,0.1 -291.05,0c-0.22,-17.43 -0.13,-222.05 -0.11,-239.65c-16.92,0.43 -33.86,-0.15 -50.78,0.17c-3.37,0.13 -6.73,-0.21 -10.06,-0.68c-49.35,1.39 -89.67,43.67 -90.29,91.1c0.91,5.29 0.63,-11.99 0.66,222.86c-0.23,8.8 0.53,17.65 -0.5,26.42c6.53,-0.38 904.5,-0.21 1134.6,-0.27c0.03,-256.17 0.26,-244 -0.52,-255.09zm-84.18,-301.33c0.03,0.76 0.04,1.52 0.02,2.28c0.02,-0.76 0.01,-1.52 -0.02,-2.28c-0.02,-0.25 -0.04,-0.57 -0.05,-0.92c0.01,0.35 0.03,0.67 0.05,0.92zm-338.2,-162.53c-3.4,0.38 -6.68,1.33 -9.97,2.23c3.29,-0.9 6.57,-1.85 9.97,-2.23c0.1,-0.01 0.25,-0.02 0.44,-0.03c-0.18,0.01 -0.34,0.02 -0.44,0.03zm4.57,150.12c-0.24,-11.68 -0.24,-97.52 -0.02,-107.26c24.97,-0.25 141.32,-0.27 149.61,-0.06c12.84,-0.41 143.6,-0.05 148.29,0.11c0.04,35.71 0.17,71.43 -0.07,107.14c-12.19,0.14 -275.95,0.1 -297.81,0.07zm179.65,54.43c0.15,-2.63 0.37,-3.2 0.71,-4.47c-0.34,1.27 -0.56,1.86 -0.71,4.47zm0.04,171.25c0,-0.12 -0.01,-0.24 -0.01,-0.34c-0.22,-8.84 -0.29,-17.68 -0.29,-26.53c0,8.84 0.07,17.69 0.29,26.53c0,0.1 0.01,0.22 0.01,0.34zm-61.52,-162.63c0.16,15.84 0.03,54.34 0,151.48c0,0.01 0,0.03 -0.01,0.04c0,-0.01 0,-0.03 0.01,-0.04c0.03,-97.41 0.14,-135.82 0,-151.48zm0.08,156.76c0.04,1.21 0.04,2.37 -0.08,3.55c0.1,-1.17 0.11,-2.36 0.08,-3.55zm198.68,236.06c-28.76,0.12 -427.99,0.04 -455.9,0c-0.11,-19.27 -0.27,-138.48 0.05,-142.91c47.1,-0.02 424.99,-0.03 455.75,0c0.36,7.52 0.31,139.62 0.1,142.91zm-114.67,-226.39c-6.77,0.05 -13.55,1.13 -20.3,0.4c-0.83,-0.09 -1.35,-0.51 -1.68,-1.1c0.33,0.59 0.85,1.01 1.68,1.1c6.75,0.72 13.53,-0.35 20.3,-0.4c109.24,-0.13 123.53,-0.08 125.33,0.35c-1.98,-0.42 -16.77,-0.48 -125.33,-0.35z" fill="#222A35" id="svg_7" stroke="#222A35" stroke-width="0.5"/>
    <path d="m512.65,304.19c49.37,-0.04 98.72,-0.05 148.08,0.01c0.04,8.43 0.05,16.86 -0.01,25.3c-49.35,0.06 -98.7,0.05 -148.06,0.01c-0.05,-8.45 -0.04,-16.88 -0.01,-25.32z" fill="#404040" id="svg_8" stroke="#404040" stroke-width="0.5"/>
    <path d="m512.66,343.47c49.36,-0.04 98.71,-0.05 148.07,0.01c0.05,8.7 0.05,17.41 -0.01,26.12c-49.35,0.05 -98.7,0.04 -148.06,0.01c-0.05,-8.72 -0.05,-17.43 0,-26.14z" fill="#404040" id="svg_9" stroke="#404040" stroke-width="0.5"/>
    <path d="m631.33,384.39c9.8,-0.05 19.59,-0.06 29.4,0c0.05,8.71 0.06,17.41 -0.01,26.12c-9.8,0.08 -19.6,0.05 -29.39,0c-0.06,-8.7 -0.06,-17.42 0,-26.12z" fill="#404040" id="svg_10" stroke="#404040" stroke-width="0.5"/>
    <path d="m515.95,386.86c26.71,-0.08 53.42,-0.05 80.14,-0.02c0.04,8.44 0.04,16.88 -0.01,25.31c-26.71,0.06 -53.42,0.06 -80.14,0c-0.05,-8.43 -0.07,-16.86 0.01,-25.29z" fill="#404040" id="svg_11" stroke="#404040" stroke-width="0.5"/>
    <path d="m376.54,416.56c7.39,-0.56 55.64,-0.37 61.07,-0.22l-0.23,0.73c-16.92,0.43 -33.86,-0.15 -50.78,0.17c-3.37,0.13 -6.73,-0.21 -10.06,-0.68z" fill="#3D174C" id="svg_12" stroke="#3D174C" stroke-width="0.5"/>
    <path d="m729.34,416.41c28.69,-0.22 361.43,-0.12 390.16,-0.09c-4,1.3 22.8,0.92 -375.28,0.84c-4.97,0.07 -9.99,0.34 -14.88,-0.75z" fill="#3D144C" id="svg_13" stroke="#3D144C" stroke-width="0.5"/>
    <path d="m515.94,424.48c26.71,-0.04 53.43,-0.04 80.14,0.01c0.05,8.16 0.05,16.33 0,24.49c-26.71,0.04 -53.42,0.07 -80.13,-0.01c-0.08,-8.17 -0.06,-16.33 -0.01,-24.49z" fill="#404040" id="svg_14" stroke="#404040" stroke-width="0.5"/>
    <path d="m631.32,424.49c9.81,-0.05 19.61,-0.05 29.41,0c0.04,8.16 0.07,16.32 -0.01,24.49c-9.8,0.06 -19.6,0.06 -29.4,0c-0.05,-8.17 -0.05,-16.33 0,-24.49z" fill="#404040" id="svg_15" stroke="#404040" stroke-width="0.5"/>
    <path d="m515.93,461.3c26.72,-0.02 53.44,-0.05 80.15,0.02c0.05,8.43 0.05,16.86 0,25.3c-26.71,0.06 -53.43,0.05 -80.14,0c-0.05,-8.44 -0.05,-16.87 -0.01,-25.32z" fill="#404040" id="svg_16" stroke="#404040" stroke-width="0.5"/>
    <path d="m631.33,461.32c9.8,-0.07 19.6,-0.06 29.4,0c0.05,8.43 0.05,16.86 0,25.3c-9.8,0.06 -19.6,0.06 -29.41,0.01c-0.04,-8.44 -0.06,-16.88 0.01,-25.31z" fill="#404040" id="svg_17" stroke="#404040" stroke-width="0.5"/>
    <path d="m515.93,500.58c26.72,-0.02 53.43,-0.05 80.15,0.02c0.05,8.16 0.05,16.32 0,24.48c-26.71,0.07 -53.43,0.04 -80.15,0.02c-0.04,-8.18 -0.04,-16.34 0,-24.52z" fill="#404040" id="svg_18" stroke="#404040" stroke-width="0.5"/>
    <path d="m631.34,500.6c9.79,-0.07 19.59,-0.06 29.39,0c0.05,8.16 0.05,16.32 0,24.48c-9.81,0.06 -19.6,0.06 -29.4,0c-0.06,-8.16 -0.07,-16.32 0.01,-24.48z" fill="#404040" id="svg_19" stroke="#404040" stroke-width="0.5"/>
    <path d="m863.76,500.8c76.58,-0.03 153.16,-0.02 229.74,0c14.96,47.66 29.87,95.35 45.01,142.95c-91.59,0.02 -183.2,0.1 -274.79,-0.04c-0.08,-11.48 -0.32,-137.86 0.04,-142.91z" fill="#7F7F7F" id="svg_20" stroke="#7F7F7F" stroke-width="0.5"/>
    <path d="m1093.5,500.8c13.95,-0.06 27.89,-0.04 41.84,-0.01c15.1,47.62 29.92,95.35 45.14,142.95c-14,0.08 -27.98,0.04 -41.97,0.01c-15.14,-47.6 -30.06,-95.29 -45.01,-142.95z" fill="#E7E5E6" id="svg_21" stroke="#E7E5E6" stroke-width="0.5"/>
    <path d="m1135.34,500.79c11.66,-0.01 23.34,-0.03 35.01,0c14.29,47.71 28.97,95.31 43.52,142.94c-11.13,0.07 -22.27,0.1 -33.39,0c-15.22,-47.59 -30.04,-95.32 -45.14,-142.94z" fill="#7F7F7F" id="svg_22" stroke="#7F7F7F" stroke-width="0.5"/>
    <path d="m1170.35,500.8c9.37,-0.07 18.74,-0.03 28.13,-0.03c14.54,47.63 29.1,95.26 43.52,142.92c-9.38,0.16 -18.76,0.09 -28.13,0.04c-14.55,-47.63 -29.23,-95.23 -43.52,-142.93z" fill="#E7E5E6" id="svg_23" stroke="#E7E5E6" stroke-width="0.5"/>
    <path d="m1198.48,500.77c40.34,0.03 80.68,-0.01 121.03,0.02c0.33,6.99 0.35,139.03 0.1,142.92c-25.87,0.11 -51.74,0.14 -77.61,-0.02c-14.42,-47.67 -28.98,-95.29 -43.52,-142.92z" fill="#7F7F7F" id="svg_24" stroke="#7F7F7F" stroke-width="0.5"/>
    <path d="m286.25,507.66c0.91,5.29 0.63,-12.01 0.66,222.86c-0.23,8.8 0.53,17.65 -0.5,26.42c-0.83,-4.74 -0.82,-241.42 -0.16,-249.28z" fill="#471053" id="svg_25" stroke="#471053" stroke-width="0.5"/>
    <path d="m437.35,581.59c97.11,-0.01 194.22,-0.02 291.33,0c-0.15,25.04 0.16,50.1 -0.14,75.13c-9.42,0.24 -275.69,0.12 -291.05,0c-0.31,-25.04 0,-50.09 -0.14,-75.13z" id="svg_26" stroke="#000000" stroke-width="0.5"/>
    <path d="m1671.71,1381.66c-6.73,0.45 -812.72,0.26 -813.72,0.26l0,0.82c-1.01,0 -814.63,-0.09 -820.37,0.1c0.06,-1.75 0,-3.51 0.02,-5.23c49.63,-124.34 247.95,-616.77 248.77,-620.67c9.4,-0.55 -15.79,0.03 1134.6,-0.27c14.42,36.46 240.66,599.46 250.7,624.99z" fill="#333E50" id="svg_27" stroke="#333E50" stroke-width="0.5"/>
    <path d="m375.21,920.43c-0.1,5.07 4.74,9.27 9.71,8.95c34.68,0 69.36,0 104.04,0c4.99,0.34 9.73,-3.92 9.71,-8.95c0.02,-1 0.34,-35.1 -0.3,-38.26c-1.03,-4.14 -5.2,-7.05 -9.41,-6.8c-32.75,-0.02 -65.5,0.01 -98.25,-0.01c-5.01,0.07 -11.75,-1.19 -14.83,5.64c-0.85,2.09 -0.7,4.41 -0.75,6.64c0.1,10.93 -0.07,21.87 0.08,32.79z" fill="#C6C6C6" id="svg_28" stroke="#C6C6C6" stroke-width="0.5"/>
    <path d="m583.47,924.81c1.7,2.95 5.1,4.68 8.49,4.57c34.41,0 68.82,0 103.23,0c4.95,0.28 9.79,-3.88 9.7,-8.95c0.02,-1.01 0.35,-35.07 -0.29,-38.26c-1.06,-4.1 -5.21,-7.03 -9.41,-6.81c-112.52,-0.03 -102.75,-0.04 -106.21,0.34c-4.07,1.1 -7,5.21 -6.77,9.42c-0.07,10.66 0.04,21.32 -0.05,31.98c0.05,2.59 -0.14,5.41 1.31,7.71z" fill="#C6C6C6" id="svg_29" stroke="#C6C6C6" stroke-width="0.5"/>
    <path d="m791.15,926.63c2.63,2.87 6.76,2.84 10.36,2.79c106.38,-0.46 104.64,1.77 108.57,-3.63c2.21,-2.64 1.88,-6.3 1.95,-9.51c-0.15,-10.65 0.1,-21.31 -0.11,-31.96c0.05,-5.09 -4.69,-9.27 -9.69,-8.94c-15.12,-0.06 -79.12,0.04 -102.39,-0.05c-3.29,-0.14 -6.9,0.54 -9.09,3.22c-3.2,3.23 -2.23,5 -2.36,39.41c-0.06,3.07 0.32,6.49 2.76,8.67z" fill="#C6C6C6" id="svg_30" stroke="#C6C6C6" stroke-width="0.5"/>
    <path d="m997.07,925.32c1.88,3.01 5.57,4.25 8.99,4.06c34.4,-0.02 68.8,0.01 103.21,-0.01c4.97,0.32 9.8,-3.86 9.71,-8.94c0.09,-12.04 0.08,-24.08 0,-36.12c0.02,-5.04 -4.75,-9.23 -9.71,-8.94c-113.11,-0.03 -104.13,-0.06 -107.03,0.35c-4.06,1.09 -7.02,5.2 -6.77,9.41c-0.06,10.65 0.02,21.31 -0.04,31.97c0.03,2.78 -0.14,5.86 1.64,8.22z" fill="#C6C6C6" id="svg_31" stroke="#C6C6C6" stroke-width="0.5"/>
    <path d="m1201.73,920.43c-0.08,5.07 4.72,9.26 9.7,8.95c111.69,0.02 104.25,0.07 106.36,-0.2c4.42,-0.77 7.74,-5.1 7.46,-9.57c0.01,-11.49 0.01,-22.99 -0.01,-34.48c0.11,-3.38 -1.59,-6.82 -4.58,-8.46c-2.53,-1.66 -5.67,-1.28 -8.51,-1.33c-104.15,0.2 -99.87,-0.33 -103.67,0.38c-4.1,1.07 -7.06,5.16 -6.79,9.4c0,11.77 -0.07,23.54 0.04,35.31z" fill="#C6C6C6" id="svg_32" stroke="#C6C6C6" stroke-width="0.5"/>
    <path d="m488.97,983.4c-1,0 -102.07,-0.25 -106.99,0.34c-4.19,0.96 -7.05,5.15 -6.79,9.39c-0.05,12.05 -0.09,24.1 0.02,36.14c-0.11,5.1 4.72,9.24 9.7,8.93c34.68,0.03 69.37,0.03 104.06,0c5,0.37 9.82,-3.81 9.69,-8.93c0.19,-10.92 -0.02,-21.86 0.09,-32.79c-0.06,-3.04 0.26,-6.41 -1.58,-9.03c-1.79,-2.69 -5,-4.19 -8.2,-4.05z" fill="#C6C6C6" id="svg_33" stroke="#C6C6C6" stroke-width="0.5"/>
    <path d="m704.87,992.33c0.11,-5.09 -4.71,-9.28 -9.68,-8.94c-41.38,-0.04 -101.91,-0.19 -106.17,0.35c-3.86,0.91 -6.79,4.61 -6.77,8.59c-0.18,10.93 0.03,21.86 -0.08,32.78c0.04,2.48 -0.14,5.08 0.73,7.47c1.4,3.6 5.25,5.78 9.05,5.62c33.57,0.07 67.15,-0.03 100.72,0.05c3.33,0.05 7.17,-0.05 9.59,-2.71c2.66,-2.45 2.75,-6.25 2.71,-9.6c-0.12,-11.2 0.12,-22.42 -0.1,-33.61z" fill="#C6C6C6" id="svg_34" stroke="#C6C6C6" stroke-width="0.5"/>
    <path d="m788.48,1029.26c-0.04,3.98 2.87,7.72 6.78,8.55c3.47,0.71 -3.28,0.3 106.14,0.42c3.02,0.07 6.33,-0.64 8.31,-3.12c2.47,-2.69 2.29,-6.59 2.32,-9.98c-0.16,-10.93 0.12,-21.87 -0.13,-32.79c0.09,-4.79 -4.1,-8.96 -8.87,-8.89c-10.6,-0.12 -72.98,-0.04 -104.03,-0.08c-3.04,-0.07 -6.28,0.72 -8.28,3.15c-2.55,2.64 -2.28,6.56 -2.33,9.95c0.13,10.93 -0.13,21.86 0.09,32.79z" fill="#C6C6C6" id="svg_35" stroke="#C6C6C6" stroke-width="0.5"/>
    <path d="m1005.21,1038.2c34.68,0.03 69.37,0.01 104.06,0.01c5.01,0.37 9.79,-3.84 9.7,-8.94c0.16,-10.65 -0.03,-21.31 0.08,-31.96c-0.05,-2.58 0.12,-5.2 -0.54,-7.7c-1.15,-3.92 -5.26,-6.41 -9.24,-6.22c-113.19,-0.09 -104.61,0 -107,0.35c-3.84,0.92 -6.8,4.59 -6.75,8.58c-0.18,10.39 0.01,20.78 -0.08,31.16c0.03,2.84 -0.21,5.75 0.52,8.53c1.2,3.89 5.25,6.38 9.25,6.19z" fill="#C6C6C6" id="svg_36" stroke="#C6C6C6" stroke-width="0.5"/>
    <path d="m1324.54,989.03c-1.41,-3.59 -5.25,-5.82 -9.04,-5.64c-112.54,-0.08 -104.84,-0.05 -107,0.35c-4.2,0.95 -7.06,5.16 -6.79,9.4c-0.06,11.77 -0.04,23.55 -0.01,35.32c-0.29,4.23 2.62,8.44 6.8,9.41c2.4,0.49 -4.3,0.37 106.99,0.35c5.01,0.37 9.81,-3.86 9.7,-8.94c0.16,-10.93 -0.01,-21.87 0.08,-32.79c-0.07,-2.51 0.13,-5.09 -0.73,-7.46z" fill="#C6C6C6" id="svg_37" stroke="#C6C6C6" stroke-width="0.5"/>
    <path d="m488.96,1092.22c-112.55,-0.03 -103.67,-0.04 -106.97,0.36c-3.9,0.89 -6.75,4.62 -6.77,8.59c-0.18,11.19 0.02,22.4 -0.09,33.61c0.04,2.94 -0.12,6.29 1.95,8.69c1.8,2.45 4.85,3.63 7.84,3.57c111.86,0.17 107.04,0.74 110.22,-1.89c2.47,-1.8 3.64,-4.87 3.57,-7.85c0.23,-37.79 0.34,-38.31 -1.52,-41.02c-1.76,-2.73 -5.04,-4.17 -8.23,-4.06z" fill="#C6C6C6" id="svg_38" stroke="#C6C6C6" stroke-width="0.5"/>
    <path d="m594.47,1147.08c33.57,-0.06 67.15,0.01 100.72,-0.03c2.97,0.04 6.06,-1.12 7.86,-3.57c2.01,-2.42 1.87,-5.76 1.93,-8.7c-0.18,-33.39 0.53,-34.94 -1.25,-37.98c-1.74,-2.95 -5.16,-4.68 -8.54,-4.57c-41.32,-0.03 -102.02,-0.17 -106.18,0.33c-3.88,0.91 -6.76,4.62 -6.76,8.61c-0.17,11.47 0.02,22.96 -0.08,34.44c-0.25,8.8 4.16,11.63 12.3,11.47z" fill="#C6C6C6" id="svg_39" stroke="#C6C6C6" stroke-width="0.5"/>
    <path d="m788.44,1137.31c-0.07,3.36 1.45,6.88 4.55,8.49c3.82,2.04 0.36,1.09 108.42,1.27c3.03,0.06 6.32,-0.67 8.34,-3.11c3.19,-3.42 2.04,-5.81 2.28,-39.48c-0.03,-3.15 -0.02,-6.71 -2.31,-9.15c-3.88,-4.6 -0.78,-2.77 -109.89,-3.14c-3.08,-0.08 -6.42,0.43 -8.66,2.75c-2.75,2.35 -2.8,6.21 -2.79,9.54c0.11,10.94 -0.05,21.89 0.06,32.83z" fill="#C6C6C6" id="svg_40" stroke="#C6C6C6" stroke-width="0.5"/>
    <path d="m996.15,1141.4c1.37,3.62 5.25,5.8 9.06,5.64c34.68,0.03 69.37,0 104.06,0c3.2,0.11 6.47,-1.33 8.24,-4.06c2.02,-2.94 1.55,-3.66 1.53,-40.17c0.04,-7.32 -4.19,-10.86 -10.61,-10.6c-109.07,0.11 -102.6,-0.24 -106.16,0.37c-3.9,0.85 -6.75,4.63 -6.75,8.58c-0.2,10.65 0.02,21.32 -0.08,31.98c0.04,2.74 -0.23,5.6 0.71,8.26z" fill="#C6C6C6" id="svg_41" stroke="#C6C6C6" stroke-width="0.5"/>
    <path d="m1315.49,1092.23c-111.7,-0.08 -104.75,-0.1 -106.99,0.35c-3.88,0.89 -6.8,4.6 -6.75,8.58c-0.18,11.2 0,22.42 -0.09,33.62c0,2.95 -0.12,6.28 1.94,8.69c1.77,2.46 4.85,3.64 7.84,3.58c34.68,0 69.37,0.01 104.05,0c5,0.35 9.79,-3.84 9.69,-8.93c0.18,-10.93 -0.01,-21.87 0.09,-32.79c-0.08,-2.71 0.15,-5.56 -0.96,-8.08c-1.58,-3.28 -5.27,-5.14 -8.82,-5.02z" fill="#C6C6C6" id="svg_42" stroke="#C6C6C6" stroke-width="0.5"/>
    <path d="m498.02,1205.91c-1.33,-3.65 -5.28,-5.82 -9.06,-5.66c-112.86,-0.11 -104.83,-0.09 -106.98,0.36c-3.84,0.9 -6.79,4.6 -6.76,8.57c-0.19,10.93 0.02,21.87 -0.09,32.8c0.05,3.03 -0.25,6.38 1.55,9.04c1.77,2.71 5.05,4.11 8.24,4.05c113.59,0.09 104.61,0 106.34,-0.21c4.18,-0.59 7.46,-4.52 7.41,-8.72c0.17,-10.66 -0.03,-21.32 0.08,-31.97c-0.05,-2.77 0.17,-5.62 -0.73,-8.26z" fill="#C6C6C6" id="svg_43" stroke="#C6C6C6" stroke-width="0.5"/>
    <path d="m1116.34,1202.92c-3.85,-4.11 27.39,-2.53 -523.57,-2.68c-3.43,-0.14 -7.14,1.03 -9.04,4.07c-1.88,2.9 -1.48,6.54 -1.57,9.85c0.15,10.65 -0.13,21.31 0.1,31.96c-0.01,3.96 2.87,7.73 6.77,8.59c4.16,0.76 -23.05,0.17 519.42,0.38c3.22,0.08 6.72,-0.83 8.7,-3.59c2.14,-2.68 1.84,-6.31 1.92,-9.52c-0.27,-32.72 1.05,-35.65 -2.73,-39.06z" fill="#C6C6C6" id="svg_44" stroke="#C6C6C6" stroke-width="0.5"/>
    <path d="m1323.36,1203.82c-1.99,-2.73 -5.48,-3.74 -8.7,-3.59c-110.22,0.08 -103.32,-0.2 -106.16,0.37c-3.87,0.88 -6.8,4.6 -6.76,8.58c-0.18,11.2 0.01,22.41 -0.09,33.62c0.03,2.94 -0.12,6.27 1.93,8.69c1.99,2.69 5.44,3.75 8.7,3.6c34.4,-0.04 68.8,0 103.21,-0.03c4.99,0.35 9.82,-3.83 9.7,-8.93c0.17,-11.2 -0.02,-22.41 0.08,-33.61c-0.04,-2.97 0.09,-6.28 -1.91,-8.7z" fill="#C6C6C6" id="svg_45" stroke="#C6C6C6" stroke-width="0.5"/>
    <path d="m1672.04,1636.23c-64.29,0.24 -772.03,-0.06 -814.05,0.22c0,-0.41 0,-1.23 0,-1.65c-1.01,0 -812.71,0.2 -820.51,-0.24c-0.24,-4.73 -0.49,-244.08 0.14,-251.72c5.74,-0.18 819.32,-0.1 820.37,-0.1l0,-0.82c1,0 806.99,0.19 813.72,-0.25c1.01,4.74 0.7,249.14 0.33,254.56z" fill="#222A35" id="svg_46" stroke="#222A35" stroke-width="0.5"/>
    <path d="m1313.62,1438.57c-10.47,-0.27 -915.18,-0.36 -920.3,-0.02c-0.31,25.27 -0.16,136.09 0.01,142.87c9.17,0.15 914.33,0.43 920.28,0.01c0.16,-6.72 0.38,-138.22 0.01,-142.86z" fill="#333E50" id="svg_47" stroke="#333E50" stroke-width="0.5"/>
    </g>
    </g>
</svg>