<svg width="80" height="90" xmlns="http://www.w3.org/2000/svg" xmlns:svg="http://www.w3.org/2000/svg">
 <metadata>image/svg+xmlOpenclipartCartoon mouse on top of a cheese2008-07-07T17:57:24My previously published mouse on a cheesehttps://openclipart.org/detail/17633/cartoon-mouse-on-top-of-a-cheese-by-lemmlinglemmlinganimalcartooncheesecolourfoodhow i did itmammalmouse</metadata>
 <g class="layer" display="inline">
  <title>Layer 1</title>
  <g id="svg_33" transform="translate(0 1) translate(0 1) translate(0 1) translate(0 1) translate(0 1) translate(-1 0) translate(-1 0) translate(-1 0) translate(-1 0) translate(-1 0) translate(-1 0) translate(-1 0) translate(-1 0) translate(-1 0) translate(-1 0) translate(-1 0) translate(-1 0) translate(-1 0) translate(1 0) matrix(0.0785456 0 0 0.0689162 21.202 1.32822)">
   <g display="inline" id="svg_1">
    <title>Layer 1</title>
    <path d="m460.15,73.15s16.58,107.89 -11,179.3l-222.45,434.7l-209.61,-439.09c-25.46,-88.38 -11,-174.91 -11,-174.91c0,0.01 47.65,-71.15 225.84,-71.15s228.22,71.16 228.22,71.16l0,-0.01z" fill="#d4aa00" fill-rule="evenodd" id="imagebot_41" stroke="#000000" stroke-linejoin="round" stroke-width="4"/>
   </g>
   <g display="inline" id="svg_2">
    <title>Layer 3</title>
    <path d="m227.65,73.72c-56.99,0 -103.25,46.26 -103.25,103.24c0,10.91 2.23,23.57 6.13,36.91c-5.65,3.94 -9.15,9.07 -9.47,14.81c-0.61,10.57 9.76,20.25 25.03,25c21.52,44.42 55.05,85.07 81.56,85.07c25.65,0 59.1,-40.19 80.88,-84.32c2.89,-0.24 5.85,-0.67 8.84,-1.28c23.34,-4.84 39.96,-20 37.09,-33.81c-1.97,-9.5 -12.64,-15.87 -26.68,-17.38c2,-8.95 3.09,-17.4 3.09,-25c0,-56.99 -46.23,-103.24 -103.22,-103.24z" fill="#000000" fill-opacity="0.31" id="imagebot_39"/>
   </g>
   <g display="inline" id="svg_3">
    <title>Layer 2</title>
    <path d="m226.7,467.45c77.82,-134.77 214.9,-412.86 233.45,-394.3c0,-20.51 -50.03,-71.15 -228.22,-71.15s-225.84,46.4 -225.84,71.15c21.36,-21.36 147.07,258.07 220.61,394.3l0,0z" fill="#ffdd55" fill-rule="evenodd" id="imagebot_40" stroke="#000000" stroke-linejoin="round" stroke-width="4"/>
   </g>
   <g display="none" id="svg_4">
    <title>Layer 4</title>
    <path d="m237.97,76.85c-0.57,-23.37 -73.09,-89.9 -143.28,-30.83c-70.18,59.08 -74.16,29.22 -80.52,30.12c-6.36,0.9 5.41,15.22 23.17,13.92c43.69,-3.2 75.67,-55.61 115.85,-52.7c40.5,2.93 60.2,39.35 60.2,39.35l24.58,0.14l0,0z" fill="#000000" fill-opacity="0.31" fill-rule="evenodd" id="imagebot_38"/>
   </g>
   <g display="none" id="svg_5">
    <title>Layer 5</title>
    <path d="m238.86,61.49c-1.89,-23.29 -78.06,-85.61 -144.79,-22.66c-66.73,62.95 -72.39,33.37 -78.69,34.62c-6.29,1.26 6.27,14.9 23.92,12.6c43.44,-5.67 72.4,-59.81 112.69,-59.18c40.6,0.63 62.32,35.88 62.32,35.88l24.55,-1.26l0,0z" fill="#cccccc" fill-rule="evenodd" id="imagebot_37" stroke="#000000" stroke-width="4"/>
   </g>
   <g display="none" id="svg_6">
    <title>Layer 6</title>
    <path d="m151.92,20.68c-18.05,0.21 -37.59,7.32 -56.28,26.07c-17.21,17.25 -29.88,27.16 -39.34,32.62l0,1.94c34.53,-14.65 60.88,-54.98 95.69,-54.44c40.59,0.63 62.31,35.88 62.31,35.88l9.44,-0.47c-7.29,-16.49 -36.79,-42 -71.82,-41.6z" fill="#000000" fill-opacity="0.31" fill-rule="evenodd" id="imagebot_36"/>
   </g>
   <g display="none" id="svg_7">
    <title>Layer 7</title>
    <path d="m328.88,160.96c0,56.99 -61.81,161.79 -103.24,161.79c-42.58,0 -103.24,-104.8 -103.24,-161.79s46.25,-103.24 103.24,-103.24c56.99,0 103.24,46.25 103.24,103.24z" fill="#cccccc" id="imagebot_35" stroke="#000000" stroke-linecap="round" stroke-width="4"/>
   </g>
   <g display="none" id="svg_8">
    <title>Layer 8</title>
    <path d="m327.5,144.1c0.24,2.92 0.37,5.86 0.37,8.85c0,56.99 -61.79,161.81 -103.22,161.81c-38.84,0 -92.73,-87.18 -101.9,-145.75c5.11,58.25 62.25,153.75 102.9,153.75c41.43,0 103.22,-104.82 103.22,-161.81c0,-5.74 -0.47,-11.36 -1.37,-16.85z" fill="#000000" fill-opacity="0.31" id="imagebot_34"/>
   </g>
   <g display="none" id="svg_9">
    <title>Layer 9</title>
    <path d="m297.4,242.54c24.03,-2.36 42.82,-22.63 42.82,-47.28c0,-26.24 -21.3,-47.53 -47.54,-47.53c-26.23,0 -47.53,21.29 -47.53,47.53c0,1.84 0.11,3.68 0.32,5.47" fill="#cccccc" id="imagebot_33" stroke="#000000" stroke-linecap="round" stroke-width="4"/>
   </g>
   <g display="none" id="svg_10">
    <title>Layer 10</title>
    <path d="m202.59,201.26c0.25,-1.96 0.38,-3.97 0.38,-6c0,-26.24 -21.27,-47.53 -47.5,-47.53c-26.24,0 -47.54,21.29 -47.54,47.53c0,25.26 19.72,45.93 44.6,47.44" fill="#cccccc" id="imagebot_32" stroke="#000000" stroke-linecap="round" stroke-width="4"/>
   </g>
   <g display="none" id="svg_11">
    <title>Layer 11</title>
    <path d="m237.06,301.1c0,6.13 -7.34,13.46 -11.1,13.46c-4.24,0 -11.1,-7.33 -11.1,-13.46s4.97,-5.43 11.1,-5.43c6.12,0 11.1,-0.7 11.1,5.43z" fill="#000000" id="imagebot_31"/>
   </g>
   <g display="none" id="svg_12">
    <title>Layer 12</title>
    <path d="m203.61,260.11c0,5.74 -3.52,10.39 -7.87,10.39s-7.87,-4.65 -7.87,-10.39s3.52,-10.39 7.87,-10.39s7.87,4.65 7.87,10.39z" fill="#000000" id="imagebot_30" stroke="#000000" stroke-linecap="round" stroke-width="2"/>
   </g>
   <g display="none" id="svg_13">
    <title>Layer 13</title>
    <path d="m260.27,260.11c0,5.74 -3.53,10.39 -7.87,10.39c-4.35,0 -7.87,-4.65 -7.87,-10.39s3.52,-10.39 7.87,-10.39c4.34,0 7.87,4.65 7.87,10.39z" fill="#000000" id="imagebot_29" stroke="#000000" stroke-linecap="round" stroke-width="2"/>
   </g>
   <g display="none" id="svg_14">
    <title>Layer 14</title>
    <path d="m198.89,257.69c0,1.97 -0.99,3.57 -2.21,3.57c-1.21,0 -2.2,-1.6 -2.2,-3.57s0.99,-3.56 2.2,-3.56c1.22,0 2.21,1.59 2.21,3.56z" fill="#ffffff" id="imagebot_28"/>
   </g>
   <g display="none" id="svg_15">
    <title>Layer 15</title>
    <path d="m253.97,258.64c0,1.97 -0.98,3.56 -2.2,3.56s-2.21,-1.59 -2.21,-3.56s0.99,-3.57 2.21,-3.57s2.2,1.6 2.2,3.57z" fill="#ffffff" id="imagebot_27"/>
   </g>
   <g display="none" id="svg_16">
    <title>Layer 16</title>
    <path d="m292.81,154.48c-17.83,0.25 -34.36,14.09 -38.63,31.25c8.38,-5.52 18.9,-8.81 30.32,-8.81c22.94,0 42.24,13.27 47.87,31.25c8.97,-23.96 -11.56,-53.87 -37.5,-53.66c-0.69,-0.03 -1.37,-0.04 -2.06,-0.03z" fill="#000000" fill-opacity="0.31" id="imagebot_26"/>
   </g>
   <g display="none" id="imagebot_22" stroke="#000000" stroke-linecap="round" stroke-width="2.86">
    <path d="m340.57,672.76c32.74,-15.11 47.84,-1.26 47.84,-1.26" fill="none" id="imagebot_25" stroke="#000000" stroke-linecap="round" stroke-width="2.86" transform="translate(-0.000236511) matrix(1.3917, 0, 0, 1.4058, -227.51, -650.39)"/>
    <path d="m337.42,678.43c23.93,-15.11 44.7,9.44 44.7,9.44" fill="none" id="imagebot_24" stroke="#000000" stroke-linecap="round" stroke-width="2.86" transform="translate(-0.000236511) matrix(1.3917, 0, 0, 1.4058, -227.51, -650.39)"/>
    <path d="m337.42,681.57c25.18,-12.59 29.59,18.26 29.59,18.26" fill="none" id="imagebot_23" stroke="#000000" stroke-linecap="round" stroke-width="2.86" transform="translate(-0.000236511) matrix(1.3917, 0, 0, 1.4058, -227.51, -650.39)"/>
    <title>imagebot_22</title>
   </g>
   <g display="none" id="imagebot_18" stroke="#000000" stroke-linecap="round" stroke-width="2.86">
    <path d="m340.57,672.76c32.74,-15.11 47.84,-1.26 47.84,-1.26" fill="none" id="imagebot_21" stroke="#000000" stroke-linecap="round" stroke-width="2.86" transform="translate(-0.000236511) matrix(-1.3917, 0, 0, 1.4058, 678.8, -650.39)"/>
    <path d="m337.42,678.43c23.93,-15.11 44.7,9.44 44.7,9.44" fill="none" id="imagebot_20" stroke="#000000" stroke-linecap="round" stroke-width="2.86" transform="translate(-0.000236511) matrix(-1.3917, 0, 0, 1.4058, 678.8, -650.39)"/>
    <path d="m337.42,681.57c25.18,-12.59 29.59,18.26 29.59,18.26" fill="none" id="imagebot_19" stroke="#000000" stroke-linecap="round" stroke-width="2.86" transform="translate(-0.000236511) matrix(-1.3917, 0, 0, 1.4058, 678.8, -650.39)"/>
    <title>imagebot_18</title>
   </g>
   <g display="none" id="svg_17">
    <title>Layer 17</title>
    <path d="m157.29,154.48c17.83,0.25 34.36,14.09 38.63,31.25c-8.38,-5.52 -18.9,-8.81 -30.31,-8.81c-22.94,0 -42.25,13.27 -47.88,31.25c-8.97,-23.96 11.56,-53.87 37.5,-53.66c0.69,-0.03 1.38,-0.04 2.06,-0.03z" fill="#000000" fill-opacity="0.31" id="imagebot_17"/>
   </g>
   <g display="none" id="svg_18">
    <title>Layer 18</title>
    <path d="m88.39,263.48a19.09,38.18 0 1 1 -38.19,0a19.09,38.18 0 1 1 38.19,0z" fill="#000000" fill-opacity="0.31" id="imagebot_16"/>
   </g>
   <g display="none" id="svg_19">
    <title>Layer 19</title>
    <path d="m88.39,263.48a19.09,38.18 0 1 1 -38.19,0a19.09,38.18 0 1 1 38.19,0z" fill="#000000" fill-opacity="0.31" id="imagebot_15"/>
   </g>
   <g display="none" id="svg_20">
    <title>Layer 20</title>
    <path d="m88.39,263.48a19.09,38.18 0 1 1 -38.19,0a19.09,38.18 0 1 1 38.19,0z" fill="#000000" fill-opacity="0.31" id="imagebot_14"/>
   </g>
   <g display="none" id="svg_21">
    <title>Layer 21</title>
    <path d="m88.39,263.48a19.09,38.18 0 1 1 -38.19,0a19.09,38.18 0 1 1 38.19,0z" fill="#000000" fill-opacity="0.31" id="imagebot_13"/>
   </g>
   <g display="none" id="svg_22">
    <title>Layer 22</title>
    <path d="m88.39,263.48a19.09,38.18 0 1 1 -38.19,0a19.09,38.18 0 1 1 38.19,0z" fill="#000000" fill-opacity="0.31" id="imagebot_12"/>
   </g>
   <g display="none" id="svg_23">
    <title>Layer 23</title>
    <path d="m88.39,263.48a19.09,38.18 0 1 1 -38.19,0a19.09,38.18 0 1 1 38.19,0z" fill="#000000" fill-opacity="0.31" id="imagebot_11"/>
   </g>
   <g display="none" id="svg_24">
    <title>Layer 24</title>
    <path d="m88.39,263.48a19.09,38.18 0 1 1 -38.19,0a19.09,38.18 0 1 1 38.19,0z" fill="#000000" fill-opacity="0.31" id="imagebot_10"/>
   </g>
   <g display="inline" id="svg_25">
    <title>Layer 25</title>
    <path d="m226.83,466.42l0,217.78" fill="none" id="imagebot_9" stroke="#000000" stroke-width="4"/>
   </g>
   <g display="inline" id="svg_26">
    <title>Layer 26</title>
    <path d="m120.28,324.72c-0.37,0 -0.73,0.03 -1.09,0.12c-5.86,1.53 -8.59,14.37 -6.1,28.66c2.5,14.29 9.3,24.65 15.16,23.12c1.33,-0.34 2.48,-1.28 3.47,-2.68c-3.71,-3.87 -7.04,-11.35 -8.63,-20.44c-1.93,-11.04 -0.71,-21.18 2.63,-25.94c-1.77,-1.85 -3.63,-2.86 -5.44,-2.84z" fill="#000000" fill-opacity="0.31" id="imagebot_8"/>
   </g>
   <g display="inline" id="svg_27">
    <title>Layer 27</title>
    <path d="m30.77,142.23c-5.87,0.9 -11.31,12.7 -12.62,28.2c-1.45,17.12 2.66,32.3 9.18,33.88c2.32,0.56 4.63,-0.71 6.71,-3.29c-4.59,-4.95 -7.16,-17.73 -5.97,-31.82c0.94,-11.01 3.95,-20.13 7.72,-24.83c-0.99,-1.06 -2.07,-1.78 -3.22,-2.05c-0.61,-0.15 -1.2,-0.19 -1.8,-0.09z" fill="#000000" fill-opacity="0.31" id="imagebot_7"/>
   </g>
   <g display="inline" id="svg_28">
    <title>Layer 28</title>
    <path d="m71.69,247.91c-9.99,0 -18.1,17.78 -18.1,39.68c0,21.91 8.11,39.69 18.1,39.69c2.87,0 5.58,-1.47 8,-4.09c-5.98,-6.48 -10.1,-19.99 -10.1,-35.6c0,-15.6 4.12,-29.08 10.1,-35.56c-2.42,-2.62 -5.13,-4.12 -8,-4.12z" fill="#000000" fill-opacity="0.31" id="imagebot_6"/>
   </g>
   <g display="inline" id="svg_29">
    <title>Layer 29</title>
    <path d="m163.44,440.22c-0.48,0.01 -0.97,0.11 -1.44,0.25c-7.53,2.25 -10.89,20.3 -7.5,40.31s12.25,34.41 19.78,32.16c2.09,-0.63 3.86,-2.47 5.25,-5.22c-4.3,-5.69 -8.07,-15.38 -10.03,-26.94c-2.45,-14.46 -1.38,-27.9 2.25,-35.09c-2.68,-3.54 -5.55,-5.55 -8.31,-5.47z" fill="#000000" fill-opacity="0.31" id="imagebot_5"/>
   </g>
   <g id="svg_30">
    <title>Layer 30</title>
    <path d="m408.59,178.34c-2.62,0.07 -5.39,1.92 -8,5.19c4.68,8.45 5.84,26 2.32,44c-2.44,12.45 -6.6,22.51 -11.16,28.22c1.13,2.04 2.47,3.56 4,4.41c7.85,4.36 17.78,-10.27 22.16,-32.63c4.37,-22.36 1.53,-44.04 -6.32,-48.41c-0.98,-0.54 -1.97,-0.8 -3,-0.78z" fill="#000000" fill-opacity="0.31" id="imagebot_4"/>
   </g>
   <g id="svg_31">
    <title>Layer 31</title>
    <path d="m361.94,315.12c-2.09,0.14 -4.13,1.71 -5.94,4.35c3.15,5.44 4.77,15.37 3.84,26.28c-0.79,9.39 -3.29,17.33 -6.5,21.97c1.38,2.39 3.06,3.92 4.94,4.28c6.17,1.18 12.23,-10.57 13.56,-26.25s-2.58,-29.38 -8.75,-30.56c-0.38,-0.08 -0.77,-0.09 -1.15,-0.07z" fill="#000000" fill-opacity="0.31" id="imagebot_3"/>
   </g>
   <g display="inline" id="svg_32">
    <title>Layer 32</title>
    <path d="m297.94,400.12c-2.35,0.16 -4.68,1.71 -6.82,4.32c5.21,7.28 8.04,22.93 6.63,40.28c-1.23,15.14 -5.38,27.77 -10.53,34.06c1.65,2.31 3.53,3.77 5.59,4.19c8.6,1.72 17.09,-15.42 18.94,-38.25c1.85,-22.84 -3.62,-42.75 -12.22,-44.47c-0.54,-0.11 -1.06,-0.16 -1.59,-0.13z" fill="#000000" fill-opacity="0.31" id="imagebot_2"/>
   </g>
  </g>
 </g>
</svg>