<svg width="80" height="90" viewBox="-8 0 80 90" xmlns="http://www.w3.org/2000/svg" xmlns:svg="http://www.w3.org/2000/svg" version="1.0">
 <metadata>image/svg+xmlOpenclipartFast Food, Lunch-Dinner, Chicken-Bits2007-11-26T20:08:10This Clip Art is part of a fast food menu set. Search for &quot;fastfood&quot; to find all.https://openclipart.org/detail/9172/fast-food-lunch-dinner-chicken-bits-by-gerald_gGerald_Gchickencolouring bookdinnerfastfoodfoodlunchmenu</metadata>
 <g class="layer" display="inline">
  <title>Layer 1</title>
  <g id="g4761" transform="translate(-1 0) translate(-1 0) translate(-1 0) translate(-1 0) translate(-1 0) translate(-1 0) translate(0 -1) translate(0 -1) translate(0 -1) translate(0 -1) translate(0 -1) translate(0 -1) translate(0 -1) translate(0 -1) translate(0 -1) translate(0 -1) translate(0 -1) translate(0 -1) translate(0 -1) translate(0 -1) translate(0 -1) translate(-1 0) translate(-1 0) translate(-1 0) translate(-1 0) translate(-1 0) translate(-1 0) translate(-1 0) translate(-1 0) translate(-1 0) translate(11.4926 22.7627) matrix(0.223894 0 0 0.284962 -14.1693 -37.977)">
   <path d="m141.21,177.52l-44.71,20.42c-2.13,2.23 -3.42,3.96 -3.75,5.32c-0.43,1.34 -0.57,2.99 1.66,2.49c2.2,-0.72 4.25,-2.95 11.99,-6.12c7.84,-3.17 18.97,-7.38 34.34,-12.64c-0.58,0.51 -0.58,0.51 0,0c0.5,-0.57 1.66,-1.62 3.31,-3.27c-2.55,0.68 -4.06,0.54 -4.53,-0.44c-0.54,-1.08 0.07,-2.95 1.69,-5.76z" fill="#f7e42c" fill-rule="evenodd" id="path73" stroke="#000000" stroke-miterlimit="10" stroke-width="0.04"/>
   <path d="m145.24,194.88l-4.1,-4.97l-45.94,17.49l8.64,6.23l41.4,-18.75z" fill="#f7e42c" fill-rule="evenodd" id="path75" stroke="#000000" stroke-miterlimit="10" stroke-width="0.04"/>
   <path d="m136.02,161.36c4.47,-1.48 8.43,-2.38 12.28,-2.3c3.78,0.03 7.2,0 10.26,2.23c2.88,2.12 5.29,5.47 7.24,10.33l-29.63,2.88c2.05,-2.02 3.24,-4.1 3.17,-6.26c-0.11,-2.27 -1.08,-4.43 -3.32,-6.88z" fill="#f7e42c" fill-rule="evenodd" id="path165" stroke="#000000" stroke-miterlimit="10" stroke-width="0.04"/>
   <path d="m95.42,190.66c-1.48,-5.07 -0.04,-12.16 1.98,-17.1c1.87,-5.04 0.29,-7.34 9.54,-12.74c9.32,-5.58 33.44,-16.09 45.68,-19.87c12.06,-3.75 19.55,-4.25 26.35,-2.63c6.63,1.55 10.66,7.96 13.65,11.88c2.81,3.78 3.35,5.15 3.99,11.05c0.69,5.83 2.13,18.61 0.15,24.05c-2.13,5.26 -5.08,4.72 -12.35,8.24c-7.38,3.46 -22.65,10.3 -31.36,12.89c-8.67,2.52 -12.81,2.67 -20.59,2.23c-7.95,-0.54 -20.23,-2.01 -26.42,-5c-6.2,-3.17 -9.22,-7.92 -10.62,-13z" fill-rule="evenodd" id="path169" stroke="#000000" stroke-miterlimit="10" stroke-width="0.04"/>
   <path d="m193.62,158.26c1.26,2.7 2.42,13.94 2.2,18.69c-0.29,4.5 0.18,5.47 -3.89,8.89c-4.17,3.31 -13.46,8.39 -21.06,11.63c-7.77,3.24 -16.31,6.52 -24.91,7.88c-8.78,1.19 -19.04,0.4 -26.5,-0.57c-7.45,-1.12 -13.82,-3.57 -17.46,-5.55c-3.6,-2.01 -3.34,-3.42 -4.1,-6.3c-0.9,-2.98 -1.37,-8.71 -0.83,-11.19c0.54,-2.59 -0.97,-4.65 4.07,-3.78c5,0.86 16.85,7.56 25.81,9c8.82,1.29 19.44,0.93 27,-0.94c7.42,-1.98 11.99,-6.33 17.75,-10.55c5.83,-4.28 12.56,-11.73 16.45,-14.58c3.6,-2.88 4.18,-5.33 5.47,-2.63z" fill="#a87410" fill-rule="evenodd" id="path171" stroke="#000000" stroke-miterlimit="10" stroke-width="0.04"/>
   <path d="m187.18,156.97c2.52,-4.61 0.61,-9.51 -2.23,-12.35c-2.92,-3.02 -7.96,-5.33 -14.73,-5.11c-6.87,0.25 -17.92,3.53 -25.95,6.48c-8.14,2.84 -15.73,6.98 -22.11,10.19c-6.44,3.02 -12.49,5.18 -16.05,7.99c-3.67,2.63 -5.15,6.37 -5.4,8.31c-0.36,1.84 0.07,1.3 3.63,3.1c3.6,1.8 9.62,6.37 17.46,7.74c7.71,1.15 20.45,1.44 28.52,-0.4c7.92,-2.05 12.85,-6.59 19.08,-10.98c6.19,-4.42 15.08,-10.44 17.78,-14.97z" fill="#fdd025" fill-rule="evenodd" id="path173" stroke="#000000" stroke-miterlimit="10" stroke-width="0.04"/>
   <path d="m152.33,161.07l3.49,-0.47l-0.14,-2.41l-1.76,1.73l-1.7,-1.26l0.11,2.41z" fill-rule="evenodd" id="path175" stroke="#000000" stroke-miterlimit="10" stroke-width="0.04"/>
   <path d="m124.4,161.22l2.05,-2.81l-1.84,-1.59l0.04,2.49l-2.09,0.36l1.84,1.55z" fill-rule="evenodd" id="path177" stroke="#000000" stroke-miterlimit="10" stroke-width="0.04"/>
   <path d="m160.79,155.31l2.09,-0.64l-0.58,-0.8l-1.9,-0.43l0.39,1.87z" fill-rule="evenodd" id="path179" stroke="#000000" stroke-miterlimit="10" stroke-width="0.04"/>
   <path d="m151.36,157.62l2.12,-0.65l-0.57,-0.76l-1.91,-0.43l0.36,1.84z" fill-rule="evenodd" id="path181" stroke="#000000" stroke-miterlimit="10" stroke-width="0.04"/>
   <path d="m145.2,163.05l2.13,-0.65l-0.58,-0.75l-1.91,-0.47l0.36,1.87z" fill-rule="evenodd" id="path183" stroke="#000000" stroke-miterlimit="10" stroke-width="0.04"/>
   <path d="m141.46,158.16l2.12,-0.65l-0.57,-0.79l-1.91,-0.44l0.36,1.88z" fill-rule="evenodd" id="path185" stroke="#000000" stroke-miterlimit="10" stroke-width="0.04"/>
   <path d="m135.27,162.76l2.09,-0.64l-0.58,-0.76l-1.87,-0.43l0.36,1.83z" fill-rule="evenodd" id="path187" stroke="#000000" stroke-miterlimit="10" stroke-width="0.04"/>
   <path d="m131.06,159.24l2.08,-0.65l-0.57,-0.79l-1.87,-0.44l0.36,1.88z" fill-rule="evenodd" id="path189" stroke="#000000" stroke-miterlimit="10" stroke-width="0.04"/>
   <path d="m118.67,172.3l2.13,-0.64l-0.58,-0.76l-1.91,-0.43l0.36,1.83z" fill-rule="evenodd" id="path191" stroke="#000000" stroke-miterlimit="10" stroke-width="0.04"/>
   <path d="m114.93,167.41l2.12,-0.65l-0.57,-0.79l-1.91,-0.43l0.36,1.87z" fill-rule="evenodd" id="path193" stroke="#000000" stroke-miterlimit="10" stroke-width="0.04"/>
   <path d="m169.04,169.35l2.05,-2.84l-1.84,-1.55l0,2.45l-2.05,0.36l1.84,1.58z" fill-rule="evenodd" id="path195" stroke="#000000" stroke-miterlimit="10" stroke-width="0.04"/>
   <path d="m155.54,167.7l3.49,-0.47l-0.15,-2.41l-1.8,1.73l-1.65,-1.27l0.11,2.42z" fill-rule="evenodd" id="path197" stroke="#000000" stroke-miterlimit="10" stroke-width="0.04"/>
   <path d="m134.08,170.47l3.49,-0.47l-0.14,-2.41l-1.8,1.73l-1.66,-1.26l0.11,2.41z" fill-rule="evenodd" id="path199" stroke="#000000" stroke-miterlimit="10" stroke-width="0.04"/>
   <path d="m140.67,152.68l2.12,-0.64l-0.57,-0.76l-1.91,-0.43l0.36,1.83z" fill-rule="evenodd" id="path201" stroke="#000000" stroke-miterlimit="10" stroke-width="0.04"/>
   <path d="m153.7,147.86l2.12,-0.65l-0.57,-0.79l-1.91,-0.43l0.36,1.87z" fill-rule="evenodd" id="path203" stroke="#000000" stroke-miterlimit="10" stroke-width="0.04"/>
   <path d="m121.59,165.97l2.12,-0.65l-0.57,-0.76l-1.91,-0.43l0.36,1.84z" fill-rule="evenodd" id="path205" stroke="#000000" stroke-miterlimit="10" stroke-width="0.04"/>
   <path d="m146.21,170.61l2.09,-0.64l-0.58,-0.8l-1.87,-0.43l0.36,1.87z" fill-rule="evenodd" id="path207" stroke="#000000" stroke-miterlimit="10" stroke-width="0.04"/>
   <path d="m168.39,149.66l2.05,-2.84l-1.84,-1.55l0,2.48l-2.05,0.36l1.84,1.55z" fill-rule="evenodd" id="path209" stroke="#000000" stroke-miterlimit="10" stroke-width="0.04"/>
   <path d="m171.63,156.57l2.09,-0.65l-0.58,-0.75l-1.87,-0.43l0.36,1.83z" fill-rule="evenodd" id="path211" stroke="#000000" stroke-miterlimit="10" stroke-width="0.04"/>
   <path d="m163.1,164.74l2.12,-0.64l-0.58,-0.76l-1.9,-0.47l0.36,1.87z" fill-rule="evenodd" id="path213" stroke="#000000" stroke-miterlimit="10" stroke-width="0.04"/>
   <path d="m158.88,161.22l2.13,-0.65l-0.61,-0.79l-1.87,-0.44l0.35,1.88z" fill-rule="evenodd" id="path215" stroke="#000000" stroke-miterlimit="10" stroke-width="0.04"/>
   <path d="m148.73,172.41l2.13,-0.65l-0.58,-0.79l-1.91,-0.43l0.36,1.87z" fill-rule="evenodd" id="path217" stroke="#000000" stroke-miterlimit="10" stroke-width="0.04"/>
   <path d="m139.8,171.26l2.13,-0.65l-0.58,-0.75l-1.9,-0.47l0.35,1.87z" fill-rule="evenodd" id="path219" stroke="#000000" stroke-miterlimit="10" stroke-width="0.04"/>
   <path d="m135.52,179.54l2.2,-0.22l-0.44,-0.86l-1.76,-0.79l0,1.87z" fill-rule="evenodd" id="path221" stroke="#000000" stroke-miterlimit="10" stroke-width="0.04"/>
   <path d="m129.9,171.76l2.13,-0.64l-0.58,-0.76l-1.91,-0.43l0.36,1.83z" fill-rule="evenodd" id="path223" stroke="#000000" stroke-miterlimit="10" stroke-width="0.04"/>
   <path d="m125.8,177.34l2.2,-0.25l-0.4,-0.86l-1.8,-0.79l0,1.9z" fill-rule="evenodd" id="path225" stroke="#000000" stroke-miterlimit="10" stroke-width="0.04"/>
   <path d="m158.78,178.17l2.05,-2.84l-1.84,-1.55l0,2.45l-2.05,0.36l1.84,1.58z" fill-rule="evenodd" id="path227" stroke="#000000" stroke-miterlimit="10" stroke-width="0.04"/>
   <path d="m144.02,181.3l3.45,-0.43l-0.14,-2.41l-1.77,1.69l-1.69,-1.26l0.15,2.41z" fill-rule="evenodd" id="path229" stroke="#000000" stroke-miterlimit="10" stroke-width="0.04"/>
   <path d="m129.11,166.33l2.13,-0.65l-0.58,-0.79l-1.91,-0.43l0.36,1.87z" fill-rule="evenodd" id="path231" stroke="#000000" stroke-miterlimit="10" stroke-width="0.04"/>
   <path d="m142.18,161.47l2.09,-0.65l-0.58,-0.76l-1.9,-0.43l0.39,1.84z" fill-rule="evenodd" id="path233" stroke="#000000" stroke-miterlimit="10" stroke-width="0.04"/>
   <path d="m129.29,183l2.2,-0.22l-0.4,-0.86l-1.8,-0.8l0,1.88z" fill-rule="evenodd" id="path235" stroke="#000000" stroke-miterlimit="10" stroke-width="0.04"/>
   <path d="m137.14,190.09l1.87,1.19l0.22,-0.94l-0.9,-1.73l-1.19,1.48z" fill-rule="evenodd" id="path237" stroke="#000000" stroke-miterlimit="10" stroke-width="0.04"/>
   <path d="m110.54,194.41l-1.8,1.33l0.82,0.54l1.95,-0.25l-0.97,-1.62z" fill-rule="evenodd" id="path239" stroke="#000000" stroke-miterlimit="10" stroke-width="0.04"/>
   <path d="m125.69,187.53l-1.76,1.33l0.83,0.51l1.94,-0.22l-1.01,-1.62z" fill-rule="evenodd" id="path241" stroke="#000000" stroke-miterlimit="10" stroke-width="0.04"/>
   <path d="m129.22,195.31l-1.76,1.33l0.79,0.54l1.94,-0.25l-0.97,-1.62z" fill-rule="evenodd" id="path243" stroke="#000000" stroke-miterlimit="10" stroke-width="0.04"/>
   <path d="m103.7,184.08l1.22,2.88l2.02,-0.69l-1.88,-1.15l0.69,-1.73l-2.05,0.69z" fill-rule="evenodd" id="path245" stroke="#000000" stroke-miterlimit="10" stroke-width="0.04"/>
   <path d="m98.98,193.72l1.37,3.24l2.27,-0.75l-2.13,-1.3l0.79,-1.94l-2.3,0.75z" fill-rule="evenodd" id="path247" stroke="#000000" stroke-miterlimit="10" stroke-width="0.04"/>
   <path d="m114.96,190.48l3.5,-0.25l0,-2.41l-1.88,1.58l-1.58,-1.33l-0.04,2.41z" fill-rule="evenodd" id="path249" stroke="#000000" stroke-miterlimit="10" stroke-width="0.04"/>
   <path d="m129.87,194.34l1.94,-0.11l0,-1.33l-1.04,0.86l-0.9,-0.76l0,1.34z" fill-rule="evenodd" id="path251" stroke="#000000" stroke-miterlimit="10" stroke-width="0.04"/>
   <path d="m131.42,200.82l-1.77,1.33l0.79,0.54l1.95,-0.25l-0.97,-1.62z" fill-rule="evenodd" id="path253" stroke="#000000" stroke-miterlimit="10" stroke-width="0.04"/>
   <path d="m146.43,198.62l-1.77,1.33l0.83,0.54l1.91,-0.25l-0.97,-1.62z" fill-rule="evenodd" id="path255" stroke="#000000" stroke-miterlimit="10" stroke-width="0.04"/>
   <path d="m148.62,190.95l-1.76,1.3l0.83,0.54l1.91,-0.22l-0.98,-1.62z" fill-rule="evenodd" id="path257" stroke="#000000" stroke-miterlimit="10" stroke-width="0.04"/>
   <path d="m156.69,195.56l-1.77,0.79l0.83,0.29l1.91,-0.14l-0.97,-0.94z" fill-rule="evenodd" id="path259" stroke="#000000" stroke-miterlimit="10" stroke-width="0.04"/>
   <path d="m165.51,192.21l-1.8,1.33l0.83,0.54l1.94,-0.25l-0.97,-1.62z" fill-rule="evenodd" id="path261" stroke="#000000" stroke-miterlimit="10" stroke-width="0.04"/>
   <path d="m180.34,178.64l-1.76,1.33l0.79,0.54l1.94,-0.21l-0.97,-1.66z" fill-rule="evenodd" id="path263" stroke="#000000" stroke-miterlimit="10" stroke-width="0.04"/>
   <path d="m188.4,167.84l-1.76,1.33l0.79,0.54l1.95,-0.25l-0.98,-1.62z" fill-rule="evenodd" id="path265" stroke="#000000" stroke-miterlimit="10" stroke-width="0.04"/>
   <path d="m189.88,177.74l-1.8,1.33l0.83,0.54l1.94,-0.25l-0.97,-1.62z" fill-rule="evenodd" id="path267" stroke="#000000" stroke-miterlimit="10" stroke-width="0.04"/>
   <path d="m173.14,181.74l2.05,-2.85l-1.83,-1.55l0.03,2.45l-2.09,0.36l1.84,1.59z" fill-rule="evenodd" id="path269" stroke="#000000" stroke-miterlimit="10" stroke-width="0.04"/>
   <path d="m157.08,186.74l1.05,3.35l2.34,-0.54l-1.98,-1.48l0.97,-1.87l-2.38,0.54z" fill-rule="evenodd" id="path271" stroke="#000000" stroke-miterlimit="10" stroke-width="0.04"/>
   <path d="m178.9,172.63l1.04,3.35l2.34,-0.54l-1.98,-1.48l0.94,-1.87l-2.34,0.54z" fill-rule="evenodd" id="path273" stroke="#000000" stroke-miterlimit="10" stroke-width="0.04"/>
   <path d="m174.15,188l1.01,3.35l2.37,-0.54l-2.01,-1.48l0.97,-1.83l-2.34,0.5z" fill-rule="evenodd" id="path275" stroke="#000000" stroke-miterlimit="10" stroke-width="0.04"/>
   <path d="m115.5,199.02l1.05,3.34l2.34,-0.54l-1.98,-1.47l0.93,-1.87l-2.34,0.54z" fill-rule="evenodd" id="path277" stroke="#000000" stroke-miterlimit="10" stroke-width="0.04"/>
   <path d="m109.89,171.4l2.12,-0.64l-0.57,-0.79l-1.91,-0.44l0.36,1.87z" fill-rule="evenodd" id="path279" stroke="#000000" stroke-miterlimit="10" stroke-width="0.04"/>
   <path d="m177.32,149.59l2.12,-0.65l-0.61,-0.76l-1.87,-0.46l0.36,1.87z" fill-rule="evenodd" id="path281" stroke="#000000" stroke-miterlimit="10" stroke-width="0.04"/>
   <path d="m166.66,210.5c-1.48,-5.11 -0.04,-12.1 1.98,-17.06c1.87,-5.08 0.29,-7.35 9.54,-12.78c9.29,-5.58 33.55,-16.1 45.72,-19.88c11.95,-3.81 19.62,-4.17 26.32,-2.59c6.58,1.55 10.72,7.96 13.68,11.88c2.8,3.78 3.34,5.15 3.99,11.06c0.61,5.83 2.09,18.61 0.11,24.04c-2.09,5.3 -5.04,4.65 -12.31,8.21c-7.38,3.53 -22.65,10.33 -31.36,12.93c-8.67,2.55 -12.81,2.59 -20.59,2.19c-7.96,-0.43 -20.23,-2.09 -26.42,-4.97c-6.27,-3.13 -9.22,-7.99 -10.66,-13.03z" fill-rule="evenodd" id="path283" stroke="#000000" stroke-miterlimit="10" stroke-width="0.04"/>
   <path d="m264.87,178.14c1.26,2.73 2.41,13.86 2.19,18.64c-0.28,4.5 0.18,5.48 -3.88,8.9c-4.18,3.31 -13.47,8.38 -21.06,11.62c-7.78,3.24 -16.31,6.52 -24.92,7.89c-8.67,1.19 -19.11,0.36 -26.46,-0.54c-7.41,-1.12 -13.89,-3.56 -17.49,-5.55c-3.64,-2.01 -3.28,-3.42 -4.07,-6.3c-0.9,-2.98 -1.37,-8.71 -0.83,-11.19c0.54,-2.52 -0.97,-4.72 4.07,-3.82c5,0.87 16.85,7.56 25.81,9c8.82,1.37 19.44,0.94 27,-0.9c7.42,-2.05 11.99,-6.37 17.75,-10.58c5.83,-4.32 12.56,-11.66 16.45,-14.54c3.46,-2.89 4.25,-5.33 5.44,-2.63z" fill="#a87410" fill-rule="evenodd" id="path285" stroke="#000000" stroke-miterlimit="10" stroke-width="0.04"/>
   <path d="m258.42,176.84c2.56,-4.61 0.58,-9.5 -2.19,-12.35c-2.92,-3.02 -7.96,-5.33 -14.73,-5.11c-6.87,0.25 -17.92,3.56 -25.95,6.44c-8.14,2.81 -15.73,7.06 -22.11,10.23c-6.48,3.06 -12.49,5.11 -16.09,7.95c-3.71,2.78 -5.04,6.3 -5.36,8.36c-0.36,1.83 0.07,1.29 3.63,3.09c3.6,1.8 9.62,6.37 17.46,7.74c7.71,1.15 20.45,1.44 28.52,-0.39c7.92,-2.06 12.85,-6.59 19.08,-10.98c6.22,-4.43 15.01,-10.44 17.74,-14.98z" fill="#fdd025" fill-rule="evenodd" id="path287" stroke="#000000" stroke-miterlimit="10" stroke-width="0.04"/>
   <path d="m223.61,180.94l3.49,-0.46l-0.14,-2.42l-1.8,1.73l-1.66,-1.26l0.11,2.41z" fill-rule="evenodd" id="path289" stroke="#000000" stroke-miterlimit="10" stroke-width="0.04"/>
   <path d="m195.68,181.09l2.05,-2.85l-1.84,-1.54l0,2.48l-2.05,0.36l1.84,1.55z" fill-rule="evenodd" id="path291" stroke="#000000" stroke-miterlimit="10" stroke-width="0.04"/>
   <path d="m232.04,175.18l2.12,-0.64l-0.58,-0.8l-1.9,-0.43l0.36,1.87z" fill-rule="evenodd" id="path293" stroke="#000000" stroke-miterlimit="10" stroke-width="0.04"/>
   <path d="m222.64,177.49l2.12,-0.65l-0.57,-0.76l-1.91,-0.46l0.36,1.87z" fill-rule="evenodd" id="path295" stroke="#000000" stroke-miterlimit="10" stroke-width="0.04"/>
   <path d="m216.48,182.92l2.09,-0.64l-0.57,-0.8l-1.88,-0.43l0.36,1.87z" fill-rule="evenodd" id="path297" stroke="#000000" stroke-miterlimit="10" stroke-width="0.04"/>
   <path d="m212.74,178.03l2.09,-0.65l-0.58,-0.79l-1.87,-0.43l0.36,1.87z" fill-rule="evenodd" id="path299" stroke="#000000" stroke-miterlimit="10" stroke-width="0.04"/>
   <path d="m206.51,182.64l2.13,-0.65l-0.58,-0.79l-1.91,-0.44l0.36,1.88z" fill-rule="evenodd" id="path301" stroke="#000000" stroke-miterlimit="10" stroke-width="0.04"/>
   <path d="m202.3,179.11l2.12,-0.65l-0.57,-0.79l-1.91,-0.43l0.36,1.87z" fill-rule="evenodd" id="path303" stroke="#000000" stroke-miterlimit="10" stroke-width="0.04"/>
   <path d="m189.95,192.18l2.13,-0.65l-0.58,-0.79l-1.91,-0.44l0.36,1.88z" fill-rule="evenodd" id="path305" stroke="#000000" stroke-miterlimit="10" stroke-width="0.04"/>
   <path d="m186.21,187.28l2.12,-0.65l-0.57,-0.79l-1.91,-0.43l0.36,1.87z" fill-rule="evenodd" id="path307" stroke="#000000" stroke-miterlimit="10" stroke-width="0.04"/>
   <path d="m240.32,189.19l2.05,-2.81l-1.87,-1.58l0.03,2.48l-2.05,0.36l1.84,1.55z" fill-rule="evenodd" id="path309" stroke="#000000" stroke-miterlimit="10" stroke-width="0.04"/>
   <path d="m226.82,187.53l3.45,-0.43l-0.11,-2.41l-1.8,1.69l-1.65,-1.23l0.11,2.38z" fill-rule="evenodd" id="path311" stroke="#000000" stroke-miterlimit="10" stroke-width="0.04"/>
   <path d="m205.36,190.34l3.46,-0.47l-0.11,-2.41l-1.8,1.73l-1.66,-1.26l0.11,2.41z" fill-rule="evenodd" id="path313" stroke="#000000" stroke-miterlimit="10" stroke-width="0.04"/>
   <path d="m211.95,172.56l2.12,-0.65l-0.57,-0.76l-1.91,-0.47l0.36,1.88z" fill-rule="evenodd" id="path315" stroke="#000000" stroke-miterlimit="10" stroke-width="0.04"/>
   <path d="m224.98,167.7l2.12,-0.65l-0.57,-0.76l-1.91,-0.43l0.36,1.84z" fill-rule="evenodd" id="path317" stroke="#000000" stroke-miterlimit="10" stroke-width="0.04"/>
   <path d="m192.87,185.84l2.09,-0.65l-0.58,-0.75l-1.91,-0.44l0.4,1.84z" fill-rule="evenodd" id="path319" stroke="#000000" stroke-miterlimit="10" stroke-width="0.04"/>
   <path d="m217.46,190.45l2.12,-0.65l-0.58,-0.76l-1.9,-0.43l0.36,1.84z" fill-rule="evenodd" id="path321" stroke="#000000" stroke-miterlimit="10" stroke-width="0.04"/>
   <path d="m239.67,169.53l2.05,-2.84l-1.84,-1.55l0,2.45l-2.05,0.36l1.84,1.58z" fill-rule="evenodd" id="path323" stroke="#000000" stroke-miterlimit="10" stroke-width="0.04"/>
   <path d="m242.87,176.44l2.13,-0.64l-0.58,-0.76l-1.91,-0.43l0.36,1.83z" fill-rule="evenodd" id="path325" stroke="#000000" stroke-miterlimit="10" stroke-width="0.04"/>
   <path d="m234.38,184.62l2.08,-0.65l-0.57,-0.79l-1.91,-0.44l0.4,1.88z" fill-rule="evenodd" id="path327" stroke="#000000" stroke-miterlimit="10" stroke-width="0.04"/>
   <path d="m230.16,181.05l2.09,-0.65l-0.57,-0.75l-1.91,-0.43l0.39,1.83z" fill-rule="evenodd" id="path329" stroke="#000000" stroke-miterlimit="10" stroke-width="0.04"/>
   <path d="m220.01,192.25l2.13,-0.65l-0.58,-0.76l-1.91,-0.43l0.36,1.84z" fill-rule="evenodd" id="path331" stroke="#000000" stroke-miterlimit="10" stroke-width="0.04"/>
   <path d="m211.08,191.13l2.13,-0.65l-0.58,-0.79l-1.91,-0.43l0.36,1.87z" fill-rule="evenodd" id="path333" stroke="#000000" stroke-miterlimit="10" stroke-width="0.04"/>
   <path d="m206.76,199.41l2.24,-0.21l-0.44,-0.9l-1.76,-0.8l-0.04,1.91z" fill-rule="evenodd" id="path335" stroke="#000000" stroke-miterlimit="10" stroke-width="0.04"/>
   <path d="m201.18,191.64l2.13,-0.65l-0.58,-0.76l-1.9,-0.43l0.35,1.84z" fill-rule="evenodd" id="path337" stroke="#000000" stroke-miterlimit="10" stroke-width="0.04"/>
   <path d="m197.08,197.18l2.2,-0.22l-0.44,-0.86l-1.76,-0.79l0,1.87z" fill-rule="evenodd" id="path339" stroke="#000000" stroke-miterlimit="10" stroke-width="0.04"/>
   <path d="m230.06,198.01l2.05,-2.81l-1.87,-1.58l0.03,2.48l-2.09,0.36l1.88,1.55z" fill-rule="evenodd" id="path341" stroke="#000000" stroke-miterlimit="10" stroke-width="0.04"/>
   <path d="m215.26,201.18l3.49,-0.44l-0.14,-2.41l-1.77,1.69l-1.69,-1.26l0.11,2.42z" fill-rule="evenodd" id="path343" stroke="#000000" stroke-miterlimit="10" stroke-width="0.04"/>
   <path d="m200.39,186.2l2.13,-0.65l-0.58,-0.79l-1.91,-0.43l0.36,1.87z" fill-rule="evenodd" id="path345" stroke="#000000" stroke-miterlimit="10" stroke-width="0.04"/>
   <path d="m213.42,181.34l2.13,-0.65l-0.58,-0.75l-1.9,-0.47l0.35,1.87z" fill-rule="evenodd" id="path347" stroke="#000000" stroke-miterlimit="10" stroke-width="0.04"/>
   <path d="m200.57,202.87l2.2,-0.22l-0.43,-0.86l-1.77,-0.79l0,1.87z" fill-rule="evenodd" id="path349" stroke="#000000" stroke-miterlimit="10" stroke-width="0.04"/>
   <path d="m208.42,209.92l1.84,1.23l0.25,-0.94l-0.9,-1.76l-1.19,1.47z" fill-rule="evenodd" id="path351" stroke="#000000" stroke-miterlimit="10" stroke-width="0.04"/>
   <path d="m181.78,214.28l-1.76,1.33l0.82,0.54l1.91,-0.25l-0.97,-1.62z" fill-rule="evenodd" id="path353" stroke="#000000" stroke-miterlimit="10" stroke-width="0.04"/>
   <path d="m196.97,207.37l-1.76,1.33l0.83,0.54l1.9,-0.22l-0.97,-1.65z" fill-rule="evenodd" id="path355" stroke="#000000" stroke-miterlimit="10" stroke-width="0.04"/>
   <path d="m200.46,215.18l-1.76,1.33l0.83,0.54l1.94,-0.25l-1.01,-1.62z" fill-rule="evenodd" id="path357" stroke="#000000" stroke-miterlimit="10" stroke-width="0.04"/>
   <path d="m174.98,203.95l1.18,2.84l2.06,-0.68l-1.88,-1.12l0.69,-1.73l-2.05,0.69z" fill-rule="evenodd" id="path359" stroke="#000000" stroke-miterlimit="10" stroke-width="0.04"/>
   <path d="m170.26,213.6l1.37,3.2l2.27,-0.76l-2.13,-1.26l0.8,-1.94l-2.31,0.76z" fill-rule="evenodd" id="path361" stroke="#000000" stroke-miterlimit="10" stroke-width="0.04"/>
   <path d="m186.24,210.32l3.5,-0.22l0,-2.41l-1.88,1.59l-1.62,-1.37l0,2.41z" fill-rule="evenodd" id="path363" stroke="#000000" stroke-miterlimit="10" stroke-width="0.04"/>
   <path d="m201.15,214.21l1.91,-0.15l0.03,-1.33l-1.04,0.9l-0.9,-0.75l0,1.33z" fill-rule="evenodd" id="path365" stroke="#000000" stroke-miterlimit="10" stroke-width="0.04"/>
   <path d="m202.7,220.69l-1.77,1.33l0.79,0.54l1.95,-0.25l-0.97,-1.62z" fill-rule="evenodd" id="path367" stroke="#000000" stroke-miterlimit="10" stroke-width="0.04"/>
   <path d="m217.71,218.49l-1.77,1.33l0.8,0.54l1.94,-0.25l-0.97,-1.62z" fill-rule="evenodd" id="path369" stroke="#000000" stroke-miterlimit="10" stroke-width="0.04"/>
   <path d="m219.9,210.79l-1.76,1.33l0.79,0.54l1.95,-0.25l-0.98,-1.62z" fill-rule="evenodd" id="path371" stroke="#000000" stroke-miterlimit="10" stroke-width="0.04"/>
   <path d="m227.97,215.43l-1.77,0.76l0.8,0.32l1.94,-0.14l-0.97,-0.94z" fill-rule="evenodd" id="path373" stroke="#000000" stroke-miterlimit="10" stroke-width="0.04"/>
   <path d="m236.75,212.08l-1.76,1.34l0.83,0.5l1.9,-0.22l-0.97,-1.62z" fill-rule="evenodd" id="path375" stroke="#000000" stroke-miterlimit="10" stroke-width="0.04"/>
   <path d="m251.62,198.51l-1.8,1.33l0.83,0.54l1.94,-0.25l-0.97,-1.62z" fill-rule="evenodd" id="path377" stroke="#000000" stroke-miterlimit="10" stroke-width="0.04"/>
   <path d="m259.68,187.71l-1.8,1.33l0.83,0.54l1.95,-0.25l-0.98,-1.62z" fill-rule="evenodd" id="path379" stroke="#000000" stroke-miterlimit="10" stroke-width="0.04"/>
   <path d="m261.12,197.61l-1.76,1.33l0.83,0.51l1.91,-0.22l-0.98,-1.62z" fill-rule="evenodd" id="path381" stroke="#000000" stroke-miterlimit="10" stroke-width="0.04"/>
   <path d="m244.42,201.57l2.05,-2.81l-1.83,-1.58l0,2.48l-2.06,0.36l1.84,1.55z" fill-rule="evenodd" id="path383" stroke="#000000" stroke-miterlimit="10" stroke-width="0.04"/>
   <path d="m228.36,206.58l1.05,3.34l2.34,-0.5l-1.98,-1.51l0.94,-1.84l-2.35,0.51z" fill-rule="evenodd" id="path385" stroke="#000000" stroke-miterlimit="10" stroke-width="0.04"/>
   <path d="m250.18,192.5l1.01,3.31l2.38,-0.5l-1.98,-1.48l0.93,-1.87l-2.34,0.54z" fill-rule="evenodd" id="path387" stroke="#000000" stroke-miterlimit="10" stroke-width="0.04"/>
   <path d="m245.39,207.87l1.05,3.35l2.34,-0.54l-1.98,-1.48l0.97,-1.87l-2.38,0.54z" fill-rule="evenodd" id="path389" stroke="#000000" stroke-miterlimit="10" stroke-width="0.04"/>
   <path d="m186.78,218.85l1.01,3.35l2.38,-0.54l-1.98,-1.48l0.94,-1.83l-2.35,0.5z" fill-rule="evenodd" id="path391" stroke="#000000" stroke-miterlimit="10" stroke-width="0.04"/>
   <path d="m181.17,191.24l2.09,-0.65l-0.58,-0.75l-1.91,-0.44l0.4,1.84z" fill-rule="evenodd" id="path393" stroke="#000000" stroke-miterlimit="10" stroke-width="0.04"/>
   <path d="m248.6,169.46l2.08,-0.65l-0.57,-0.79l-1.91,-0.43l0.4,1.87z" fill-rule="evenodd" id="path395" stroke="#000000" stroke-miterlimit="10" stroke-width="0.04"/>
   <path d="m218.07,236.2c-1.48,-5.11 -0.04,-12.09 1.98,-17.06c1.87,-5.08 0.29,-7.34 9.54,-12.78c9.29,-5.58 33.55,-16.09 45.72,-19.87c11.95,-3.82 19.62,-4.18 26.31,-2.59c6.59,1.54 10.73,7.95 13.68,11.88c2.81,3.78 3.35,5.14 4,11.05c0.61,5.83 2.09,18.61 0.11,24.05c-2.09,5.29 -5.04,4.64 -12.32,8.21c-7.38,3.52 -22.64,10.33 -31.35,12.92c-8.68,2.56 -12.82,2.59 -20.59,2.2c-7.96,-0.44 -20.23,-2.09 -26.43,-4.97c-6.26,-3.14 -9.21,-8 -10.65,-13.04z" fill-rule="evenodd" id="path397" stroke="#000000" stroke-miterlimit="10" stroke-width="0.04"/>
   <path d="m316.28,203.84c1.26,2.74 2.41,13.86 2.19,18.65c-0.29,4.5 0.18,5.47 -3.89,8.89c-4.17,3.42 -13.46,8.28 -21.06,11.66c-7.77,3.24 -16.31,6.56 -24.91,7.85c-8.68,1.19 -19.11,0.36 -26.46,-0.54c-7.41,-1.11 -13.89,-3.56 -17.49,-5.54c-3.64,-2.02 -3.28,-3.42 -4.07,-6.3c-0.9,-2.99 -1.37,-8.71 -0.83,-11.2c0.54,-2.52 -0.97,-4.71 4.07,-3.81c5,0.86 16.85,7.56 25.81,9c8.82,1.36 19.44,0.93 27,-0.9c7.42,-2.05 11.99,-6.37 17.75,-10.59c5.83,-4.32 12.56,-11.66 16.45,-14.54c3.46,-2.88 4.25,-5.33 5.44,-2.63z" fill="#a87410" fill-rule="evenodd" id="path399" stroke="#000000" stroke-miterlimit="10" stroke-width="0.04"/>
   <path d="m309.87,202.54c2.52,-4.6 0.61,-9.5 -2.23,-12.34c-2.92,-3.03 -7.96,-5.33 -14.73,-5.12c-6.87,0.26 -17.93,3.57 -25.95,6.45c-8.14,2.81 -15.74,7.05 -22.11,10.22c-6.48,3.06 -12.49,5.11 -16.09,7.96c-3.71,2.77 -5.04,6.3 -5.36,8.35c-0.36,1.84 0.07,1.3 3.63,3.1c3.6,1.8 9.61,6.37 17.46,7.74c7.71,1.15 20.45,1.44 28.52,-0.4c7.92,-2.05 12.85,-6.59 19.08,-10.98c6.19,-4.43 15.08,-10.44 17.78,-14.98z" fill="#fdd025" fill-rule="evenodd" id="path401" stroke="#000000" stroke-miterlimit="10" stroke-width="0.04"/>
   <path d="m275.02,206.65l3.49,-0.47l-0.14,-2.41l-1.8,1.73l-1.66,-1.26l0.11,2.41z" fill-rule="evenodd" id="path403" stroke="#000000" stroke-miterlimit="10" stroke-width="0.04"/>
   <path d="m247.08,206.79l2.06,-2.84l-1.84,-1.55l0,2.48l-2.05,0.36l1.83,1.55z" fill-rule="evenodd" id="path405" stroke="#000000" stroke-miterlimit="10" stroke-width="0.04"/>
   <path d="m283.44,200.89l2.13,-0.65l-0.58,-0.79l-1.91,-0.43l0.36,1.87z" fill-rule="evenodd" id="path407" stroke="#000000" stroke-miterlimit="10" stroke-width="0.04"/>
   <path d="m274.05,203.19l2.12,-0.64l-0.57,-0.76l-1.91,-0.43l0.36,1.83z" fill-rule="evenodd" id="path409" stroke="#000000" stroke-miterlimit="10" stroke-width="0.04"/>
   <path d="m267.89,208.63l2.13,-0.65l-0.61,-0.79l-1.88,-0.43l0.36,1.87z" fill-rule="evenodd" id="path411" stroke="#000000" stroke-miterlimit="10" stroke-width="0.04"/>
   <path d="m264.15,203.73l2.09,-0.64l-0.58,-0.8l-1.87,-0.43l0.36,1.87z" fill-rule="evenodd" id="path413" stroke="#000000" stroke-miterlimit="10" stroke-width="0.04"/>
   <path d="m257.92,208.34l2.12,-0.65l-0.57,-0.79l-1.91,-0.43l0.36,1.87z" fill-rule="evenodd" id="path415" stroke="#000000" stroke-miterlimit="10" stroke-width="0.04"/>
   <path d="m253.71,204.81l2.12,-0.64l-0.57,-0.8l-1.91,-0.43l0.36,1.87z" fill-rule="evenodd" id="path417" stroke="#000000" stroke-miterlimit="10" stroke-width="0.04"/>
   <path d="m241.36,217.88l2.12,-0.65l-0.57,-0.79l-1.91,-0.43l0.36,1.87z" fill-rule="evenodd" id="path419" stroke="#000000" stroke-miterlimit="10" stroke-width="0.04"/>
   <path d="m237.62,212.98l2.12,-0.64l-0.58,-0.79l-1.9,-0.44l0.36,1.87z" fill-rule="evenodd" id="path421" stroke="#000000" stroke-miterlimit="10" stroke-width="0.04"/>
   <path d="m291.72,214.93l2.06,-2.85l-1.87,-1.58l0.03,2.48l-2.05,0.36l1.83,1.59z" fill-rule="evenodd" id="path423" stroke="#000000" stroke-miterlimit="10" stroke-width="0.04"/>
   <path d="m278.22,213.27l3.5,-0.47l-0.15,-2.41l-1.8,1.69l-1.65,-1.22l0.1,2.41z" fill-rule="evenodd" id="path425" stroke="#000000" stroke-miterlimit="10" stroke-width="0.04"/>
   <path d="m256.77,216.04l3.45,-0.46l-0.1,-2.42l-1.8,1.73l-1.66,-1.26l0.11,2.41z" fill-rule="evenodd" id="path427" stroke="#000000" stroke-miterlimit="10" stroke-width="0.04"/>
   <path d="m263.36,198.26l2.12,-0.65l-0.58,-0.75l-1.9,-0.44l0.36,1.84z" fill-rule="evenodd" id="path429" stroke="#000000" stroke-miterlimit="10" stroke-width="0.04"/>
   <path d="m276.39,193.4l2.12,-0.65l-0.57,-0.75l-1.91,-0.44l0.36,1.84z" fill-rule="evenodd" id="path431" stroke="#000000" stroke-miterlimit="10" stroke-width="0.04"/>
   <path d="m244.28,211.54l2.08,-0.64l-0.57,-0.76l-1.87,-0.43l0.36,1.83z" fill-rule="evenodd" id="path433" stroke="#000000" stroke-miterlimit="10" stroke-width="0.04"/>
   <path d="m268.86,216.15l2.13,-0.64l-0.58,-0.76l-1.91,-0.43l0.36,1.83z" fill-rule="evenodd" id="path435" stroke="#000000" stroke-miterlimit="10" stroke-width="0.04"/>
   <path d="m291.08,195.24l2.05,-2.85l-1.84,-1.55l0,2.45l-2.05,0.36l1.84,1.59z" fill-rule="evenodd" id="path437" stroke="#000000" stroke-miterlimit="10" stroke-width="0.04"/>
   <path d="m294.32,202.15l2.08,-0.65l-0.57,-0.76l-1.91,-0.43l0.4,1.84z" fill-rule="evenodd" id="path439" stroke="#000000" stroke-miterlimit="10" stroke-width="0.04"/>
   <path d="m285.78,210.32l2.09,-0.65l-0.57,-0.79l-1.88,-0.43l0.36,1.87z" fill-rule="evenodd" id="path441" stroke="#000000" stroke-miterlimit="10" stroke-width="0.04"/>
   <path d="m281.57,206.76l2.09,-0.65l-0.58,-0.76l-1.87,-0.43l0.36,1.84z" fill-rule="evenodd" id="path443" stroke="#000000" stroke-miterlimit="10" stroke-width="0.04"/>
   <path d="m271.42,217.99l2.12,-0.65l-0.57,-0.79l-1.91,-0.43l0.36,1.87z" fill-rule="evenodd" id="path445" stroke="#000000" stroke-miterlimit="10" stroke-width="0.04"/>
   <path d="m262.49,216.84l2.13,-0.65l-0.58,-0.79l-1.91,-0.44l0.36,1.88z" fill-rule="evenodd" id="path447" stroke="#000000" stroke-miterlimit="10" stroke-width="0.04"/>
   <path d="m258.21,225.12l2.19,-0.22l-0.43,-0.9l-1.76,-0.79l0,1.91z" fill-rule="evenodd" id="path449" stroke="#000000" stroke-miterlimit="10" stroke-width="0.04"/>
   <path d="m252.59,217.34l2.13,-0.65l-0.58,-0.75l-1.91,-0.44l0.36,1.84z" fill-rule="evenodd" id="path451" stroke="#000000" stroke-miterlimit="10" stroke-width="0.04"/>
   <path d="m248.49,222.88l2.19,-0.21l-0.39,-0.87l-1.8,-0.79l0,1.87z" fill-rule="evenodd" id="path453" stroke="#000000" stroke-miterlimit="10" stroke-width="0.04"/>
   <path d="m281.46,223.71l2.06,-2.81l-1.88,-1.58l0.04,2.48l-2.05,0.36l1.83,1.55z" fill-rule="evenodd" id="path455" stroke="#000000" stroke-miterlimit="10" stroke-width="0.04"/>
   <path d="m266.7,226.88l3.46,-0.43l-0.14,-2.41l-1.77,1.69l-1.69,-1.26l0.14,2.41z" fill-rule="evenodd" id="path457" stroke="#000000" stroke-miterlimit="10" stroke-width="0.04"/>
   <path d="m251.8,211.9l2.12,-0.64l-0.57,-0.79l-1.91,-0.44l0.36,1.87z" fill-rule="evenodd" id="path459" stroke="#000000" stroke-miterlimit="10" stroke-width="0.04"/>
   <path d="m264.83,207.04l2.13,-0.64l-0.58,-0.76l-1.91,-0.47l0.36,1.87z" fill-rule="evenodd" id="path461" stroke="#000000" stroke-miterlimit="10" stroke-width="0.04"/>
   <path d="m251.98,228.57l2.2,-0.21l-0.4,-0.87l-1.8,-0.79l0,1.87z" fill-rule="evenodd" id="path463" stroke="#000000" stroke-miterlimit="10" stroke-width="0.04"/>
   <path d="m259.83,235.63l1.87,1.22l0.22,-0.93l-0.9,-1.73l-1.19,1.44z" fill-rule="evenodd" id="path465" stroke="#000000" stroke-miterlimit="10" stroke-width="0.04"/>
   <path d="m233.19,239.98l-1.77,1.34l0.83,0.54l1.91,-0.26l-0.97,-1.62z" fill-rule="evenodd" id="path467" stroke="#000000" stroke-miterlimit="10" stroke-width="0.04"/>
   <path d="m248.38,233.11l-1.76,1.29l0.82,0.54l1.91,-0.21l-0.97,-1.62z" fill-rule="evenodd" id="path469" stroke="#000000" stroke-miterlimit="10" stroke-width="0.04"/>
   <path d="m251.91,240.88l-1.8,1.34l0.83,0.54l1.94,-0.26l-0.97,-1.62z" fill-rule="evenodd" id="path471" stroke="#000000" stroke-miterlimit="10" stroke-width="0.04"/>
   <path d="m226.38,229.65l1.19,2.85l2.05,-0.65l-1.87,-1.15l0.69,-1.73l-2.06,0.68z" fill-rule="evenodd" id="path473" stroke="#000000" stroke-miterlimit="10" stroke-width="0.04"/>
   <path d="m221.67,239.3l1.37,3.2l2.26,-0.75l-2.12,-1.26l0.79,-1.95l-2.3,0.76z" fill-rule="evenodd" id="path475" stroke="#000000" stroke-miterlimit="10" stroke-width="0.04"/>
   <path d="m237.65,236.02l3.49,-0.21l0,-2.41l-1.87,1.58l-1.62,-1.37l0,2.41z" fill-rule="evenodd" id="path477" stroke="#000000" stroke-miterlimit="10" stroke-width="0.04"/>
   <path d="m252.56,239.91l1.94,-0.11l0,-1.36l-1.04,0.9l-0.9,-0.76l0,1.33z" fill-rule="evenodd" id="path479" stroke="#000000" stroke-miterlimit="10" stroke-width="0.04"/>
   <path d="m254.1,246.39l-1.76,1.33l0.79,0.54l1.95,-0.25l-0.98,-1.62z" fill-rule="evenodd" id="path481" stroke="#000000" stroke-miterlimit="10" stroke-width="0.04"/>
   <path d="m269.12,244.2l-1.77,1.33l0.79,0.54l1.95,-0.25l-0.97,-1.62z" fill-rule="evenodd" id="path483" stroke="#000000" stroke-miterlimit="10" stroke-width="0.04"/>
   <path d="m271.31,236.49l-1.76,1.33l0.79,0.54l1.94,-0.25l-0.97,-1.62z" fill-rule="evenodd" id="path485" stroke="#000000" stroke-miterlimit="10" stroke-width="0.04"/>
   <path d="m279.38,241.14l-1.77,0.75l0.79,0.33l1.95,-0.15l-0.97,-0.93z" fill-rule="evenodd" id="path487" stroke="#000000" stroke-miterlimit="10" stroke-width="0.04"/>
   <path d="m288.16,237.79l-1.76,1.33l0.82,0.54l1.91,-0.25l-0.97,-1.62z" fill-rule="evenodd" id="path489" stroke="#000000" stroke-miterlimit="10" stroke-width="0.04"/>
   <path d="m303.03,224.22l-1.77,1.33l0.8,0.54l1.94,-0.25l-0.97,-1.62z" fill-rule="evenodd" id="path491" stroke="#000000" stroke-miterlimit="10" stroke-width="0.04"/>
   <path d="m311.09,213.42l-1.76,1.33l0.79,0.54l1.94,-0.25l-0.97,-1.62z" fill-rule="evenodd" id="path493" stroke="#000000" stroke-miterlimit="10" stroke-width="0.04"/>
   <path d="m312.53,223.32l-1.76,1.33l0.83,0.5l1.9,-0.21l-0.97,-1.62z" fill-rule="evenodd" id="path495" stroke="#000000" stroke-miterlimit="10" stroke-width="0.04"/>
   <path d="m295.83,227.28l2.05,-2.81l-1.84,-1.59l0,2.49l-2.05,0.36l1.84,1.55z" fill-rule="evenodd" id="path497" stroke="#000000" stroke-miterlimit="10" stroke-width="0.04"/>
   <path d="m279.77,232.32l1.05,3.31l2.34,-0.5l-1.98,-1.48l0.93,-1.87l-2.34,0.54z" fill-rule="evenodd" id="path499" stroke="#000000" stroke-miterlimit="10" stroke-width="0.04"/>
   <path d="m301.59,218.2l1.01,3.32l2.37,-0.51l-1.98,-1.47l0.94,-1.88l-2.34,0.54z" fill-rule="evenodd" id="path501" stroke="#000000" stroke-miterlimit="10" stroke-width="0.04"/>
   <path d="m296.8,233.58l1.04,3.34l2.34,-0.54l-1.97,-1.47l0.97,-1.87l-2.38,0.54z" fill-rule="evenodd" id="path503" stroke="#000000" stroke-miterlimit="10" stroke-width="0.04"/>
   <path d="m238.19,244.56l1.01,3.34l2.38,-0.5l-1.98,-1.48l0.93,-1.87l-2.34,0.51z" fill-rule="evenodd" id="path505" stroke="#000000" stroke-miterlimit="10" stroke-width="0.04"/>
   <path d="m232.58,216.98l2.08,-0.65l-0.57,-0.79l-1.87,-0.43l0.36,1.87z" fill-rule="evenodd" id="path507" stroke="#000000" stroke-miterlimit="10" stroke-width="0.04"/>
   <path d="m300,195.16l2.09,-0.64l-0.57,-0.8l-1.88,-0.43l0.36,1.87z" fill-rule="evenodd" id="path509" stroke="#000000" stroke-miterlimit="10" stroke-width="0.04"/>
   <path d="m148.88,269.54c-3.86,-4.86 -4.58,-11.3 -6.45,-16.27c-2.09,-5.04 -4.89,-8.75 -5.11,-13.75c-0.22,-5.15 -0.32,-11.34 4.25,-16.49c4.64,-5.26 14.4,-11.45 22.86,-14.4c8.21,-2.95 16.02,-4.61 26.64,-3.17c10.62,1.4 28.84,6.7 36.47,11.45c7.38,4.72 6.01,11.48 8.1,16.27c1.98,4.57 4.21,7.96 3.92,11.56c-0.43,3.52 -2.81,5.54 -6.3,9.54c-3.67,3.96 -6.59,9.46 -14.97,14c-8.5,4.46 -26.14,10.12 -35.03,12.53c-9,2.27 -12.28,2.81 -18.04,1.08c-5.83,-1.91 -12.53,-7.6 -16.34,-12.35z" fill-rule="evenodd" id="path511" stroke="#000000" stroke-miterlimit="10" stroke-width="0.04"/>
   <path d="m139.48,242.36c-1.26,-3.89 -0.97,-7.6 -0.68,-10.15c0.28,-2.59 1.04,-5.69 2.41,-5c1.26,0.68 2.73,4.85 5.25,9.03c2.52,4.03 6.27,11.48 9.44,15.41c2.91,3.74 7.3,4.93 8.46,7.74c1.08,2.84 -2.24,6.01 -1.77,9.11c0.36,2.91 3.28,6.44 4.03,8.49c0.72,1.98 1.52,3.39 0.29,3.24c-1.37,-0.32 -5.65,-2.66 -8.28,-4.79c-2.7,-2.12 -5.51,-4.82 -7.59,-8.1c-2.24,-3.6 -3.28,-8.1 -5.22,-12.38c-2.02,-4.21 -5.15,-8.78 -6.34,-12.6z" fill="#a87410" fill-rule="evenodd" id="path513" stroke="#000000" stroke-miterlimit="10" stroke-width="0.04"/>
   <path d="m232.76,230.95c-1.8,-0.76 -2.63,3.49 -7.64,7.05c-5.14,3.53 -14.18,10.48 -22.68,14.04c-8.6,3.32 -22.17,4.94 -28.22,6.81c-6.08,1.87 -6.52,2.77 -7.96,4.5c-1.62,1.62 -1.87,2.59 -0.9,5.4c1.08,2.84 3.39,9.47 7.06,10.98c3.46,1.26 8.53,-1.44 13.97,-2.85c5.4,-1.4 12.02,-2.81 18.32,-5.58c6.3,-2.98 13.86,-7.52 18.94,-11.52c4.86,-4.06 8.53,-9.32 10.62,-12.27c2.02,-2.99 1.8,-2.59 1.58,-5.33c-0.36,-2.92 -1.26,-10.55 -3.09,-11.23z" fill="#a87410" fill-rule="evenodd" id="path515" stroke="#000000" stroke-miterlimit="10" stroke-width="0.04"/>
   <path d="m229.48,223.53c-1.55,-2.7 -4.64,-7.05 -10.4,-9.32c-5.94,-2.34 -17.1,-3.85 -24.74,-4.68c-7.74,-1.05 -14.29,-2.34 -20.91,-1.12c-6.63,1.05 -14.01,5.4 -18.69,8.07c-4.78,2.59 -9.39,4.32 -9.93,7.95c-0.65,3.64 3.6,9.47 6.23,14.01c2.59,4.5 6.37,9.43 9,12.56c2.34,2.99 2.34,4.9 5.83,5.44c3.56,0.46 9.25,-1.66 15.12,-2.63c5.9,-1.08 12.78,-1.19 19.37,-3.64c6.37,-2.59 13.89,-8.06 18.68,-11.41c4.54,-3.38 7.6,-6.3 9.32,-8.75c1.77,-2.55 2.56,-3.92 1.12,-6.48z" fill="#f2c01a" fill-rule="evenodd" id="path517" stroke="#000000" stroke-miterlimit="10" stroke-width="0.04"/>
   <path d="m226.31,244.88l2.2,0l-0.33,-0.9l-1.69,-0.97l-0.18,1.87z" fill-rule="evenodd" id="path519" stroke="#000000" stroke-miterlimit="10" stroke-width="0.04"/>
   <path d="m196.4,226.92l3.45,0.61l0.61,-2.34l-2.23,1.08l-1.22,-1.69l-0.61,2.34z" fill-rule="evenodd" id="path521" stroke="#000000" stroke-miterlimit="10" stroke-width="0.04"/>
   <path d="m169.72,218.71l2.77,-2.09l-1.26,-2.05l-0.75,2.37l-2.06,-0.28l1.3,2.05z" fill-rule="evenodd" id="path523" stroke="#000000" stroke-miterlimit="10" stroke-width="0.04"/>
   <path d="m206.19,223.93l2.19,0l-0.32,-0.9l-1.69,-0.97l-0.18,1.87z" fill-rule="evenodd" id="path525" stroke="#000000" stroke-miterlimit="10" stroke-width="0.04"/>
   <path d="m196.5,223.32l2.2,0.03l-0.32,-0.9l-1.66,-1.01l-0.22,1.88z" fill-rule="evenodd" id="path527" stroke="#000000" stroke-miterlimit="10" stroke-width="0.04"/>
   <path d="m188.98,226.66l2.23,0l-0.32,-0.9l-1.69,-0.97l-0.22,1.87z" fill-rule="evenodd" id="path529" stroke="#000000" stroke-miterlimit="10" stroke-width="0.04"/>
   <path d="m186.89,220.87l2.2,0l-0.33,-0.9l-1.65,-0.97l-0.22,1.87z" fill-rule="evenodd" id="path531" stroke="#000000" stroke-miterlimit="10" stroke-width="0.04"/>
   <path d="m179.58,223.42l2.24,0l-0.33,-0.9l-1.69,-0.97l-0.22,1.87z" fill-rule="evenodd" id="path533" stroke="#000000" stroke-miterlimit="10" stroke-width="0.04"/>
   <path d="m176.63,218.78l2.2,0l-0.33,-0.9l-1.65,-0.97l-0.22,1.87z" fill-rule="evenodd" id="path535" stroke="#000000" stroke-miterlimit="10" stroke-width="0.04"/>
   <path d="m160.9,227.56l2.23,0l-0.32,-0.89l-1.69,-0.98l-0.22,1.87z" fill-rule="evenodd" id="path537" stroke="#000000" stroke-miterlimit="10" stroke-width="0.04"/>
   <path d="m158.81,221.77l2.2,0l-0.33,-0.9l-1.65,-0.97l-0.22,1.87z" fill-rule="evenodd" id="path539" stroke="#000000" stroke-miterlimit="10" stroke-width="0.04"/>
   <path d="m151.5,224.32l2.2,0l-0.29,-0.9l-1.69,-0.97l-0.22,1.87z" fill-rule="evenodd" id="path541" stroke="#000000" stroke-miterlimit="10" stroke-width="0.04"/>
   <path d="m209.86,239.8l2.81,-2.08l-1.3,-2.06l-0.72,2.38l-2.09,-0.29l1.3,2.05z" fill-rule="evenodd" id="path543" stroke="#000000" stroke-miterlimit="10" stroke-width="0.04"/>
   <path d="m197.48,234.19l3.45,0.61l0.61,-2.34l-2.23,1.08l-1.22,-1.69l-0.61,2.34z" fill-rule="evenodd" id="path545" stroke="#000000" stroke-miterlimit="10" stroke-width="0.04"/>
   <path d="m176.16,230.41l3.46,0.61l0.61,-2.34l-2.23,1.08l-1.22,-1.69l-0.62,2.34z" fill-rule="evenodd" id="path547" stroke="#000000" stroke-miterlimit="10" stroke-width="0.04"/>
   <path d="m187.76,215.43l2.23,0l-0.33,-0.9l-1.69,-0.97l-0.21,1.87z" fill-rule="evenodd" id="path549" stroke="#000000" stroke-miterlimit="10" stroke-width="0.04"/>
   <path d="m201.65,214.71l2.23,0l-0.32,-0.9l-1.69,-1.01l-0.22,1.91z" fill-rule="evenodd" id="path551" stroke="#000000" stroke-miterlimit="10" stroke-width="0.04"/>
   <path d="m165.58,222.38l2.2,0.04l-0.33,-0.9l-1.65,-1.01l-0.22,1.87z" fill-rule="evenodd" id="path553" stroke="#000000" stroke-miterlimit="10" stroke-width="0.04"/>
   <path d="m187.68,234.15l2.24,0.04l-0.33,-0.94l-1.69,-0.97l-0.22,1.87z" fill-rule="evenodd" id="path555" stroke="#000000" stroke-miterlimit="10" stroke-width="0.04"/>
   <path d="m215.12,220.8l2.8,-2.09l-1.29,-2.02l-0.72,2.34l-2.05,-0.25l1.26,2.02z" fill-rule="evenodd" id="path557" stroke="#000000" stroke-miterlimit="10" stroke-width="0.04"/>
   <path d="m216.12,228.39l2.24,0l-0.33,-0.9l-1.69,-0.97l-0.22,1.87z" fill-rule="evenodd" id="path559" stroke="#000000" stroke-miterlimit="10" stroke-width="0.04"/>
   <path d="m205.58,233.61l2.19,0.04l-0.32,-0.94l-1.69,-0.97l-0.18,1.87z" fill-rule="evenodd" id="path561" stroke="#000000" stroke-miterlimit="10" stroke-width="0.04"/>
   <path d="m202.59,229l2.23,0l-0.32,-0.9l-1.7,-1l-0.21,1.9z" fill-rule="evenodd" id="path563" stroke="#000000" stroke-miterlimit="10" stroke-width="0.04"/>
   <path d="m168.6,252.15l3.46,0.58l0.58,-2.34l-2.2,1.11l-1.22,-1.69l-0.62,2.34z" fill-rule="evenodd" id="path565" stroke="#000000" stroke-miterlimit="10" stroke-width="0.04"/>
   <path d="m155.32,229.54l2.81,-2.08l-1.3,-2.06l-0.72,2.38l-2.09,-0.25l1.3,2.01z" fill-rule="evenodd" id="path567" stroke="#000000" stroke-miterlimit="10" stroke-width="0.04"/>
   <path d="m189.56,236.64l2.23,0.03l-0.33,-0.93l-1.69,-0.98l-0.21,1.88z" fill-rule="evenodd" id="path569" stroke="#000000" stroke-miterlimit="10" stroke-width="0.04"/>
   <path d="m181.38,232.89l2.24,0l-0.33,-0.9l-1.69,-1.01l-0.22,1.91z" fill-rule="evenodd" id="path571" stroke="#000000" stroke-miterlimit="10" stroke-width="0.04"/>
   <path d="m173.9,236.2l2.23,0.04l-0.33,-0.94l-1.69,-0.97l-0.21,1.87z" fill-rule="evenodd" id="path573" stroke="#000000" stroke-miterlimit="10" stroke-width="0.04"/>
   <path d="m171.81,230.41l2.19,0.03l-0.32,-0.93l-1.69,-0.97l-0.18,1.87z" fill-rule="evenodd" id="path575" stroke="#000000" stroke-miterlimit="10" stroke-width="0.04"/>
   <path d="m164.5,232.96l2.2,0.04l-0.33,-0.94l-1.65,-0.97l-0.22,1.87z" fill-rule="evenodd" id="path577" stroke="#000000" stroke-miterlimit="10" stroke-width="0.04"/>
   <path d="m158.74,233.18l2.2,0.04l-0.33,-0.94l-1.69,-0.97l-0.18,1.87z" fill-rule="evenodd" id="path579" stroke="#000000" stroke-miterlimit="10" stroke-width="0.04"/>
   <path d="m197.44,245.13l2.77,-2.09l-1.26,-2.05l-0.75,2.38l-2.06,-0.29l1.3,2.05z" fill-rule="evenodd" id="path581" stroke="#000000" stroke-miterlimit="10" stroke-width="0.04"/>
   <path d="m182.39,243.73l3.46,0.61l0.57,-2.34l-2.19,1.08l-1.23,-1.69l-0.61,2.34z" fill-rule="evenodd" id="path583" stroke="#000000" stroke-miterlimit="10" stroke-width="0.04"/>
   <path d="m160.36,240.63l3.46,0.61l0.57,-2.34l-2.19,1.12l-1.23,-1.73l-0.61,2.34z" fill-rule="evenodd" id="path585" stroke="#000000" stroke-miterlimit="10" stroke-width="0.04"/>
   <path d="m172.67,224.97l2.2,0.04l-0.29,-0.94l-1.69,-0.97l-0.22,1.87z" fill-rule="evenodd" id="path587" stroke="#000000" stroke-miterlimit="10" stroke-width="0.04"/>
   <path d="m186.57,224.25l2.19,0l-0.32,-0.9l-1.66,-0.97l-0.21,1.87z" fill-rule="evenodd" id="path589" stroke="#000000" stroke-miterlimit="10" stroke-width="0.04"/>
   <path d="m172.6,243.69l2.2,0.04l-0.33,-0.9l-1.65,-1.01l-0.22,1.87z" fill-rule="evenodd" id="path591" stroke="#000000" stroke-miterlimit="10" stroke-width="0.04"/>
   <path d="m171.41,265.22l2.2,0l-0.33,-0.9l-1.65,-0.97l-0.22,1.87z" fill-rule="evenodd" id="path593" stroke="#000000" stroke-miterlimit="10" stroke-width="0.04"/>
   <path d="m186.71,267.06l2.2,0l-0.29,-0.9l-1.69,-1.01l-0.22,1.91z" fill-rule="evenodd" id="path595" stroke="#000000" stroke-miterlimit="10" stroke-width="0.04"/>
   <path d="m206.26,262.95l-0.76,2.09l0.98,0l1.47,-1.26l-1.69,-0.83z" fill-rule="evenodd" id="path597" stroke="#000000" stroke-miterlimit="10" stroke-width="0.04"/>
   <path d="m215.3,248.91l-0.76,2.09l0.97,0l1.48,-1.22l-1.69,-0.87z" fill-rule="evenodd" id="path599" stroke="#000000" stroke-miterlimit="10" stroke-width="0.04"/>
   <path d="m222.46,253.59l-0.76,2.05l0.98,0.04l1.47,-1.26l-1.69,-0.83z" fill-rule="evenodd" id="path601" stroke="#000000" stroke-miterlimit="10" stroke-width="0.04"/>
   <path d="m180.34,273.61l-0.76,2.09l0.94,0l1.51,-1.26l-1.69,-0.83z" fill-rule="evenodd" id="path603" stroke="#000000" stroke-miterlimit="10" stroke-width="0.04"/>
   <path d="m158.88,271.66l-0.79,2.09l0.97,0l1.52,-1.26l-1.7,-0.83z" fill-rule="evenodd" id="path605" stroke="#000000" stroke-miterlimit="10" stroke-width="0.04"/>
   <path d="m158.24,258.13l-0.76,2.05l0.97,0.04l1.48,-1.26l-1.69,-0.83z" fill-rule="evenodd" id="path607" stroke="#000000" stroke-miterlimit="10" stroke-width="0.04"/>
   <path d="m140.88,237.21l-0.75,2.05l0.97,0.04l1.48,-1.26l-1.7,-0.83z" fill-rule="evenodd" id="path609" stroke="#000000" stroke-miterlimit="10" stroke-width="0.04"/>
   <path d="m143.66,245.17l-0.76,2.09l0.97,0l1.48,-1.26l-1.69,-0.83z" fill-rule="evenodd" id="path611" stroke="#000000" stroke-miterlimit="10" stroke-width="0.04"/>
   <path d="m147.29,251.07l2.81,-2.09l-1.3,-2.05l-0.72,2.38l-2.08,-0.29l1.29,2.05z" fill-rule="evenodd" id="path613" stroke="#000000" stroke-miterlimit="10" stroke-width="0.04"/>
   <path d="m153.92,265.87l2.88,1.94l1.51,-1.87l-2.48,0.07l-0.4,-2.05l-1.51,1.91z" fill-rule="evenodd" id="path615" stroke="#000000" stroke-miterlimit="10" stroke-width="0.04"/>
   <path d="m170.12,271.45l2.88,1.98l1.51,-1.87l-2.45,0.07l-0.43,-2.06l-1.51,1.88z" fill-rule="evenodd" id="path617" stroke="#000000" stroke-miterlimit="10" stroke-width="0.04"/>
   <path d="m194.92,257.95l2.59,1.76l1.33,-1.69l-2.19,0.07l-0.36,-1.8l-1.37,1.66z" fill-rule="evenodd" id="path619" stroke="#000000" stroke-miterlimit="10" stroke-width="0.04"/>
   <path d="m196.18,268.64l2.92,1.94l1.51,-1.87l-2.48,0.07l-0.44,-2.05l-1.51,1.91z" fill-rule="evenodd" id="path621" stroke="#000000" stroke-miterlimit="10" stroke-width="0.04"/>
   <path d="m207.84,257.23l2.81,-2.09l-1.29,-2.05l-0.72,2.37l-2.06,-0.28l1.26,2.05z" fill-rule="evenodd" id="path623" stroke="#000000" stroke-miterlimit="10" stroke-width="0.04"/>
   <path d="m222.5,252.4l1.54,-1.15l-0.72,-1.11l-0.39,1.29l-1.15,-0.14l0.72,1.11z" fill-rule="evenodd" id="path625" stroke="#000000" stroke-miterlimit="10" stroke-width="0.04"/>
   <path d="m182.68,261.4l2.59,1.77l1.33,-1.66l-2.19,0.08l-0.36,-1.84l-1.37,1.65z" fill-rule="evenodd" id="path627" stroke="#000000" stroke-miterlimit="10" stroke-width="0.04"/>
   <path d="m149.52,256.8l2.6,1.76l1.33,-1.66l-2.2,0.08l-0.36,-1.84l-1.37,1.66z" fill-rule="evenodd" id="path629" stroke="#000000" stroke-miterlimit="10" stroke-width="0.04"/>
   <path d="m149.88,234.8l2.6,1.76l1.33,-1.69l-2.2,0.07l-0.36,-1.83l-1.37,1.69z" fill-rule="evenodd" id="path631" stroke="#000000" stroke-miterlimit="10" stroke-width="0.04"/>
   <path d="m91.06,262.99c-5.15,-3.53 -7.81,-9.25 -11.19,-13.43c-3.5,-4.28 -7.42,-6.77 -9.15,-11.48c-1.69,-4.76 -3.92,-10.73 -1.15,-16.96c2.7,-6.44 10.15,-15.48 17.21,-20.84c6.91,-5.55 13.82,-9.33 24.33,-11.34c10.51,-1.98 29.56,-2.67 38.23,-0.51c8.5,2.09 9.33,9.04 12.78,12.93c3.46,3.78 6.41,6.15 7.31,9.75c0.65,3.46 -0.86,6.12 -2.98,11.05c-2.16,4.9 -3.35,10.98 -9.83,17.97c-6.73,6.84 -21.57,17.78 -29.38,22.82c-7.85,4.79 -10.73,6.7 -16.81,6.7c-6.19,-0.07 -14.22,-3.31 -19.37,-6.66z" fill-rule="evenodd" id="path633" stroke="#000000" stroke-miterlimit="10" stroke-width="0.04"/>
   <path d="m73.64,240.09c-2.31,-3.27 -3.39,-7.02 -3.82,-9.43c-0.47,-2.56 -0.83,-5.72 0.72,-5.47c1.51,0.18 4.07,3.78 7.81,6.91c3.57,3.17 9.65,8.82 13.79,11.7c4.07,2.7 8.39,2.38 10.44,4.72c1.76,2.41 -0.07,6.4 1.15,9.21c1.33,2.67 5.08,5.11 6.52,6.81c1.26,1.69 2.55,2.73 1.26,2.98c-1.41,0.15 -6.19,-0.79 -9.36,-1.98c-3.31,-1.29 -6.55,-2.73 -9.72,-5.29c-3.1,-2.7 -5.87,-6.73 -8.86,-10.15c-3.24,-3.42 -7.67,-6.8 -9.93,-10.01z" fill="#a87410" fill-rule="evenodd" id="path635" stroke="#000000" stroke-miterlimit="10" stroke-width="0.04"/>
   <path d="m158.7,200.13c-1.98,-0.07 -1.4,4.07 -5.07,9.11c-3.78,5 -10.19,14.26 -17.14,20.38c-7.05,6.01 -19.55,11.48 -24.69,15.3c-5.22,3.63 -5.33,4.64 -6.16,6.76c-0.97,1.95 -0.97,3.1 0.83,5.4c1.83,2.24 6.23,8.03 10.11,8.25c3.64,0.11 7.78,-4.11 12.42,-7.09c4.65,-3.03 10.55,-6.41 15.63,-10.98c5,-4.79 10.87,-11.49 14.4,-16.89c3.42,-5.4 5.18,-11.55 6.26,-14.97c1.01,-3.46 0.9,-3.1 -0.18,-5.58c-1.22,-2.6 -4.46,-9.62 -6.41,-9.69z" fill="#a87410" fill-rule="evenodd" id="path637" stroke="#000000" stroke-miterlimit="10" stroke-width="0.04"/>
   <path d="m153.23,194.12c-2.34,-2.16 -6.55,-5.18 -12.78,-5.62c-6.44,-0.32 -17.35,1.7 -24.95,3.28c-7.63,1.37 -14.32,2.27 -20.23,5.47c-6.12,3.17 -11.37,9.29 -15.19,13.5c-3.74,4.03 -7.6,6.95 -6.98,10.69c0.5,3.71 6.48,7.82 10.29,11.34c3.78,3.42 9.11,6.99 12.5,9.15c3.24,2.05 3.7,3.85 7.23,3.31c3.46,-0.68 8.28,-4.43 13.5,-7.2s11.92,-5.26 17.32,-9.54c5.29,-4.61 10.65,-11.88 14.14,-16.67c3.32,-4.68 5.26,-8.28 6.12,-11.19c0.8,-2.96 1.26,-4.58 -0.97,-6.52z" fill="#f2c01a" fill-rule="evenodd" id="path639" stroke="#000000" stroke-miterlimit="10" stroke-width="0.04"/>
   <path d="m156.9,215.4l2.09,-0.69l-0.57,-0.75l-1.91,-0.44l0.39,1.88z" fill-rule="evenodd" id="path641" stroke="#000000" stroke-miterlimit="10" stroke-width="0.04"/>
   <path d="m122.88,207.66l3.46,-0.51l-0.14,-2.41l-1.77,1.73l-1.69,-1.23l0.14,2.42z" fill-rule="evenodd" id="path643" stroke="#000000" stroke-miterlimit="10" stroke-width="0.04"/>
   <path d="m94.95,208.2l2.02,-2.85l-1.88,-1.55l0.08,2.49l-2.06,0.36l1.84,1.55z" fill-rule="evenodd" id="path645" stroke="#000000" stroke-miterlimit="10" stroke-width="0.04"/>
   <path d="m131.24,201.79l2.08,-0.69l-0.57,-0.79l-1.91,-0.39l0.4,1.87z" fill-rule="evenodd" id="path647" stroke="#000000" stroke-miterlimit="10" stroke-width="0.04"/>
   <path d="m121.84,204.24l2.12,-0.69l-0.57,-0.75l-1.91,-0.44l0.36,1.88z" fill-rule="evenodd" id="path649" stroke="#000000" stroke-miterlimit="10" stroke-width="0.04"/>
   <path d="m115.76,209.74l2.12,-0.68l-0.58,-0.76l-1.9,-0.43l0.36,1.87z" fill-rule="evenodd" id="path651" stroke="#000000" stroke-miterlimit="10" stroke-width="0.04"/>
   <path d="m111.98,204.88l2.08,-0.68l-0.57,-0.76l-1.91,-0.43l0.4,1.87z" fill-rule="evenodd" id="path653" stroke="#000000" stroke-miterlimit="10" stroke-width="0.04"/>
   <path d="m105.82,209.6l2.09,-0.68l-0.58,-0.76l-1.91,-0.43l0.4,1.87z" fill-rule="evenodd" id="path655" stroke="#000000" stroke-miterlimit="10" stroke-width="0.04"/>
   <path d="m101.57,206.11l2.09,-0.69l-0.58,-0.75l-1.9,-0.4l0.39,1.84z" fill-rule="evenodd" id="path657" stroke="#000000" stroke-miterlimit="10" stroke-width="0.04"/>
   <path d="m89.37,219.36l2.12,-0.69l-0.61,-0.75l-1.91,-0.4l0.4,1.84z" fill-rule="evenodd" id="path659" stroke="#000000" stroke-miterlimit="10" stroke-width="0.04"/>
   <path d="m85.55,214.5l2.13,-0.65l-0.62,-0.79l-1.9,-0.4l0.39,1.84z" fill-rule="evenodd" id="path661" stroke="#000000" stroke-miterlimit="10" stroke-width="0.04"/>
   <path d="m79.43,219.21l2.09,-0.68l-0.57,-0.76l-1.91,-0.39l0.39,1.83z" fill-rule="evenodd" id="path663" stroke="#000000" stroke-miterlimit="10" stroke-width="0.04"/>
   <path d="m139.7,215.68l2.01,-2.84l-1.87,-1.55l0.04,2.49l-2.06,0.39l1.88,1.51z" fill-rule="evenodd" id="path665" stroke="#000000" stroke-miterlimit="10" stroke-width="0.04"/>
   <path d="m126.2,214.21l3.45,-0.47l-0.18,-2.41l-1.76,1.73l-1.69,-1.23l0.18,2.38z" fill-rule="evenodd" id="path667" stroke="#000000" stroke-miterlimit="10" stroke-width="0.04"/>
   <path d="m104.78,217.3l3.45,-0.5l-0.18,-2.41l-1.76,1.73l-1.69,-1.23l0.18,2.41z" fill-rule="evenodd" id="path669" stroke="#000000" stroke-miterlimit="10" stroke-width="0.04"/>
   <path d="m111.11,199.45l2.09,-0.69l-0.58,-0.75l-1.9,-0.43l0.39,1.87z" fill-rule="evenodd" id="path671" stroke="#000000" stroke-miterlimit="10" stroke-width="0.04"/>
   <path d="m124.07,194.41l2.09,-0.69l-0.58,-0.75l-1.9,-0.4l0.39,1.84z" fill-rule="evenodd" id="path673" stroke="#000000" stroke-miterlimit="10" stroke-width="0.04"/>
   <path d="m92.21,212.98l2.09,-0.68l-0.58,-0.76l-1.9,-0.39l0.39,1.83z" fill-rule="evenodd" id="path675" stroke="#000000" stroke-miterlimit="10" stroke-width="0.04"/>
   <path d="m116.87,217.27l2.09,-0.69l-0.58,-0.75l-1.9,-0.43l0.39,1.87z" fill-rule="evenodd" id="path677" stroke="#000000" stroke-miterlimit="10" stroke-width="0.04"/>
   <path d="m138.76,196.03l2.02,-2.88l-1.88,-1.55l0.08,2.48l-2.06,0.4l1.84,1.55z" fill-rule="evenodd" id="path679" stroke="#000000" stroke-miterlimit="10" stroke-width="0.04"/>
   <path d="m142.11,202.9l2.09,-0.68l-0.58,-0.76l-1.91,-0.43l0.4,1.87z" fill-rule="evenodd" id="path681" stroke="#000000" stroke-miterlimit="10" stroke-width="0.04"/>
   <path d="m133.68,211.18l2.09,-0.68l-0.57,-0.76l-1.91,-0.43l0.39,1.87z" fill-rule="evenodd" id="path683" stroke="#000000" stroke-miterlimit="10" stroke-width="0.04"/>
   <path d="m129.44,207.69l2.08,-0.68l-0.57,-0.76l-1.91,-0.39l0.4,1.83z" fill-rule="evenodd" id="path685" stroke="#000000" stroke-miterlimit="10" stroke-width="0.04"/>
   <path d="m104.34,240.31l3.46,-0.51l-0.14,-2.41l-1.77,1.73l-1.69,-1.22l0.14,2.41z" fill-rule="evenodd" id="path687" stroke="#000000" stroke-miterlimit="10" stroke-width="0.04"/>
   <path d="m84.69,222.99l2.01,-2.84l-1.87,-1.55l0.04,2.48l-2.05,0.36l1.87,1.55z" fill-rule="evenodd" id="path689" stroke="#000000" stroke-miterlimit="10" stroke-width="0.04"/>
   <path d="m119.43,219.03l2.12,-0.68l-0.61,-0.76l-1.91,-0.39l0.4,1.83z" fill-rule="evenodd" id="path691" stroke="#000000" stroke-miterlimit="10" stroke-width="0.04"/>
   <path d="m110.5,218.02l2.09,-0.68l-0.58,-0.76l-1.91,-0.43l0.4,1.87z" fill-rule="evenodd" id="path693" stroke="#000000" stroke-miterlimit="10" stroke-width="0.04"/>
   <path d="m104.42,223.53l2.08,-0.68l-0.57,-0.76l-1.91,-0.43l0.4,1.87z" fill-rule="evenodd" id="path695" stroke="#000000" stroke-miterlimit="10" stroke-width="0.04"/>
   <path d="m100.6,218.67l2.12,-0.68l-0.61,-0.76l-1.91,-0.39l0.4,1.83z" fill-rule="evenodd" id="path697" stroke="#000000" stroke-miterlimit="10" stroke-width="0.04"/>
   <path d="m94.48,223.39l2.09,-0.69l-0.58,-0.75l-1.91,-0.43l0.4,1.87z" fill-rule="evenodd" id="path699" stroke="#000000" stroke-miterlimit="10" stroke-width="0.04"/>
   <path d="m89.05,225.4l2.12,-0.68l-0.61,-0.79l-1.91,-0.4l0.4,1.87z" fill-rule="evenodd" id="path701" stroke="#000000" stroke-miterlimit="10" stroke-width="0.04"/>
   <path d="m129.54,224.65l2.02,-2.85l-1.87,-1.54l0.07,2.48l-2.09,0.36l1.87,1.55z" fill-rule="evenodd" id="path703" stroke="#000000" stroke-miterlimit="10" stroke-width="0.04"/>
   <path d="m114.82,228l3.46,-0.47l-0.15,-2.41l-1.76,1.72l-1.69,-1.22l0.14,2.38z" fill-rule="evenodd" id="path705" stroke="#000000" stroke-miterlimit="10" stroke-width="0.04"/>
   <path d="m92.93,231.96l3.46,-0.51l-0.14,-2.41l-1.77,1.73l-1.69,-1.23l0.14,2.42z" fill-rule="evenodd" id="path707" stroke="#000000" stroke-miterlimit="10" stroke-width="0.04"/>
   <path d="m99.74,213.24l2.12,-0.69l-0.61,-0.75l-1.91,-0.44l0.4,1.88z" fill-rule="evenodd" id="path709" stroke="#000000" stroke-miterlimit="10" stroke-width="0.04"/>
   <path d="m112.7,208.2l2.12,-0.69l-0.61,-0.75l-1.87,-0.4l0.36,1.84z" fill-rule="evenodd" id="path711" stroke="#000000" stroke-miterlimit="10" stroke-width="0.04"/>
   <path d="m105.53,231.06l2.09,-0.69l-0.58,-0.75l-1.9,-0.44l0.39,1.88z" fill-rule="evenodd" id="path713" stroke="#000000" stroke-miterlimit="10" stroke-width="0.04"/>
   <path d="m111.11,251.86l2.09,-0.68l-0.58,-0.76l-1.9,-0.43l0.39,1.87z" fill-rule="evenodd" id="path715" stroke="#000000" stroke-miterlimit="10" stroke-width="0.04"/>
   <path d="m126.23,248.8l2.09,-0.68l-0.58,-0.76l-1.9,-0.43l0.39,1.87z" fill-rule="evenodd" id="path717" stroke="#000000" stroke-miterlimit="10" stroke-width="0.04"/>
   <path d="m143.51,238.8l-0.07,2.23l0.9,-0.29l1.04,-1.66l-1.87,-0.28z" fill-rule="evenodd" id="path719" stroke="#000000" stroke-miterlimit="10" stroke-width="0.04"/>
   <path d="m147.72,222.67l-0.1,2.19l0.93,-0.28l1.05,-1.66l-1.88,-0.25z" fill-rule="evenodd" id="path721" stroke="#000000" stroke-miterlimit="10" stroke-width="0.04"/>
   <path d="m155.97,224.86l-0.07,2.2l0.9,-0.29l1.04,-1.65l-1.87,-0.26z" fill-rule="evenodd" id="path723" stroke="#000000" stroke-miterlimit="10" stroke-width="0.04"/>
   <path d="m122.2,257.05l-0.07,2.19l0.93,-0.28l1.01,-1.66l-1.87,-0.25z" fill-rule="evenodd" id="path725" stroke="#000000" stroke-miterlimit="10" stroke-width="0.04"/>
   <path d="m101.21,261.87l-0.07,2.23l0.9,-0.28l1.04,-1.66l-1.87,-0.29z" fill-rule="evenodd" id="path727" stroke="#000000" stroke-miterlimit="10" stroke-width="0.04"/>
   <path d="m96.39,249.24l-0.07,2.19l0.9,-0.29l1.04,-1.65l-1.87,-0.25z" fill-rule="evenodd" id="path729" stroke="#000000" stroke-miterlimit="10" stroke-width="0.04"/>
   <path d="m73.39,234.76l-0.11,2.2l0.93,-0.29l1.05,-1.65l-1.87,-0.26z" fill-rule="evenodd" id="path731" stroke="#000000" stroke-miterlimit="10" stroke-width="0.04"/>
   <path d="m78.5,241.46l-0.11,2.23l0.94,-0.29l1.04,-1.65l-1.87,-0.29z" fill-rule="evenodd" id="path733" stroke="#000000" stroke-miterlimit="10" stroke-width="0.04"/>
   <path d="m83.75,245.92l2.02,-2.84l-1.84,-1.55l0.04,2.49l-2.05,0.39l1.83,1.51z" fill-rule="evenodd" id="path735" stroke="#000000" stroke-miterlimit="10" stroke-width="0.04"/>
   <path d="m94.7,257.91l3.35,0.97l0.86,-2.23l-2.34,0.83l-1.04,-1.8l-0.83,2.23z" fill-rule="evenodd" id="path737" stroke="#000000" stroke-miterlimit="10" stroke-width="0.04"/>
   <path d="m111.83,258.16l3.35,1.01l0.86,-2.27l-2.34,0.83l-1,-1.8l-0.87,2.23z" fill-rule="evenodd" id="path739" stroke="#000000" stroke-miterlimit="10" stroke-width="0.04"/>
   <path d="m131.16,237.61l3.03,0.86l0.75,-2.01l-2.08,0.75l-0.94,-1.62l-0.76,2.02z" fill-rule="evenodd" id="path741" stroke="#000000" stroke-miterlimit="10" stroke-width="0.04"/>
   <path d="m135.74,247.33l3.34,1.01l0.83,-2.27l-2.3,0.83l-1.05,-1.8l-0.82,2.23z" fill-rule="evenodd" id="path743" stroke="#000000" stroke-miterlimit="10" stroke-width="0.04"/>
   <path d="m143.22,232.89l2.02,-2.88l-1.83,-1.55l0.03,2.49l-2.05,0.39l1.83,1.55z" fill-rule="evenodd" id="path745" stroke="#000000" stroke-miterlimit="10" stroke-width="0.04"/>
   <path d="m155.64,223.75l1.12,-1.59l-1.04,-0.86l0.03,1.37l-1.15,0.21l1.04,0.87z" fill-rule="evenodd" id="path747" stroke="#000000" stroke-miterlimit="10" stroke-width="0.04"/>
   <path d="m120.65,244.7l2.99,0.86l0.76,-1.98l-2.09,0.76l-0.9,-1.66l-0.76,2.02z" fill-rule="evenodd" id="path749" stroke="#000000" stroke-miterlimit="10" stroke-width="0.04"/>
   <path d="m87.71,250.68l2.99,0.9l0.76,-2.02l-2.09,0.76l-0.9,-1.66l-0.76,2.02z" fill-rule="evenodd" id="path751" stroke="#000000" stroke-miterlimit="10" stroke-width="0.04"/>
   <path d="m81.16,229.65l2.99,0.9l0.76,-2.01l-2.06,0.75l-0.93,-1.62l-0.76,1.98z" fill-rule="evenodd" id="path753" stroke="#000000" stroke-miterlimit="10" stroke-width="0.04"/>
   <path d="m139.55,215.61c-3.74,-5 -4.35,-11.3 -6.12,-16.38c-1.94,-5.14 -4.75,-8.85 -4.82,-13.89c-0.04,-5.15 -0.07,-11.31 4.61,-16.38c4.6,-5.22 14.72,-11.16 23.14,-13.94c8.28,-2.77 16.17,-4.28 26.72,-2.59c10.58,1.62 28.62,7.31 36.18,12.21c7.23,4.86 5.9,11.59 7.81,16.45c1.94,4.71 4.03,7.99 3.64,11.63c-0.58,3.49 -2.88,5.47 -6.48,9.43c-3.64,3.92 -6.92,9.25 -15.27,13.64c-8.53,4.18 -26.35,9.69 -35.28,11.81c-9,2.05 -12.38,2.66 -18.07,0.72c-5.8,-2.09 -12.35,-7.85 -16.06,-12.71z" fill-rule="evenodd" id="path755" stroke="#000000" stroke-miterlimit="10" stroke-width="0.04"/>
   <path d="m130.7,188.25c-1.16,-3.96 -0.8,-7.63 -0.44,-10.19c0.33,-2.62 1.16,-5.61 2.49,-4.93c1.22,0.65 2.59,4.93 5.07,9.11c2.42,4.1 6.05,11.63 9.11,15.62c2.81,3.82 7.24,5.12 8.28,7.92c1.05,2.85 -2.34,6.02 -1.94,9.08c0.29,2.98 3.1,6.44 3.85,8.56c0.69,1.98 1.41,3.39 0.22,3.24c-1.41,-0.36 -5.62,-2.7 -8.17,-4.93c-2.6,-2.23 -5.44,-4.9 -7.42,-8.28c-2.23,-3.64 -3.06,-8.21 -4.97,-12.45c-1.98,-4.32 -4.93,-8.9 -6.08,-12.75z" fill="#a87410" fill-rule="evenodd" id="path757" stroke="#000000" stroke-miterlimit="10" stroke-width="0.04"/>
   <path d="m224.19,178.78c-1.91,-0.68 -2.59,3.39 -7.74,6.92c-5.29,3.42 -14.29,10.15 -22.97,13.53c-8.6,3.24 -22.32,4.39 -28.37,6.23c-6.23,1.62 -6.51,2.74 -8.06,4.32c-1.55,1.55 -1.98,2.59 -1.01,5.36c0.94,2.78 3.2,9.54 6.8,11.13c3.53,1.4 8.5,-1.3 14.08,-2.56c5.36,-1.37 12.1,-2.48 18.4,-5.15c6.33,-2.8 14.07,-7.3 19.18,-11.16c5.01,-3.92 8.68,-9.18 10.88,-12.02c2.05,-2.92 1.87,-2.59 1.69,-5.29c-0.29,-2.88 -1.12,-10.59 -2.88,-11.31z" fill="#a87410" fill-rule="evenodd" id="path759" stroke="#000000" stroke-miterlimit="10" stroke-width="0.04"/>
   <path d="m221.09,171.3c-1.44,-2.7 -4.57,-7.13 -10.22,-9.54c-5.94,-2.52 -16.96,-4.07 -24.59,-5.19c-7.7,-1.19 -14.22,-2.63 -20.92,-1.55c-6.76,1.01 -13.96,5.04 -18.82,7.67c-4.9,2.63 -9.47,3.96 -10.12,7.74c-0.76,3.67 3.38,9.51 5.9,14.15c2.45,4.5 6.2,9.54 8.75,12.74c2.38,3.03 2.16,4.97 5.73,5.55c3.45,0.47 9.28,-1.41 15.15,-2.31c5.83,-0.9 12.93,-1.01 19.48,-3.24c6.44,-2.44 14.04,-7.74 18.9,-11.01c4.64,-3.35 7.67,-6.05 9.5,-8.54c1.77,-2.51 2.7,-3.85 1.26,-6.47z" fill="#f2c01a" fill-rule="evenodd" id="path761" stroke="#000000" stroke-miterlimit="10" stroke-width="0.04"/>
   <path d="m217.46,192.57l2.19,0.07l-0.29,-0.93l-1.65,-1.01l-0.25,1.87z" fill-rule="evenodd" id="path763" stroke="#000000" stroke-miterlimit="10" stroke-width="0.04"/>
   <path d="m187.94,174l3.45,0.64l0.65,-2.3l-2.27,1.04l-1.19,-1.73l-0.64,2.35z" fill-rule="evenodd" id="path765" stroke="#000000" stroke-miterlimit="10" stroke-width="0.04"/>
   <path d="m161.44,165.21l2.84,-2.01l-1.26,-2.09l-0.79,2.37l-2.05,-0.32l1.26,2.05z" fill-rule="evenodd" id="path767" stroke="#000000" stroke-miterlimit="10" stroke-width="0.04"/>
   <path d="m197.76,171.22l2.24,0.04l-0.33,-0.9l-1.65,-1.04l-0.26,1.9z" fill-rule="evenodd" id="path769" stroke="#000000" stroke-miterlimit="10" stroke-width="0.04"/>
   <path d="m188.12,170.4l2.19,0.07l-0.29,-0.9l-1.65,-1.05l-0.25,1.88z" fill-rule="evenodd" id="path771" stroke="#000000" stroke-miterlimit="10" stroke-width="0.04"/>
   <path d="m180.56,173.6l2.19,0.04l-0.29,-0.9l-1.65,-1.05l-0.25,1.91z" fill-rule="evenodd" id="path773" stroke="#000000" stroke-miterlimit="10" stroke-width="0.04"/>
   <path d="m178.58,167.73l2.19,0.07l-0.29,-0.93l-1.69,-1.01l-0.21,1.87z" fill-rule="evenodd" id="path775" stroke="#000000" stroke-miterlimit="10" stroke-width="0.04"/>
   <path d="m171.2,170.14l2.23,0.08l-0.33,-0.94l-1.65,-1.01l-0.25,1.87z" fill-rule="evenodd" id="path777" stroke="#000000" stroke-miterlimit="10" stroke-width="0.04"/>
   <path d="m168.35,165.43l2.2,0.07l-0.29,-0.9l-1.66,-1.04l-0.25,1.87z" fill-rule="evenodd" id="path779" stroke="#000000" stroke-miterlimit="10" stroke-width="0.04"/>
   <path d="m152.44,173.89l2.23,0.07l-0.32,-0.94l-1.66,-1l-0.25,1.87z" fill-rule="evenodd" id="path781" stroke="#000000" stroke-miterlimit="10" stroke-width="0.04"/>
   <path d="m150.46,168.06l2.23,0.07l-0.32,-0.94l-1.66,-1.01l-0.25,1.88z" fill-rule="evenodd" id="path783" stroke="#000000" stroke-miterlimit="10" stroke-width="0.04"/>
   <path d="m143.12,170.47l2.19,0.03l-0.29,-0.9l-1.65,-1.04l-0.25,1.91z" fill-rule="evenodd" id="path785" stroke="#000000" stroke-miterlimit="10" stroke-width="0.04"/>
   <path d="m201.11,187.14l2.85,-2.02l-1.23,-2.09l-0.79,2.38l-2.05,-0.33l1.22,2.06z" fill-rule="evenodd" id="path787" stroke="#000000" stroke-miterlimit="10" stroke-width="0.04"/>
   <path d="m188.87,181.27l3.42,0.68l0.65,-2.3l-2.23,1.04l-1.19,-1.73l-0.65,2.31z" fill-rule="evenodd" id="path789" stroke="#000000" stroke-miterlimit="10" stroke-width="0.04"/>
   <path d="m167.63,177.06l3.46,0.68l0.65,-2.34l-2.27,1.08l-1.19,-1.73l-0.65,2.31z" fill-rule="evenodd" id="path791" stroke="#000000" stroke-miterlimit="10" stroke-width="0.04"/>
   <path d="m179.55,162.33l2.19,0.04l-0.28,-0.9l-1.66,-1.01l-0.25,1.87z" fill-rule="evenodd" id="path793" stroke="#000000" stroke-miterlimit="10" stroke-width="0.04"/>
   <path d="m193.44,161.9l2.24,0.04l-0.33,-0.9l-1.65,-1.05l-0.26,1.91z" fill-rule="evenodd" id="path795" stroke="#000000" stroke-miterlimit="10" stroke-width="0.04"/>
   <path d="m157.23,168.81l2.19,0.07l-0.28,-0.9l-1.66,-1.04l-0.25,1.87z" fill-rule="evenodd" id="path797" stroke="#000000" stroke-miterlimit="10" stroke-width="0.04"/>
   <path d="m179.08,181.05l2.2,0.07l-0.29,-0.93l-1.66,-1.01l-0.25,1.87z" fill-rule="evenodd" id="path799" stroke="#000000" stroke-miterlimit="10" stroke-width="0.04"/>
   <path d="m206.8,168.27l2.84,-2.01l-1.26,-2.09l-0.75,2.37l-2.09,-0.32l1.26,2.05z" fill-rule="evenodd" id="path801" stroke="#000000" stroke-miterlimit="10" stroke-width="0.04"/>
   <path d="m207.63,175.87l2.23,0.07l-0.32,-0.9l-1.66,-1.04l-0.25,1.87z" fill-rule="evenodd" id="path803" stroke="#000000" stroke-miterlimit="10" stroke-width="0.04"/>
   <path d="m196.97,180.91l2.2,0.03l-0.29,-0.9l-1.69,-1.04l-0.22,1.91z" fill-rule="evenodd" id="path805" stroke="#000000" stroke-miterlimit="10" stroke-width="0.04"/>
   <path d="m194.09,176.19l2.2,0.07l-0.29,-0.93l-1.66,-1.01l-0.25,1.87z" fill-rule="evenodd" id="path807" stroke="#000000" stroke-miterlimit="10" stroke-width="0.04"/>
   <path d="m159.6,198.62l3.46,0.68l0.65,-2.34l-2.23,1.05l-1.19,-1.73l-0.69,2.34z" fill-rule="evenodd" id="path809" stroke="#000000" stroke-miterlimit="10" stroke-width="0.04"/>
   <path d="m146.82,175.76l2.85,-2.02l-1.26,-2.08l-0.76,2.37l-2.09,-0.32l1.26,2.05z" fill-rule="evenodd" id="path811" stroke="#000000" stroke-miterlimit="10" stroke-width="0.04"/>
   <path d="m180.92,183.57l2.19,0.07l-0.29,-0.93l-1.65,-1.01l-0.25,1.87z" fill-rule="evenodd" id="path813" stroke="#000000" stroke-miterlimit="10" stroke-width="0.04"/>
   <path d="m172.82,179.65l2.23,0.07l-0.33,-0.94l-1.65,-1l-0.25,1.87z" fill-rule="evenodd" id="path815" stroke="#000000" stroke-miterlimit="10" stroke-width="0.04"/>
   <path d="m165.26,182.82l2.19,0.07l-0.29,-0.94l-1.65,-1.01l-0.25,1.88z" fill-rule="evenodd" id="path817" stroke="#000000" stroke-miterlimit="10" stroke-width="0.04"/>
   <path d="m163.28,176.98l2.19,0.04l-0.29,-0.9l-1.65,-1.01l-0.25,1.87z" fill-rule="evenodd" id="path819" stroke="#000000" stroke-miterlimit="10" stroke-width="0.04"/>
   <path d="m155.93,179.36l2.2,0.07l-0.29,-0.9l-1.69,-1.04l-0.22,1.87z" fill-rule="evenodd" id="path821" stroke="#000000" stroke-miterlimit="10" stroke-width="0.04"/>
   <path d="m150.14,179.47l2.23,0.07l-0.33,-0.94l-1.65,-1l-0.25,1.87z" fill-rule="evenodd" id="path823" stroke="#000000" stroke-miterlimit="10" stroke-width="0.04"/>
   <path d="m188.58,192.21l2.85,-2.01l-1.26,-2.06l-0.76,2.34l-2.09,-0.32l1.26,2.05z" fill-rule="evenodd" id="path825" stroke="#000000" stroke-miterlimit="10" stroke-width="0.04"/>
   <path d="m173.57,190.52l3.46,0.69l0.65,-2.35l-2.27,1.05l-1.19,-1.73l-0.65,2.34z" fill-rule="evenodd" id="path827" stroke="#000000" stroke-miterlimit="10" stroke-width="0.04"/>
   <path d="m151.61,186.96l3.46,0.68l0.65,-2.34l-2.27,1.04l-1.19,-1.69l-0.65,2.31z" fill-rule="evenodd" id="path829" stroke="#000000" stroke-miterlimit="10" stroke-width="0.04"/>
   <path d="m164.25,171.55l2.23,0.07l-0.32,-0.94l-1.66,-1l-0.25,1.87z" fill-rule="evenodd" id="path831" stroke="#000000" stroke-miterlimit="10" stroke-width="0.04"/>
   <path d="m178.18,171.12l2.2,0.07l-0.29,-0.94l-1.69,-1.01l-0.22,1.88z" fill-rule="evenodd" id="path833" stroke="#000000" stroke-miterlimit="10" stroke-width="0.04"/>
   <path d="m163.78,190.27l2.23,0.07l-0.32,-0.9l-1.66,-1.04l-0.25,1.87z" fill-rule="evenodd" id="path835" stroke="#000000" stroke-miterlimit="10" stroke-width="0.04"/>
   <path d="m162.16,211.76l2.2,0.07l-0.29,-0.93l-1.66,-1.01l-0.25,1.87z" fill-rule="evenodd" id="path837" stroke="#000000" stroke-miterlimit="10" stroke-width="0.04"/>
   <path d="m177.42,213.92l2.2,0.04l-0.29,-0.9l-1.65,-1.05l-0.26,1.91z" fill-rule="evenodd" id="path839" stroke="#000000" stroke-miterlimit="10" stroke-width="0.04"/>
   <path d="m197.04,210.21l-0.79,2.05l0.94,0.04l1.55,-1.19l-1.7,-0.9z" fill-rule="evenodd" id="path841" stroke="#000000" stroke-miterlimit="10" stroke-width="0.04"/>
   <path d="m206.37,196.39l-0.79,2.05l0.97,0.04l1.51,-1.23l-1.69,-0.86z" fill-rule="evenodd" id="path843" stroke="#000000" stroke-miterlimit="10" stroke-width="0.04"/>
   <path d="m213.42,201.21l-0.79,2.05l0.97,0.04l1.52,-1.22l-1.7,-0.87z" fill-rule="evenodd" id="path845" stroke="#000000" stroke-miterlimit="10" stroke-width="0.04"/>
   <path d="m170.91,220.33l-0.83,2.05l0.97,0.04l1.55,-1.19l-1.69,-0.9z" fill-rule="evenodd" id="path847" stroke="#000000" stroke-miterlimit="10" stroke-width="0.04"/>
   <path d="m149.49,217.95l-0.79,2.05l0.93,0.04l1.55,-1.22l-1.69,-0.87z" fill-rule="evenodd" id="path849" stroke="#000000" stroke-miterlimit="10" stroke-width="0.04"/>
   <path d="m149.13,204.38l-0.79,2.05l0.97,0.04l1.51,-1.23l-1.69,-0.86z" fill-rule="evenodd" id="path851" stroke="#000000" stroke-miterlimit="10" stroke-width="0.04"/>
   <path d="m132.24,183.1l-0.82,2.06l0.97,0.03l1.51,-1.22l-1.66,-0.87z" fill-rule="evenodd" id="path853" stroke="#000000" stroke-miterlimit="10" stroke-width="0.04"/>
   <path d="m134.84,191.13l-0.83,2.05l0.97,0.04l1.51,-1.22l-1.65,-0.87z" fill-rule="evenodd" id="path855" stroke="#000000" stroke-miterlimit="10" stroke-width="0.04"/>
   <path d="m138.33,197.11l2.84,-2.05l-1.22,-2.06l-0.79,2.34l-2.09,-0.32l1.26,2.09z" fill-rule="evenodd" id="path857" stroke="#000000" stroke-miterlimit="10" stroke-width="0.04"/>
   <path d="m144.66,212.05l2.85,2.01l1.55,-1.83l-2.49,0l-0.36,-2.05l-1.55,1.87z" fill-rule="evenodd" id="path859" stroke="#000000" stroke-miterlimit="10" stroke-width="0.04"/>
   <path d="m160.76,217.99l2.84,2.01l1.55,-1.83l-2.48,0.03l-0.36,-2.08l-1.55,1.87z" fill-rule="evenodd" id="path861" stroke="#000000" stroke-miterlimit="10" stroke-width="0.04"/>
   <path d="m185.81,204.99l2.56,1.8l1.37,-1.62l-2.2,0l-0.32,-1.83l-1.41,1.65z" fill-rule="evenodd" id="path863" stroke="#000000" stroke-miterlimit="10" stroke-width="0.04"/>
   <path d="m186.86,215.68l2.84,2.06l1.55,-1.88l-2.45,0.04l-0.4,-2.05l-1.54,1.83z" fill-rule="evenodd" id="path865" stroke="#000000" stroke-miterlimit="10" stroke-width="0.04"/>
   <path d="m198.77,204.52l2.85,-2.01l-1.26,-2.05l-0.76,2.34l-2.09,-0.33l1.26,2.05z" fill-rule="evenodd" id="path867" stroke="#000000" stroke-miterlimit="10" stroke-width="0.04"/>
   <path d="m213.5,200.02l1.58,-1.11l-0.68,-1.15l-0.44,1.29l-1.15,-0.18l0.69,1.15z" fill-rule="evenodd" id="path869" stroke="#000000" stroke-miterlimit="10" stroke-width="0.04"/>
   <path d="m173.54,208.2l2.52,1.8l1.36,-1.62l-2.19,0l-0.32,-1.84l-1.37,1.66z" fill-rule="evenodd" id="path871" stroke="#000000" stroke-miterlimit="10" stroke-width="0.04"/>
   <path d="m140.45,202.9l2.56,1.81l1.37,-1.66l-2.2,0.04l-0.32,-1.84l-1.41,1.65z" fill-rule="evenodd" id="path873" stroke="#000000" stroke-miterlimit="10" stroke-width="0.04"/>
   <path d="m141.28,180.91l2.52,1.8l1.4,-1.66l-2.19,0.04l-0.36,-1.84l-1.37,1.66z" fill-rule="evenodd" id="path875" stroke="#000000" stroke-miterlimit="10" stroke-width="0.04"/>
  </g>
 </g>
</svg>