<svg width="80" height="90" xmlns="http://www.w3.org/2000/svg" xmlns:svg="http://www.w3.org/2000/svg" version="1.1">
 <defs>
  <style>.cls-1 {
        fill: #a00;
        }

        .cls-2 {
        filter: url(#r);
        }

        .cls-2,
        .cls-3,
        .cls-4,
        .cls-5,
        .cls-6,
        .cls-7,
        .cls-8,
        .cls-9,
        .cls-10,
        .cls-11,
        .cls-12,
        .cls-13,
        .cls-14,
        .cls-15,
        .cls-16,
        .cls-17,
        .cls-18,
        .cls-19,
        .cls-20,
        .cls-21 {
        opacity: .5;
        }

        .cls-3 {
        filter: url(#w);
        }

        .cls-22 {
        fill: url(#linear-gradient-2);
        }

        .cls-23 {
        fill: url(#linear-gradient-5);
        opacity: .5;
        }

        .cls-23,
        .cls-6 {
        isolation: isolate;
        }

        .cls-4 {
        filter: url(#K);
        }

        .cls-24 {
        fill: #a7a7a7;
        }

        .cls-5 {
        filter: url(#d);
        }

        .cls-6 {
        fill: url(#radial-gradient);
        }

        .cls-7 {
        filter: url(#O);
        }

        .cls-8 {
        filter: url(#z);
        }

        .cls-9 {
        filter: url(#C);
        }

        .cls-10 {
        filter: url(#L);
        }

        .cls-11 {
        filter: url(#N);
        }

        .cls-25 {
        fill: #c41c23;
        }

        .cls-26 {
        fill: url(#linear-gradient-4);
        }

        .cls-12 {
        filter: url(#c);
        }

        .cls-27 {
        fill: #f7d333;
        }

        .cls-28 {
        fill: url(#linear-gradient-3);
        }

        .cls-13 {
        filter: url(#J);
        }

        .cls-29 {
        fill: #890000;
        }

        .cls-14 {
        filter: url(#k);
        }

        .cls-15 {
        filter: url(#B);
        }

        .cls-16 {
        filter: url(#P);
        }

        .cls-30 {
        fill: #fcec3d;
        }

        .cls-17 {
        filter: url(#M);
        }

        .cls-31 {
        fill: #efb319;
        }

        .cls-18 {
        filter: url(#A);
        }

        .cls-19 {
        filter: url(#S);
        }

        .cls-20 {
        filter: url(#R);
        }

        .cls-32 {
        fill: url(#linear-gradient);
        }

        .cls-21 {
        filter: url(#Q);
        }</style>
 </defs>
 <!-- Generator: Adobe Illustrator 28.7.4, SVG Export Plug-In . SVG Version: 1.2.0 Build 166)  -->
 <g class="layer" display="inline" id="svg_2">
  <title>Layer 1</title>
  <g id="svg_3" transform="translate(1 0) translate(1 0) translate(1 0) translate(1 0) translate(1 0) translate(1 0) translate(-0.531201 -0.251476) matrix(0.136667 0 0 0.124968 -7.59933 -3.02838)">
   <g id="svg_4">
    <g id="svg_6">
     <path class="cls-6" d="m447.8,451.9c-0.2,15.9 -86.5,28.1 -192.7,27.3s-192.1,-14.3 -191.9,-30.2s86.5,-28.1 192.7,-27.3s192.1,14.3 191.9,30.2z" id="svg_168"/>
     <path class="cls-29" d="m97.5,154.9l53.5,161.5l218.1,0l53.6,-161.4s-46.6,-50.2 -77.8,-60.7c-54.2,-18.3 -117.6,-16.8 -171.6,2c-30.1,10.5 -75.7,58.6 -75.7,58.6l0,0l-0.1,0z" id="svg_167"/>
     <path class="cls-32" d="m97.5,157.8l53.5,161.5l218.1,0l53.6,-161.4s-46.6,-50.2 -77.8,-60.7c-54.2,-18.3 -117.6,-16.8 -171.6,2c-30.1,10.5 -75.7,58.6 -75.7,58.6l0,0l-0.1,0z" id="svg_166"/>
     <g class="cls-12" id="svg_162">
      <path d="m268.7,40.7l-5.6,255.9l17.2,2.5l5.6,-262.5l-17.2,4l0,0.1z" id="svg_165"/>
      <path d="m269.6,40.7l-12.1,-5l-6.1,270.6l12.6,-9.1l5.6,-256.4l0,-0.1z" id="svg_164"/>
      <path d="m257.1,35.9l12.7,5.2l15.8,-4.2l-10.2,-3l-18.3,2z" id="svg_163"/>
     </g>
     <g id="svg_158">
      <path class="cls-27" d="m268.7,40.7l-5.6,255.9l17.2,2.5l5.6,-262.5l-17.2,4l0,0.1z" id="svg_161"/>
      <path class="cls-31" d="m269.6,40.7l-12.1,-5l-6.1,270.6l12.6,-9.1l5.6,-256.4l0,-0.1z" id="svg_160"/>
      <path class="cls-30" d="m257.1,35.9l12.7,5.2l15.8,-4.2l-10.2,-3l-18.3,2z" id="svg_159"/>
     </g>
     <g class="cls-5" id="svg_154">
      <path d="m248.4,57.2l12.3,-4.4l-14.8,265.2l-15.1,2.6l17.6,-263.3l0,-0.1z" id="svg_157"/>
      <path d="m229.6,54.3l18.7,2.6l-15.4,264.1l-16.2,-20l12.9,-246.6l0,-0.1z" id="svg_156"/>
      <path d="m229.6,54.4l19.2,2.9l12.3,-4.4l-16.7,-2.1l-14.8,3.6z" id="svg_155"/>
     </g>
     <g id="svg_150">
      <path class="cls-31" d="m248.4,57.2l12.3,-4.4l-14.8,265.2l-15.1,2.6l17.6,-263.3l0,-0.1z" id="svg_153"/>
      <path class="cls-27" d="m229.6,54.3l18.7,2.6l-15.4,264.1l-16.2,-20l12.9,-246.6l0,-0.1z" id="svg_152"/>
      <path class="cls-30" d="m229.6,54.4l19.2,2.9l12.3,-4.4l-16.7,-2.1l-14.8,3.6z" id="svg_151"/>
     </g>
     <g class="cls-14" id="svg_146">
      <path d="m200.7,67.7l6.3,233.5l19.6,6.5l-8.2,-240.2l-19,-8l1.2,8.2l0.1,0z" id="svg_149"/>
      <path d="m217.9,67.3l9.7,-5.6l9.4,253l-13.6,-6l-5.5,-241.4z" id="svg_148"/>
      <path d="m199.2,59.8l18.8,7.7l9.5,-5.3l-15.4,-7.3l-13,4.9l0.1,0z" id="svg_147"/>
     </g>
     <g id="svg_142">
      <path class="cls-27" d="m200.7,67.7l6.3,233.5l19.6,6.5l-8.2,-240.2l-19,-8l1.2,8.2l0.1,0z" id="svg_145"/>
      <path class="cls-31" d="m217.9,67.3l9.7,-5.6l9.4,253l-13.6,-6l-5.5,-241.4z" id="svg_144"/>
      <path class="cls-30" d="m199.2,59.8l18.8,7.7l9.5,-5.3l-15.4,-7.3l-13,4.9l0.1,0z" id="svg_143"/>
     </g>
     <g class="cls-2" id="svg_138">
      <path d="m134.5,190.9l-8.3,-120.9l22.4,-9.4l23.2,201.9l-37.3,-71.6z" id="svg_141"/>
      <path d="m146.8,61.6l7.6,-5.1l19.8,222.7l-23.5,-21.1l-3.9,-196.6l0,0.1z" id="svg_140"/>
      <path d="m126.1,70.6l10.2,-11.5l18.8,-2.5l-7.9,8.6l-21.1,5.4z" id="svg_139"/>
     </g>
     <g id="svg_134">
      <path class="cls-27" d="m134.5,190.9l-8.3,-120.9l22.4,-9.4l23.2,201.9l-37.3,-71.6z" id="svg_137"/>
      <path class="cls-31" d="m146.8,61.6l7.6,-5.1l19.8,222.7l-23.5,-21.1l-3.9,-196.6l0,0.1z" id="svg_136"/>
      <path class="cls-30" d="m126.1,70.6l10.2,-11.5l18.8,-2.5l-7.9,8.6l-21.1,5.4z" id="svg_135"/>
     </g>
     <g class="cls-3" id="svg_130">
      <path d="m133.4,220.4l-44.3,-112.8l18.6,-15.7l82.8,185.6l-57.1,-57.1z" data-name="s" id="svg_133"/>
      <path d="m106.3,93.3l5.7,-7.1l85.9,206.5l-28.7,-13l-62.8,-186.3l-0.1,-0.1z" data-name="t" id="svg_132"/>
      <path d="m90.5,106.3l5,-12.1l15.1,-6.1l-3,13.1l-17.2,5l0.1,0.1z" id="svg_131"/>
     </g>
     <g id="svg_126">
      <path class="cls-27" d="m133.4,220.4l-44.3,-112.8l18.6,-15.7l82.8,185.6l-57.1,-57.1z" data-name="u" id="svg_129"/>
      <path class="cls-31" d="m106.3,93.3l5.7,-7.1l85.9,206.5l-28.7,-13l-62.8,-186.3l-0.1,-0.1z" data-name="v" id="svg_128"/>
      <path class="cls-30" d="m90.5,106.3l5,-12.1l15.1,-6.1l-3,13.1l-17.2,5l0.1,0.1z" id="svg_127"/>
     </g>
     <g class="cls-8" id="svg_122">
      <path d="m283.5,49.3l25.9,229.5l14.6,-3l-25.7,-222l-14.8,-4.6l0,0.1z" id="svg_125"/>
      <path d="m297.8,54.4l14,-6.5l25.3,227.5l-13.6,1.9l-25.7,-223l0,0.1z" id="svg_124"/>
      <path d="m283.5,49.8l15.3,4.6l13.5,-5.9l-16.2,-2.1l-12.5,3.4l-0.1,0z" id="svg_123"/>
     </g>
     <g id="svg_118">
      <path class="cls-27" d="m283.5,49.3l25.9,229.5l14.6,-3l-25.7,-222l-14.8,-4.6l0,0.1z" id="svg_121"/>
      <path class="cls-31" d="m297.8,54.4l14,-6.5l25.3,227.5l-13.6,1.9l-25.7,-223l0,0.1z" id="svg_120"/>
      <path class="cls-30" d="m283.5,49.8l15.3,4.6l13.5,-5.9l-16.2,-2.1l-12.5,3.4l-0.1,0z" id="svg_119"/>
     </g>
     <g class="cls-18" id="svg_114">
      <path d="m336.3,66.4l-19.7,4.5l5.6,205.5l20.7,-14.1l-6.6,-195.9z" id="svg_117"/>
      <path d="m316.6,70.4l-11.1,-4.5l7.1,218.6l10.1,-5.6l-6.1,-208.5z" id="svg_116"/>
      <path d="m305,66.7l18.2,-5.8l13.9,6.3l-19.9,3.8l-12.1,-4.3l-0.1,0z" id="svg_115"/>
     </g>
     <g id="svg_110">
      <path class="cls-27" d="m336.3,66.4l-19.7,4.5l5.6,205.5l20.7,-14.1l-6.6,-195.9z" id="svg_113"/>
      <path class="cls-31" d="m316.6,70.4l-11.1,-4.5l7.1,218.6l10.1,-5.6l-6.1,-208.5z" id="svg_112"/>
      <path class="cls-30" d="m305,66.7l18.2,-5.8l13.9,6.3l-19.9,3.8l-12.1,-4.3l-0.1,0z" id="svg_111"/>
     </g>
     <g class="cls-15" id="svg_106">
      <path d="m375.9,57.9l-29.3,231.7l-20.2,4.5l31.8,-238.3l19.7,-6.1l-2,8.1l0,0.1z" data-name="l" id="svg_109"/>
      <path d="m358.8,55.8l-9.1,-6.6l-34.3,250.9l14.2,-4.6l29.2,-239.7z" data-name="m" id="svg_108"/>
      <path d="m378.2,50.2l-19.5,5.8l-8.9,-6.2l16,-5.8l12.4,6.2z" data-name="n" id="svg_107"/>
     </g>
     <g id="svg_102">
      <path class="cls-27" d="m375.9,57.9l-29.3,231.7l-20.2,4.5l31.8,-238.3l19.7,-6.1l-2,8.1l0,0.1z" data-name="o" id="svg_105"/>
      <path class="cls-31" d="m358.8,55.8l-9.1,-6.6l-34.3,250.9l14.2,-4.6l29.2,-239.7z" data-name="p" id="svg_104"/>
      <path class="cls-30" d="m378.2,50.2l-19.5,5.8l-8.9,-6.2l16,-5.8l12.4,6.2z" data-name="q" id="svg_103"/>
     </g>
     <g class="cls-9" id="svg_98">
      <path d="m332,77.8l17.1,7.9l21.5,173l-23.8,-18.8l-14.9,-162.1l0.1,0z" id="svg_101"/>
      <path d="m349.1,85.7l10.3,-5.9l20.6,188.1l-13.3,-13.2l-17.6,-169z" id="svg_100"/>
      <path d="m331.7,78.6l17.8,7.1l10.6,-5.9l-8.2,-7.9l-10.5,-1.6l-9.7,8.3z" id="svg_99"/>
     </g>
     <g id="svg_94">
      <path class="cls-31" d="m332,77.8l17.1,7.9l21.5,173l-23.8,-18.8l-14.9,-162.1l0.1,0z" id="svg_97"/>
      <path class="cls-27" d="m349.1,85.7l10.3,-5.9l20.6,188.1l-13.3,-13.2l-17.6,-169z" id="svg_96"/>
      <path class="cls-30" d="m331.7,78.6l17.8,7.1l10.6,-5.9l-8.2,-7.9l-10.5,-1.6l-9.7,8.3z" id="svg_95"/>
     </g>
     <g class="cls-13" id="svg_90">
      <path d="m388.8,214.5l10.8,-135l-22.2,-11l-27.3,225.3l38.8,-79.3l-0.1,0z" data-name="s" id="svg_93"/>
      <path d="m379.2,69.5l-7.5,-5.9l-24.4,248.7l23.9,-23l8,-219.8z" data-name="t" id="svg_92"/>
      <path d="m398,78.5l-8.2,-11.4l-16.2,-1.7l6.6,13.1l17.9,0l-0.1,0z" data-name="x" id="svg_91"/>
     </g>
     <g id="svg_86">
      <path class="cls-27" d="m388.8,214.5l10.8,-135l-22.2,-11l-27.3,225.3l38.8,-79.3l-0.1,0z" data-name="u" id="svg_89"/>
      <path class="cls-31" d="m379.2,69.5l-7.5,-5.9l-24.4,248.7l23.9,-23l8,-219.8z" data-name="v" id="svg_88"/>
      <path class="cls-30" d="m398,78.5l-8.2,-11.4l-16.2,-1.7l6.6,13.1l17.9,0l-0.1,0z" data-name="y" id="svg_87"/>
     </g>
     <g class="cls-4" id="svg_82">
      <path d="m395.5,219.6l44.3,-112.8l-18.6,-15.7l-82.8,185.6l57.1,-57.1z" data-name="s" id="svg_85"/>
      <path d="m422.7,92.6l-5.7,-7.1l-85.9,206.5l28.7,-13l62.8,-186.3l0.1,-0.1z" data-name="t" id="svg_84"/>
      <path d="m438.5,105.6l-5,-12.1l-15.1,-6.1l3,13.1l17.2,5l-0.1,0.1z" data-name="x" id="svg_83"/>
     </g>
     <g id="svg_78">
      <path class="cls-27" d="m395.5,219.6l44.3,-112.8l-18.6,-15.7l-82.8,185.6l57.1,-57.1z" data-name="u" id="svg_81"/>
      <path class="cls-31" d="m422.7,92.6l-5.7,-7.1l-85.9,206.5l28.7,-13l62.8,-186.3l0.1,-0.1z" data-name="v" id="svg_80"/>
      <path class="cls-30" d="m438.5,105.6l-5,-12.1l-15.1,-6.1l3,13.1l17.2,5l-0.1,0.1z" data-name="y" id="svg_79"/>
     </g>
     <g class="cls-10" id="svg_74">
      <path d="m382.4,296l0.9,-135.5l-23,-9.4l-10.8,226.7l32.9,-81.9l0,0.1z" data-name="s" id="svg_77"/>
      <path d="m362.2,152.2l-7.9,-5.3l-6.2,249.8l22.2,-24.7l-8.1,-219.8z" data-name="t" id="svg_76"/>
      <path d="m381.6,159.8l-9.1,-10.8l-16.3,-0.6l7.5,12.6l17.8,-1.3l0.1,0.1z" data-name="x" id="svg_75"/>
     </g>
     <g id="svg_70">
      <path class="cls-27" d="m382.4,296l0.9,-135.5l-23,-9.4l-10.8,226.7l32.9,-81.9l0,0.1z" data-name="u" id="svg_73"/>
      <path class="cls-31" d="m362.2,152.2l-7.9,-5.3l-6.2,249.8l22.2,-24.7l-8.1,-219.8z" data-name="v" id="svg_72"/>
      <path class="cls-30" d="m381.6,159.8l-9.1,-10.8l-16.3,-0.6l7.5,12.6l17.8,-1.3l0.1,0.1z" data-name="y" id="svg_71"/>
     </g>
     <g class="cls-17" id="svg_66">
      <path d="m174,62.9l29.3,231.7l20.2,4.5l-31.8,-238.3l-19.7,-6.1l2,8.1l0,0.1z" data-name="l" id="svg_69"/>
      <path d="m191.2,60.8l9.1,-6.6l34.3,250.9l-14.2,-4.6l-29.2,-239.7z" data-name="m" id="svg_68"/>
      <path d="m171.8,55.2l19.5,5.8l8.9,-6.2l-16,-5.8l-12.4,6.2z" data-name="n" id="svg_67"/>
     </g>
     <g id="svg_62">
      <path class="cls-27" d="m174,62.9l29.3,231.7l20.2,4.5l-31.8,-238.3l-19.7,-6.1l2,8.1l0,0.1z" data-name="o" id="svg_65"/>
      <path class="cls-31" d="m191.2,60.8l9.1,-6.6l34.3,250.9l-14.2,-4.6l-29.2,-239.7z" data-name="p" id="svg_64"/>
      <path class="cls-30" d="m171.8,55.2l19.5,5.8l8.9,-6.2l-16,-5.8l-12.4,6.2z" data-name="q" id="svg_63"/>
     </g>
     <g class="cls-11" id="svg_58">
      <path d="m161.9,76.8l16.4,9.3l7.1,174.2l-22.1,-20.7l-1.4,-162.8z" data-name="D" id="svg_61"/>
      <path d="m178.3,86.1l10.7,-5l5,189.2l-12.1,-14.3l-3.6,-169.9z" data-name="E" id="svg_60"/>
      <path d="m161.5,77.6l17.1,8.6l11.1,-5l-7.5,-8.6l-10.4,-2.5l-10.4,7.5l0.1,0z" data-name="F" id="svg_59"/>
     </g>
     <g id="svg_54">
      <path class="cls-31" d="m161.9,76.8l16.4,9.3l7.1,174.2l-22.1,-20.7l-1.4,-162.8z" data-name="G" id="svg_57"/>
      <path class="cls-27" d="m178.3,86.1l10.7,-5l5,189.2l-12.1,-14.3l-3.6,-169.9z" data-name="H" id="svg_56"/>
      <path class="cls-30" d="m161.5,77.6l17.1,8.6l11.1,-5l-7.5,-8.6l-10.4,-2.5l-10.4,7.5l0.1,0z" data-name="I" id="svg_55"/>
     </g>
     <g class="cls-7" id="svg_50">
      <path d="m168.4,241.1l-44.3,-112.8l18.6,-15.7l82.8,185.6l-57.1,-57.1z" data-name="s" id="svg_53"/>
      <path d="m141.2,114l5.7,-7.1l85.9,206.5l-28.7,-13l-62.8,-186.3l-0.1,-0.1z" data-name="t" id="svg_52"/>
      <path d="m125.4,127l5,-12.1l15.1,-6.1l-3,13.1l-17.2,5l0.1,0.1z" data-name="x" id="svg_51"/>
     </g>
     <g class="cls-16" id="svg_46">
      <path d="m214,168.6l18.9,7.1l13.4,150l-26.7,-9.4l-5.5,-147.7l-0.1,0z" id="svg_49"/>
      <path d="m232.8,174.9l11,-3.9l14.9,153.2l-12.6,3.1l-13.4,-152.4l0.1,0z" id="svg_48"/>
      <path d="m214.1,168.7l18.3,7.5l11.9,-5.8l-15.8,-5.8l-14.4,4.2l0,-0.1z" id="svg_47"/>
     </g>
     <g id="svg_42">
      <path class="cls-27" d="m214,168.6l18.9,7.1l13.4,150l-26.7,-9.4l-5.5,-147.7l-0.1,0z" id="svg_45"/>
      <path class="cls-31" d="m232.8,174.9l11,-3.9l14.9,153.2l-12.6,3.1l-13.4,-152.4l0.1,0z" id="svg_44"/>
      <path class="cls-30" d="m214.1,168.7l18.3,7.5l11.9,-5.8l-15.8,-5.8l-14.4,4.2l0,-0.1z" id="svg_43"/>
     </g>
     <g id="svg_38">
      <path class="cls-27" d="m168.4,241.1l-44.3,-112.8l18.6,-15.7l82.8,185.6l-57.1,-57.1z" data-name="u" id="svg_41"/>
      <path class="cls-31" d="m141.2,114l5.7,-7.1l85.9,206.5l-28.7,-13l-62.8,-186.3l-0.1,-0.1z" data-name="v" id="svg_40"/>
      <path class="cls-30" d="m125.4,127l5,-12.1l15.1,-6.1l-3,13.1l-17.2,5l0.1,0.1z" data-name="y" id="svg_39"/>
     </g>
     <g class="cls-21" id="svg_34">
      <path d="m275.3,108.9l0.8,187.7l16.5,-3.1l-3.9,-180.6l-13.4,-3.9l0,-0.1z" id="svg_37"/>
      <path d="m288.2,112.4l9.5,-4.1l4.6,175.7l-9.7,9.8l-4.4,-181.4z" id="svg_36"/>
      <path d="m275.2,108.4l13.3,4.4l10,-4.4l-8.9,-6.1l-14.4,6.1z" id="svg_35"/>
     </g>
     <g id="svg_30">
      <path class="cls-31" d="m275.3,108.9l0.8,187.7l16.5,-3.1l-3.9,-180.6l-13.4,-3.9l0,-0.1z" id="svg_33"/>
      <path class="cls-27" d="m288.2,112.4l9.5,-4.1l4.6,175.7l-9.7,9.8l-4.4,-181.4z" id="svg_32"/>
      <path class="cls-30" d="m275.2,108.4l13.3,4.4l10,-4.4l-8.9,-6.1l-14.4,6.1z" id="svg_31"/>
     </g>
     <g class="cls-20" id="svg_26">
      <path d="m321.9,283.4l13.6,-134.8l-22,-11.5l-31.9,224.7l40.4,-78.5l-0.1,0.1z" data-name="s" id="svg_29"/>
      <path d="m315.2,138.2l-7.4,-6l-29.5,248.2l24.4,-22.5l12.5,-219.6l0,-0.1z" data-name="t" id="svg_28"/>
      <path d="m333.9,147.6l-8,-11.6l-16.2,-2.1l6.3,13.3l17.9,0.4z" data-name="x" id="svg_27"/>
     </g>
     <g class="cls-19" id="svg_22">
      <path d="m270.1,173.6l12.3,-4.4l-14.8,265.2l-15.1,2.6l17.6,-263.3l0,-0.1z" data-name="e" id="svg_25"/>
      <path d="m251.4,170.6l18.7,2.6l-15.4,264.1l-16.2,-20l12.9,-246.6l0,-0.1z" data-name="f" id="svg_24"/>
      <path d="m251.3,170.7l19.2,2.9l12.3,-4.4l-16.7,-2.1l-14.8,3.6z" data-name="g" id="svg_23"/>
     </g>
     <g id="svg_18">
      <path class="cls-31" d="m270.1,173.6l12.3,-4.4l-14.8,265.2l-15.1,2.6l17.6,-263.3l0,-0.1z" data-name="h" id="svg_21"/>
      <path class="cls-27" d="m251.4,170.6l18.7,2.6l-15.4,264.1l-16.2,-20l12.9,-246.6l0,-0.1z" data-name="i" id="svg_20"/>
      <path class="cls-30" d="m251.3,170.7l19.2,2.9l12.3,-4.4l-16.7,-2.1l-14.8,3.6z" data-name="j" id="svg_19"/>
     </g>
     <g id="svg_14">
      <path class="cls-27" d="m321.9,283.4l13.6,-134.8l-22,-11.5l-31.9,224.7l40.4,-78.5l-0.1,0.1z" data-name="u" id="svg_17"/>
      <path class="cls-31" d="m315.2,138.2l-7.4,-6l-29.5,248.2l24.4,-22.5l12.5,-219.6l0,-0.1z" data-name="v" id="svg_16"/>
      <path class="cls-30" d="m333.9,147.6l-8,-11.6l-16.2,-2.1l6.3,13.3l17.9,0.4z" data-name="y" id="svg_15"/>
     </g>
     <path class="cls-22" d="m398.2,167.8s-17.8,2.5 -19.7,8.2c-8.2,23.7 -18.8,49 -37.1,66.7c-22.9,22.2 -51.1,39.3 -85.2,43.6c-33.5,4.3 -69.4,-18.8 -88.1,-49.9c-9.3,-15.3 -8.6,-34.2 -16.8,-49.9c-3,-5.7 -26.5,-12.7 -26.5,-12.7l7.8,54.3l-5,-37s14.2,3.4 17.2,9.1c8.2,15.7 10.4,38.9 23.2,53.5c24,27.3 49.9,38.7 79.5,39.9c33.5,1.3 67.6,-16.1 93.1,-37.8c18.5,-15.8 29.6,-38.7 37.8,-62.5c1.8,-5.2 16.1,-7.6 18.7,-8l1,-17.5l0,0l0.1,0z" id="svg_13"/>
     <path class="cls-28" d="m97.7,156.5l5.7,31.8l25.7,10.7l-4.3,-25l-27.1,-17.5z" id="svg_12"/>
     <path class="cls-26" d="m130.7,194l33.8,271l-18.7,-14.5l-45.4,-277.6l30.3,21.2l0,-0.1z" id="svg_11"/>
     <path class="cls-24" d="m397.9,167.4l-0.8,18.2l23.7,-13.6l2,-15.4l-25,10.9l0.1,-0.1z" id="svg_10"/>
     <path class="cls-25" d="m164,463.7s64.9,-15.2 97.9,-15.3c34.7,-0.1 103,15.3 103,15.3l18.2,-22.2l15.1,-256.4s-17.8,2.5 -19.8,8.2c-8.2,23.7 -19.3,46.7 -37.8,62.5c-25.5,21.7 -59.6,39.1 -93.1,37.8c-29.6,-1.2 -55.6,-12.6 -79.6,-39.8c-12.8,-14.6 -15,-37.8 -23.2,-53.5c-3,-5.7 -17.2,-9.1 -17.2,-9.1l36.3,272.6l0.2,-0.1z" id="svg_9"/>
     <path class="cls-1" d="m383.2,441.5l37.4,-269.6l-23.2,13.4l-14.1,256.2l-0.1,0z" id="svg_8"/>
     <path class="cls-23" d="m362.8,457.6c-8.8,-2 -67.2,-14.8 -100.9,-14.7c-29.9,0.1 -79.4,11 -93.3,14.1l-34.4,-257.9c3,1.4 5.7,3.5 5.7,3.6c7.4,14.1 9.4,38.1 24,54.6c24.8,28.2 52.6,40.5 83.5,41.7c35.5,1.4 70.6,-16.8 96.8,-39.1c19.7,-16.8 31.1,-40.7 39.4,-64.9c-0.3,0.9 0,0.1 1.3,-0.6c1.4,-0.7 3.5,-1.5 5.6,-2.1c0.7,-0.2 1.1,-0.3 1.8,-0.4l-14.6,247.5l-14.9,18.3l0,0l0,-0.1z" id="svg_7"/>
    </g>
    <path class="cls-27" d="m301.5,313.8c12.9,0 23.3,54.3 23.3,121.4l18.8,0c0,-72.2 -18.9,-130.6 -42.1,-130.6s-25,17.5 -32.7,45c-7.7,-27.5 -19.4,-45 -32.6,-45c-23.2,0 -42.1,58.4 -42.1,130.6l18.8,0c0,-67.1 10.3,-121.3 23.2,-121.3s23.3,50.2 23.3,112l18.7,0c0,-61.9 10.5,-112 23.4,-112" id="svg_5"/>
   </g>
  </g>
 </g>
</svg>