<svg width="1000" height="400" xmlns="http://www.w3.org/2000/svg" xmlns:svg="http://www.w3.org/2000/svg" version="1.1">
    <defs id="defs3807">
    <filter color-interpolation-filters="sRGB" height="3.26" id="filter4696" width="1.6" x="-0.3" y="-1.13">
    <feGaussianBlur id="feGaussianBlur4698" stdDeviation="12.71"/>
    </filter>
    </defs>
    <metadata id="metadata3810">image/svg+xml</metadata>
    <g class="layer">
    <title>Layer 1</title>
    <g id="layer1" transform="translate(16.3926 29.7068) scale(1 1.10875) translate(-16.3926 -29.7068) translate(15.6489 29.7068) matrix(3.52899 0 0 0.968355 -924.823 -478.336)">
    <g id="g4700">
        <rect fill="#755033" fill-rule="evenodd" height="52.55" id="rect192" width="11" x="447.5" y="502.4"/>
        <path d="m448,513.4l-0.2,41.9l-4.6,-5.7l0,-36.2l4.8,0z" fill="#3b281a" fill-rule="evenodd" id="polygon196"/>
        <rect fill="#755033" fill-rule="evenodd" height="52.55" id="rect216" width="10.35" x="291.4" y="502.4"/>
        <path d="m305.9,549.6l-4.4,5.7l-0.1,-41.9l4.5,0l0,36.2z" fill="#3b281a" fill-rule="evenodd" id="polygon220"/>
        <path d="m264.1,520.6c0.6,-1.3 1.6,-2.8 3.1,-4.4l25.7,-21.2l163.4,0.3l25.9,21.4c1,1.2 1.7,2.3 2.2,3.3l0.3,0.6l-220.6,0z" fill="#dc9961" fill-rule="evenodd" id="path236"/>
        <path d="m263.7,521.3c0.1,-0.2 0.2,-0.5 0.4,-0.7c0,-0.1 0.2,-0.5 0.6,-1.1l219.4,0l0.9,1.8l-221.3,0z" fill="#ffb071" fill-rule="evenodd" id="path240"/>
        <path d="m264.1,520.6l0.1,-0.3l220.4,0c0.7,1.8 1.5,4.3 2.2,7.8l0,50l-12.3,0l0,-45.4c-41.5,0.1 -74.3,0.1 -98.5,0c-30.1,-0.2 -63.8,-0.2 -101,-0.1l0,45.8l-12.3,0l0,-45.7l-0.1,0c-0.1,-1.9 0,-3.6 0.1,-5.3l0.1,-1.1l0,-0.1l0.1,-0.9l0,-0.2l0.3,-2l0,-0.1c0.3,-1 0.5,-1.8 0.9,-2.4z" fill="#aa754b" fill-rule="evenodd" id="path256"/>
        <g id="g3895">
        <path d="m280.1,572l-5.2,6.2l-0.1,-46.4l5.3,0l0,40.2z" fill="#6e4c32" fill-rule="evenodd" id="polygon260"/>
        <path d="m274.9,578.2l0,-8.2l5.1,-5.1l0,7.4l-5.1,5.9z" fill="#573c26" fill-rule="evenodd" id="polygon264"/>
        <path d="m274.8,532.5l0.2,19.6c0,1.6 -0.2,6.1 -0.5,13.5l0.4,11.5c-0.9,-7 -1.4,-11.1 -1.4,-12.3c0,-0.1 0.1,-2.3 0.4,-6.4c0.3,-3.8 0.4,-6.5 0.3,-8.1c-0.1,-1.7 0,-5.1 0.2,-10.4l0.4,-7.4z" fill="#d6945f" fill-rule="evenodd" id="path266"/>
        </g>
        <g id="use3900" transform="matrix(-1,0,0,1,749.3,0)">
        <path d="m280.1,572l-5.2,6.2l-0.1,-46.4l5.3,0l0,40.2z" fill="#6e4c32" fill-rule="evenodd" id="path3904"/>
        <path d="m274.9,578.2l0,-8.2l5.1,-5.1l0,7.4l-5.1,5.9z" fill="#573c26" fill-rule="evenodd" id="path3906"/>
        <path d="m274.8,532.5l0.2,19.6c0,1.6 -0.2,6.1 -0.5,13.5l0.4,11.5c-0.9,-7 -1.4,-11.1 -1.4,-12.3c0,-0.1 0.1,-2.3 0.4,-6.4c0.3,-3.8 0.4,-6.5 0.3,-8.1c-0.1,-1.7 0,-5.1 0.2,-10.4l0.4,-7.4z" fill="#d6945f" fill-rule="evenodd" id="path3908"/>
        </g>
        <rect fill="#000000" filter="url(#filter4696)" height="27" id="rect3910" opacity="0.14" ry="13.5" transform="matrix(0.7371,0,0,0.7371,102.7,137.1)" width="101" x="350.4" y="497.7"/>
    </g>
    </g>
    </g>
</svg>