<svg viewBox="4 -10 60 130" xmlns="http://www.w3.org/2000/svg" xmlns:svg="http://www.w3.org/2000/svg" preserveAspectRatio="xMidYMid meet" version="1.0">
 <metadata id="metadata11720">Created by potrace 1.15, written by Peter Selinger 2001-2017image/svg+xml</metadata>
 <g class="layer">
  <title>Layer 1</title>
  <g id="g12301" transform="translate(-0.301293 -0.109966) scale(1.18095 1.21693) translate(0.301293 0.109966) translate(-0.496679 -0.303308) matrix(0.343822 0 0 0.243661 -38.0003 -2.49325)">
   <path d="m177.21,69.37l0.74,10.03l-2.97,7.8l7.8,1.86l8.91,3.34l-0.74,-2.6l-0.74,-0.74l-4.83,-4.46l-1.12,-15.23l-3.71,0l0,0l-3.34,0z" fill="#71acb0" id="path12287" stroke-width="0.75px"/>
   <path d="m168.29,68.25l-7.06,2.97l-7.43,0.75l-2.6,1.85l4.83,15.98l0,1.11l-10.03,8.18l-6.69,8.91l11.89,-0.37l50.15,0l-6.31,-12.26l-4.46,-3.34l-15.6,-5.2l-2.23,-0.38l-1.12,-5.94l-0.74,-8.17l-2.6,-4.09z" fill="#d08855" id="path12285" stroke-width="0.75px"/>
   <path d="m151.2,15.13l-8.54,14.11l114.42,72.07l-0.37,5.95l-95.85,0l-18.95,0.74l-27.12,-0.37l0.37,13.37l15.24,2.98l1.85,17.83l3.72,86.19l6.69,136.71l1.48,4.08l4.83,2.98l10.03,0.37l2.6,10.4l0.75,0.37l31.2,0l5.57,-4.09l0.38,-5.2l52.75,-3.34l13,2.6l10.03,-5.94l5.94,-5.95l3.72,-12.63l-1.86,-13.37l-13.74,-12.26l-11.89,-2.6l-4.46,1.11l0.37,-36.78l2.97,-107.36l1.49,-45.32l10.4,-13l3.35,-28.24l-15.24,-11.52l-37.15,-22.29l-8.54,-3.34l-16.72,-11.89l-30.83,-20.8l-11.89,-5.57z" fill="#4b9e58" id="path12283" stroke-width="0.75px"/>
   <path d="m193.18,359.88l-9.29,1.48l-21.17,5.21l-2.98,1.48l1.86,14.86l0.75,0.74l31.94,-0.74l2.23,-5.94l-3.34,-17.09z" fill="#498452" id="path12289" stroke-width="0.75px"/>
   <ellipse cx="259.68" cy="346.13" fill="#a3b9a7" id="path12277" rx="25.31" ry="26.05" stroke="#000000" stroke-miterlimit="4" stroke-width="2.25"/>
   <g fill="#000000" id="g11726" transform="matrix(0.1,0,0,-0.1,0,400)">
    <path d="m1504,3842c-6,-4 -30,-36 -54,-71l-43,-64l26,-21c58,-46 701,-453 1034,-655c72,-44 92,-61 93,-78c0,-20 -5,-23 -42,-23c-65,0 -85,9 -99,42c-10,25 -16,29 -38,23c-56,-14 -65,-11 -83,26c-15,32 -20,35 -48,31c-21,-3 -35,-13 -46,-33c-11,-22 -22,-29 -45,-29c-29,0 -30,1 -24,34c6,30 3,37 -23,56c-17,13 -33,33 -36,46c-4,13 -13,24 -22,24c-30,0 -86,-33 -97,-57c-12,-27 -30,-26 -35,3c-2,10 -8,23 -12,28c-5,5 -6,0 -3,-12l5,-21l-51,20c-28,10 -61,19 -72,19c-16,0 -19,4 -14,18c4,9 9,45 12,80c5,57 8,62 29,62c23,0 24,-3 25,-77l2,-78l8,84c5,46 7,86 5,88c-2,2 -23,5 -47,6l-44,2l-3,-70c-4,-93 -17,-103 -25,-19c-7,73 -26,104 -62,104c-13,0 -29,-7 -36,-16c-9,-12 -23,-14 -50,-10c-27,4 -43,1 -60,-12c-29,-25 -28,-61 7,-136c26,-58 27,-60 8,-70c-10,-6 -43,-35 -73,-65l-54,-54l-21,26c-12,14 -29,37 -39,51l-18,26l-35,-26c-18,-15 -34,-30 -34,-34c0,-5 11,-22 25,-38c14,-17 25,-33 25,-36c0,-3 -40,-6 -90,-6l-90,0l0,-80c0,-63 3,-80 14,-80c8,0 35,-27 60,-59c25,-33 57,-67 71,-78l25,-18l15,-285c8,-157 24,-517 35,-800c35,-907 51,-1182 66,-1212c19,-37 43,-48 107,-48l55,0l7,-62l7,-61l181,6l181,6l28,31c30,34 35,54 16,67c-7,4 86,10 207,13l220,6l-216,2l-216,2l-13,61c-10,45 -18,63 -32,67c-10,2 -18,8 -18,13c0,12 -37,11 -45,-1c-3,-5 -16,-10 -29,-10c-12,0 -81,-17 -152,-39c-116,-35 -129,-41 -126,-60c3,-19 -1,-21 -48,-21c-41,0 -56,5 -75,25c-14,13 -25,32 -25,42c0,44 -32,676 -55,1078c-14,242 -31,586 -40,765c-8,179 -17,380 -21,448l-6,122l160,0l160,0l7,-81c5,-57 12,-82 22,-86c25,-10 34,19 29,95l-4,72l204,0l204,0l2,-57c0,-32 0,-67 -1,-77c-1,-20 14,-36 37,-36c9,0 12,24 12,85l0,85l205,0l205,0l-5,-112c-9,-178 -24,-868 -31,-1389l-7,-476l-44,-23c-162,-86 -193,-320 -57,-440c21,-18 38,-38 36,-42c-1,-5 3,-8 10,-6c7,1 37,-4 66,-11c99,-25 191,4 255,80c38,44 68,116 66,158c-1,16 -4,9 -10,-19c-29,-149 -207,-234 -352,-167c-153,70 -187,286 -61,396c51,46 135,67 204,53c108,-23 191,-99 209,-192c6,-28 9,-35 10,-19c2,42 -28,114 -65,157c-48,57 -110,85 -190,85l-64,0l0,41c0,22 7,205 15,406c8,201 19,536 25,745c13,505 18,600 31,629c6,13 19,53 28,87c12,48 21,65 36,67c36,7 53,32 64,95c15,92 23,200 14,213c-28,41 -573,387 -595,379c-8,-3 -40,17 -73,45c-33,28 -91,69 -130,92c-38,23 -145,88 -237,145c-163,101 -182,110 -204,95zm163,-86c259,-166 356,-236 479,-345c71,-63 186,-161 256,-220c70,-58 125,-107 124,-109c-2,-1 -102,62 -222,141c-121,79 -318,204 -439,277c-121,73 -261,159 -312,192l-92,60l16,26c28,46 46,63 60,58c7,-3 66,-39 130,-80zm688,-446c22,-15 103,-64 179,-109c77,-44 133,-81 124,-81c-8,0 -34,-27 -58,-61c-27,-39 -46,-57 -52,-51c-6,6 -6,18 2,33c12,21 7,28 -71,103c-46,45 -129,123 -184,174c-99,92 -99,92 -40,56c33,-21 78,-49 100,-64zm-655,-36c6,-14 10,-56 10,-93l0,-69l58,-7c66,-8 175,-53 168,-69c-3,-6 -10,-30 -17,-53l-11,-43l-108,0c-59,0 -169,-3 -245,-7l-137,-6l15,29c15,30 100,114 114,114c5,0 14,4 21,9c10,6 7,24 -18,85c-24,62 -28,81 -19,98c9,17 18,19 49,15c25,-3 46,0 57,9c28,21 53,17 63,-12zm950,-419l0,-60l-745,0l-745,0l0,61l0,61l745,-1l745,-1l0,-60zm-736,-2487c3,-13 9,-58 13,-100l6,-78l-59,0c-32,0 -102,-3 -155,-6l-95,-7l-12,65c-7,36 -12,70 -12,76c0,5 52,19 115,31c63,12 125,26 137,31c38,15 55,11 62,-12z" id="path11722"/>
    <path d="m2535,692c-47,-22 -92,-72 -101,-110c-3,-15 -8,-33 -10,-40c-10,-32 19,-103 57,-136c62,-57 149,-60 210,-9c30,26 59,78 59,105c-1,7 -7,-1 -14,-18c-28,-64 -110,-102 -180,-83c-110,30 -148,173 -65,243c74,62 204,32 246,-58l14,-31l-6,30c-19,94 -123,147 -210,107z" id="path11724"/>
   </g>
   <path d="m200.3,372l56.41,-1.72l-1.86,1.86l-30.46,0.37l-28.24,2.23l4.15,-2.74z" fill="#000000" id="path12279" stroke="#000000" stroke-width="0.75px"/>
   <path d="m183.15,70.85l1.11,14.12l6.69,4.83l1.49,4.83l2.97,0.37l-4.83,-6.69l-3.72,-3.71l-2.22,-13.75l-1.49,0z" fill="#000000" id="path12281" stroke="#000000" stroke-width="0.75px"/>
  </g>
 </g>
</svg>