<svg width="62.72453" height="64.15593" xmlns="http://www.w3.org/2000/svg" xmlns:svg="http://www.w3.org/2000/svg" xmlns:xlink="http://www.w3.org/1999/xlink" version="1.1">
 <title id="title6059">Hamburger bun with sesame</title>
 <defs id="defs2">
  <linearGradient id="linearGradient6055">
   <stop id="stop6051" offset="0" stop-color="#5f3700" stop-opacity="0.06"/>
   <stop id="stop6053" offset="1" stop-color="#bc610c"/>
  </linearGradient>
  <filter color-interpolation-filters="sRGB" height="1" id="filter6039" width="1" x="0" y="0">
   <feGaussianBlur id="feGaussianBlur6041" stdDeviation="0.06"/>
  </filter>
  <radialGradient cx="69.78" cy="96.92" fx="69.78" fy="96.92" gradientTransform="matrix(1.745485,0.1945821,-0.170604,1.530391,-34.67197,-70.94491)" gradientUnits="userSpaceOnUse" id="radialGradient6057" r="31.36" xlink:href="#linearGradient6055"/>
 </defs>
 <metadata id="metadata5">image/svg+xmlHamburger bun with sesameKrzysztof &quot;Niszczyciel Kosmosów&quot; Blachnickibun;roll;fast food;junk food;bread;hamburgerHamburger bun (roll) with seasame. Both the 3D effect (additional overlay object) and sesame (single path) can be easy. It can be used as the center of the flower, as that&#x27;s the original meaning.</metadata>
 <g class="layer">
  <title>Layer 1</title>
  <path clip-rule="nonzero" d="m37.64,21.46c-0.88,7.4 -8.3,14.15 -17.81,14.15c-9.51,0 -16.11,-5.93 -16.63,-14.15c-0.52,-8.25 5.95,-13.23 17.22,-13.46c9.51,-0.19 18.18,5.42 17.22,13.46z" display="inline" enable-background="accumulate" fill="#ffca53" fill-rule="nonzero" id="insideFlower" stroke-dashoffset="0" stroke-linecap="round" stroke-linejoin="round" stroke-miterlimit="4" stroke-width="0.5"/>
  <g fill="url(#radialGradient6057)" id="layer3" opacity="0.84" transform="translate(-0.15873 0) translate(-0.15873 0) translate(-0.15873 0) translate(-0.15873 0) translate(-0.15873 0) translate(-0.15873 0) translate(-0.15873 0) translate(-0.15873 0) translate(-0.15873 0) translate(-0.15873 0) translate(-0.15873 0) translate(-0.15873 0) translate(-0.15873 0) translate(-0.15873 0) translate(-0.15873 0) translate(-0.15873 0) translate(-0.15873 0) translate(-0.15873 0) translate(-0.15873 0) translate(-0.15873 0) translate(-0.15873 0) translate(-0.15873 0) translate(-0.15873 0) translate(-0.15873 0) translate(-0.15873 0) translate(-0.15873 0) translate(-0.15873 0) translate(-0.15873 0) translate(-0.15873 0) translate(-0.15873 0) translate(-0.15873 0) translate(-0.15873 0) translate(-0.15873 0) translate(-0.15873 0) translate(-0.15873 0) translate(-0.15873 0) translate(-0.15873 0) translate(-0.15873 0) translate(-0.15873 0) translate(-0.15873 0) translate(-0.15873 0) translate(-0.15873 0) translate(-0.15873 0) translate(-0.15873 0) translate(-0.15873 0) translate(-0.15873 0) translate(-0.15873 0) translate(-0.15873 0) translate(-0.15873 0) translate(-0.15873 0) translate(-0.15873 0) translate(-0.15873 0) translate(-0.15873 0) translate(-0.15873 0) translate(-0.15873 0) translate(-0.15873 0) translate(-0.15873 0) translate(-0.15873 0) translate(-0.15873 0) translate(0 1) translate(0 1) translate(0 1) translate(0 1) translate(0 1) translate(0 1) translate(0 1) translate(0 1) translate(0.181818 0) matrix(0.547805 0 0 0.433158 -9.42447 -24.4486)">
   <path clip-rule="nonzero" d="m102.36,87.73c-1.59,17.19 -15.07,32.87 -32.34,32.87c-17.27,0 -29.26,-13.77 -30.2,-32.87c-0.94,-19.17 10.8,-30.74 31.27,-31.27c17.27,-0.45 33.01,12.58 31.27,31.27z" display="inline" enable-background="accumulate" fill="url(#radialGradient6057)" fill-rule="nonzero" id="path5578" opacity="0.27" stroke-dashoffset="0" stroke-linecap="round" stroke-linejoin="round" stroke-miterlimit="4" stroke-width="0.5"/>
  </g>
  <path clip-rule="nonzero" d="m11.3,13.83c-0.37,0.32 -2.02,0.42 -0.84,0.07c0.27,0.06 0.74,-0.44 0.84,-0.07zm11.01,13.07c-0.51,-0.06 -1.41,-0.45 -0.33,-0.27c0.11,0.06 0.69,0.1 0.33,0.27zm1.21,-5.22c0.11,0.78 -0.68,0.3 0,0zm-14.53,-2.08c0.92,-0.55 0.67,0.39 0,0zm-2.17,2.15c-0.58,0.39 -1.32,0 -0.3,-0.14c0.21,-0.22 0.37,0.08 0.3,0.14zm9.41,2.35c0.48,0.38 0.3,1 -0.09,0.26c-0.09,-0.19 -0.21,-0.19 0.09,-0.26zm2.42,-1.95c0.41,-0.28 1.4,-0.32 0.5,0.04c-0.23,0.04 -0.49,0.3 -0.5,-0.04zm-2.61,5.02c-0.84,0.07 -0.56,-0.58 0,0zm1.45,1.4c0.58,0.12 0.89,0.72 0.1,0.28c-0.28,-0.15 -0.28,-0.09 -0.1,-0.28zm-2.17,-3.32c-0.66,-0.34 -0.43,-0.82 0.09,-0.16c0.2,0.09 -0.05,0.1 -0.09,0.16zm4.39,5.92c0.37,-0.62 0.86,-0.36 0.17,0.09l-0.17,-0.09zm-4.79,-0.39c0.28,0.29 0.43,1.09 0,0.36c0,-0.12 -0.36,-0.4 0,-0.36zm2.89,0.72c-0.29,-0.4 0.09,-0.94 0.18,-0.2c0.17,0.27 -0.03,0.1 -0.18,0.2zm7.81,-2.66c0.18,-0.57 0.58,-0.38 0.14,0.08c-0.05,-0.02 -0.14,-0.02 -0.14,-0.08zm-6.27,-7.88c0.79,-0.16 0.93,0.33 0.09,0.18c-0.28,0.04 0.01,-0.09 -0.09,-0.18zm7.19,3.3c0.63,-0.12 1.25,0.39 0.25,0.22c-0.29,-0.04 -0.34,0.05 -0.25,-0.22zm-4.92,6.93c-0.99,0.51 -0.21,-0.62 0,0zm8.09,-10.98c-0.71,-0.34 -0.07,-0.7 0,0zm0.42,4.25c0.56,-0.36 1.21,-0.1 0.25,0.1c-0.16,0.22 -0.36,-0.07 -0.25,-0.1zm-7.31,-3.83c0.39,0.23 0.78,0.97 0.12,0.36c-0.04,-0.12 -0.49,-0.31 -0.12,-0.36zm2.65,-9.27c0.97,-0.54 0.65,0.45 0,0zm3.17,7.57c-0.36,-0.1 -1.5,-0.45 -0.5,-0.35c0.14,0.07 0.89,0.16 0.5,0.35zm-1.2,3.04c0.89,-0.24 -0.02,0.46 0,0zm0.41,-8.71c0.03,0.37 -0.42,1.48 -0.37,0.55c0.13,-0.14 -0.04,-0.83 0.37,-0.55zm-1.85,5.71c-0.56,0.97 -0.7,-0.12 -0.01,-0.04c-0.05,0.13 0.07,-0.02 0.01,0.04zm1.19,0.68c-1.04,0.54 -0.32,-0.39 0,0zm-4.45,-5.66c0.11,0.37 -0.19,1.14 -0.19,0.33c0.05,-0.09 -0.09,-0.51 0.19,-0.33zm-1.87,-3.74c-1.23,-0.38 0.14,-0.48 0,0zm2.59,2.36c-0.25,-0.64 0.42,-0.81 0.21,-0.07c0.11,0.16 -0.15,0.11 -0.21,0.07zm-12.44,2.47c-0.49,-0.34 -0.24,-1.06 0.1,-0.25c0.14,0.08 0.14,0.24 -0.1,0.25zm6.26,5.76c0.23,0.65 -0.36,0.73 -0.2,0.02l0.2,-0.02zm2.62,-4.04c0.45,-0.18 1.97,-0.27 0.83,0.09c-0.23,-0.05 -1.01,0.37 -0.83,-0.09zm-10.45,-1.53c0.28,0.64 -0.24,0.67 -0.19,0.01c0.05,0 0.15,0.05 0.19,-0.01zm8.23,0.12c-1.03,-0.01 -0.79,-0.55 0.08,-0.19c-0.03,0.05 0.02,0.18 -0.08,0.19zm-8.17,11.11c-0.64,0.14 -1.21,-0.47 -0.19,-0.23c0.18,-0.05 0.39,0.02 0.19,0.23zm4.21,-8.82c0.43,0.54 -0.07,0.84 -0.18,0.14c-0.15,-0.1 0.1,-0.22 0.18,-0.14zm0,6.84c-0.24,-0.54 0.24,-0.77 0.17,-0.07c0.08,0.18 -0.11,0.03 -0.17,0.07zm-6.55,0.11c0.12,-0.93 0.79,-0.15 0,0zm9.53,6.78c-0.39,0.18 -1.67,0.77 -0.76,0.09c0.18,-0.03 0.89,-0.56 0.76,-0.09zm-9.66,-6.61c-0.1,0.92 -0.78,0.16 0,0zm7.16,-2.68c0.63,0.24 0.79,0.86 0.02,0.24c-0.22,-0.02 -0.19,-0.2 -0.02,-0.24zm8.46,-3.26c-0.91,-0.95 0.41,-0.27 0,0zm-8.82,9.05c0.85,0.56 -0.61,0.3 0,0zm3.68,-7.92c-0.25,0.46 -0.92,0.58 -0.26,0.01c0.02,-0.16 0.22,-0.14 0.26,-0.01zm-0.88,-1.84c0.55,0.28 0.75,0.92 0.01,0.28c-0.17,-0.18 -0.28,-0.13 -0.01,-0.28zm8.86,9.05c-0.52,0.34 -1.26,0.13 -0.31,-0.1c0.31,-0.08 0.22,-0.11 0.31,0.1zm1.93,-9.35c0.45,-0.03 1.95,0.04 0.74,0.23c-0.15,-0.01 -1.17,0.08 -0.74,-0.23zm2.67,4.45c0,0.67 -0.53,0.48 -0.16,-0.06c0.05,0.01 0.14,0 0.16,0.06zm-6.1,2.21c0.59,-0.05 1.03,0.49 0.15,0.22c-0.22,0.06 -0.29,-0.12 -0.15,-0.22zm0.06,-5.87c1.04,-0.32 0.59,0.47 0,0zm2.37,-2.34c-0.18,0.53 -0.92,0.7 -0.32,0.06c0.12,-0.13 0.16,-0.25 0.32,-0.06zm3.02,5.67c-0.29,-0.46 0.21,-1.06 0.21,-0.21c0.2,0.33 -0.09,0.15 -0.21,0.21zm-12.81,-6.45c0.44,0.86 -0.51,0.16 0,0zm0.17,4.02c-0.94,-0.45 0.05,-0.52 0.06,-0.06l-0.05,0.03l-0.01,0.03zm3.61,0.04c0.35,-0.52 0.78,-0.43 0.18,0.06c-0.02,0.08 -0.19,-0.01 -0.18,-0.06zm-2.64,-3.25c0.22,-0.61 0.91,-0.54 0.26,0.03c-0.09,0.24 -0.14,-0.03 -0.26,-0.03zm-6.03,-4.03c0.28,0.71 -0.38,0.44 -0.1,-0.03l0.1,0.03zm-1.99,10.97c-1.16,-0.09 -0.29,-0.56 0.07,-0.08l-0.03,0.05l-0.05,0.03l0.01,0zm1.63,-2.42c-0.36,-0.74 0.39,-0.43 0.09,0.01l-0.09,-0.01zm-4.4,-2.12c0.42,0.27 0.33,1.05 -0.03,0.37c-0.07,-0.12 -0.38,-0.45 0.03,-0.37zm14.27,4.98c0.32,-0.27 1.2,-0.27 0.43,0.04c-0.12,-0.05 -0.49,0.32 -0.43,-0.04zm8.16,2.19c-0.13,0.57 -1.02,0.75 -0.35,0.07c0.08,-0.16 0.26,-0.33 0.35,-0.07zm-5.1,2.88c0.16,-0.71 0.66,-0.5 0.14,0.07l-0.14,-0.07zm5.93,-9c1.12,0.17 0.24,0.53 0,0zm-1.08,-3.39c-0.92,-0.78 0.38,-0.51 0.05,0.01c-0.13,-0.09 0,0.06 -0.05,-0.01zm-4.15,-3.03c0.79,0.78 -0.71,0.05 0,0zm-5.48,-0.94c-0.56,-0.16 -1.06,-0.9 -0.17,-0.34c0.18,0.11 0.54,0.16 0.17,0.34zm5.89,9.13c-0.13,0.42 -0.92,0.98 -0.45,0.22c0.2,-0.16 0.14,-0.51 0.45,-0.22zm3.09,-8.77c0.41,0.15 1.48,0.85 0.46,0.49c-0.11,-0.15 -0.93,-0.3 -0.46,-0.49zm-10.26,11.34c-0.77,-0.18 -0.7,-0.77 0.03,-0.22c0.22,0 0.11,0.24 -0.03,0.22zm-6.02,1.2c-0.92,-0.07 -0.33,-0.65 0,0zm-0.64,4.71c1.28,0.01 0.19,0.58 0,0zm-2.45,-0.83c0.42,-0.8 0.47,0.18 0,0zm0.83,-8.48c-0.2,-0.56 0.46,-0.97 0.24,-0.17c0.18,0.26 -0.26,0.13 -0.24,0.17zm4.6,-1.03c-0.06,0.43 -1.15,1.35 -0.57,0.49c0.21,-0.07 0.28,-0.74 0.57,-0.49zm-5.58,-0.67c0.65,-1.07 0.59,0.13 0,0zm11.41,9.32c-0.39,0.28 -1.38,0.44 -0.47,0.01c0.26,-0.04 0.4,-0.31 0.47,-0.01zm-4.91,-15.54c-0.17,-0.75 0.39,-0.74 0.22,-0.02c-0.06,0.01 -0.15,0.07 -0.22,0.02zm-2.88,1.85c0.19,0.36 0.22,1.12 -0.09,0.34c-0.02,-0.08 -0.2,-0.52 0.09,-0.34zm12.31,-0.66c0.89,0.22 0.27,0.53 -0.05,0.06l0.05,-0.06zm-7.27,-0.73c0.19,0.64 -0.46,0.88 -0.24,0.09c-0.11,-0.16 0.2,-0.19 0.24,-0.09zm-5.66,-1.39c-0.58,0.4 -1.04,0.12 -0.18,-0.12c0.19,-0.15 0.09,0.09 0.18,0.12zm5.66,-0.71c-0.37,0.63 -0.37,-0.31 0,0zm-5.97,6.26c0.52,-0.19 2.24,0.26 0.89,0.21c-0.26,-0.1 -1.05,0.13 -0.89,-0.21zm-3.19,0.58c0.51,0.11 1.16,0.77 0.25,0.37c-0.15,-0.12 -0.62,-0.19 -0.25,-0.37z" display="inline" enable-background="accumulate" fill="#faf0d1" fill-rule="nonzero" filter="url(#filter6039)" id="use4957" opacity="0.49" stroke-dashoffset="0" stroke-linecap="round" stroke-linejoin="round" stroke-miterlimit="4" stroke-width="0.16"/>
 </g>
</svg>