<svg width="100" height="100" xmlns="http://www.w3.org/2000/svg" xmlns:svg="http://www.w3.org/2000/svg" xmlns:xlink="http://www.w3.org/1999/xlink" version="1.1">
 <title id="title6059">Hamburger bun with sesame</title>
 <defs id="defs2">
  <linearGradient id="linearGradient6055">
   <stop id="stop6051" offset="0" stop-color="#5f3700" stop-opacity="0.06"/>
   <stop id="stop6053" offset="1" stop-color="#bc610c"/>
  </linearGradient>
  <filter color-interpolation-filters="sRGB" height="1" id="filter6039" width="1" x="0" y="0">
   <feGaussianBlur id="feGaussianBlur6041" stdDeviation="0.06"/>
  </filter>
  <radialGradient cx="69.78" cy="96.92" fx="69.78" fy="96.92" gradientTransform="matrix(1.745485,0.1945821,-0.170604,1.530391,-34.67197,-70.94491)" gradientUnits="userSpaceOnUse" id="radialGradient6057" r="31.36" xlink:href="#linearGradient6055"/>
 </defs>
 <metadata id="metadata5">image/svg+xmlHamburger bun with sesameKrzysztof &quot;Niszczyciel Kosmosów&quot; Blachnickibun;roll;fast food;junk food;bread;hamburgerHamburger bun (roll) with seasame. Both the 3D effect (additional overlay object) and sesame (single path) can be easy. It can be used as the center of the flower, as that&#x27;s the original meaning.</metadata>
 <g class="layer">
  <title>Layer 1</title>
  <path clip-rule="nonzero" d="m80.59,64.28c-1.59,17.2 -15.07,32.88 -32.34,32.88c-17.27,0 -29.26,-13.78 -30.2,-32.88c-0.94,-19.16 10.8,-30.73 31.27,-31.27c17.27,-0.45 33.01,12.59 31.27,31.27z" display="inline" enable-background="accumulate" fill="#ffca53" fill-rule="nonzero" id="insideFlower" stroke-dashoffset="0" stroke-linecap="round" stroke-linejoin="round" stroke-miterlimit="4" stroke-width="0.5"/>
  <g fill="url(#radialGradient6057)" id="layer3" opacity="0.84" transform="translate(0 1) translate(0 1) translate(0 1) translate(0 1) translate(0 1) translate(0 1) translate(0 1) translate(0 1) translate(0 1) translate(0 1) translate(0 1) translate(0 1) translate(0 1) translate(0 1) translate(0 1) translate(-1 0) translate(1 0) translate(1 0) translate(0 1) translate(0 1) translate(0 1) translate(0 1) translate(1 0) translate(1 0) translate(1 0) translate(1 0) translate(1 0) translate(1 0) translate(1 0) translate(1 0) translate(1 0) translate(1 0) translate(1 0) translate(1 0) translate(1 0) translate(1 0) translate(1 0) translate(1 0) translate(1 0) translate(0 1) translate(0 1) translate(0 1) translate(0 1) translate(0 1) translate(0 1) translate(0 1) translate(0 1) translate(0 1) translate(0 1) translate(0 1) translate(0 1) translate(0 1) translate(0 1) translate(-39.7708 -56.4461)">
   <path clip-rule="nonzero" d="m102.36,87.73c-1.59,17.19 -15.07,32.87 -32.34,32.87c-17.27,0 -29.26,-13.77 -30.2,-32.87c-0.94,-19.17 10.8,-30.74 31.27,-31.27c17.27,-0.45 33.01,12.58 31.27,31.27z" display="inline" enable-background="accumulate" fill="url(#radialGradient6057)" fill-rule="nonzero" id="path5578" opacity="0.27" stroke-dashoffset="0" stroke-linecap="round" stroke-linejoin="round" stroke-miterlimit="4" stroke-width="0.5"/>
  </g>
  <path clip-rule="nonzero" d="m32.54,45.33c-0.83,0.86 -4.47,1.12 -1.87,0.2c0.59,0.16 1.63,-1.18 1.87,-0.2zm24.37,34.88c-1.14,-0.16 -3.13,-1.2 -0.74,-0.72c0.24,0.17 1.52,0.28 0.74,0.72zm2.69,-13.93c0.24,2.09 -1.5,0.81 0,0zm-32.17,-5.56c2.04,-1.47 1.48,1.05 0,0zm-4.81,5.74c-1.28,1.03 -2.92,-0.01 -0.67,-0.37c0.47,-0.58 0.83,0.22 0.67,0.37zm20.84,6.26c1.07,1.02 0.67,2.68 -0.19,0.7c-0.2,-0.52 -0.46,-0.52 0.19,-0.7zm5.36,-5.21c0.9,-0.76 3.09,-0.85 1.11,0.12c-0.52,0.1 -1.09,0.81 -1.11,-0.12zm-5.78,13.4c-1.85,0.2 -1.25,-1.55 0,0zm3.21,3.73c1.29,0.33 1.96,1.92 0.22,0.74c-0.61,-0.4 -0.61,-0.24 -0.22,-0.74zm-4.81,-8.86c-1.47,-0.92 -0.95,-2.19 0.19,-0.43c0.45,0.24 -0.11,0.28 -0.19,0.43zm9.73,15.81c0.83,-1.66 1.9,-0.97 0.38,0.25l-0.38,-0.25zm-10.6,-1.05c0.63,0.78 0.96,2.91 0,0.97c-0.01,-0.31 -0.79,-1.07 0,-0.97zm6.39,1.93c-0.64,-1.08 0.21,-2.52 0.39,-0.53c0.38,0.72 -0.06,0.26 -0.39,0.53zm17.29,-7.1c0.4,-1.53 1.29,-1.02 0.32,0.21c-0.1,-0.06 -0.31,-0.05 -0.32,-0.21zm-13.89,-21.02c1.76,-0.42 2.07,0.88 0.2,0.47c-0.62,0.11 0.02,-0.25 -0.2,-0.47zm15.93,8.82c1.39,-0.31 2.76,1.04 0.55,0.6c-0.65,-0.11 -0.75,0.13 -0.55,-0.6zm-10.9,18.51c-2.19,1.35 -0.47,-1.66 0,0zm17.91,-29.3c-1.57,-0.92 -0.16,-1.86 0,0zm0.93,11.35c1.25,-0.97 2.67,-0.28 0.56,0.26c-0.35,0.58 -0.79,-0.2 -0.56,-0.26zm-16.18,-10.23c0.87,0.62 1.72,2.59 0.27,0.97c-0.09,-0.32 -1.08,-0.82 -0.27,-0.97zm5.87,-24.74c2.14,-1.43 1.43,1.19 0,0zm7.03,20.2c-0.79,-0.26 -3.33,-1.21 -1.1,-0.93c0.3,0.2 1.98,0.42 1.1,0.93zm-2.66,8.12c1.97,-0.63 -0.05,1.24 0,0zm0.91,-23.24c0.07,1 -0.94,3.94 -0.83,1.46c0.29,-0.38 -0.08,-2.22 0.83,-1.46zm-4.09,15.24c-1.25,2.59 -1.56,-0.32 -0.02,-0.12c-0.12,0.35 0.15,-0.05 0.02,0.12zm2.63,1.81c-2.31,1.43 -0.71,-1.03 0,0zm-9.86,-15.1c0.24,1 -0.43,3.04 -0.43,0.87c0.11,-0.24 -0.19,-1.36 0.43,-0.87zm-4.13,-9.99c-2.72,-1.02 0.31,-1.28 0,0zm5.73,6.3c-0.56,-1.7 0.93,-2.15 0.46,-0.2c0.24,0.43 -0.34,0.29 -0.46,0.2zm-27.55,6.58c-1.08,-0.91 -0.53,-2.83 0.23,-0.67c0.3,0.22 0.32,0.63 -0.23,0.67zm13.86,15.37c0.5,1.74 -0.8,1.94 -0.44,0.06l0.44,-0.06zm5.8,-10.78c0.99,-0.47 4.36,-0.72 1.83,0.23c-0.51,-0.13 -2.23,1 -1.83,-0.23zm-23.14,-4.08c0.62,1.72 -0.54,1.78 -0.43,0.02c0.12,0 0.33,0.14 0.43,-0.02zm18.23,0.32c-2.27,-0.04 -1.76,-1.48 0.18,-0.51c-0.06,0.13 0.05,0.47 -0.18,0.51zm-18.1,29.65c-1.42,0.38 -2.69,-1.26 -0.43,-0.62c0.39,-0.13 0.87,0.06 0.43,0.62zm9.33,-23.54c0.95,1.44 -0.15,2.25 -0.4,0.38c-0.34,-0.28 0.22,-0.59 0.4,-0.38zm0,18.27c-0.54,-1.44 0.53,-2.06 0.37,-0.2c0.17,0.47 -0.24,0.08 -0.37,0.2zm-14.51,0.29c0.26,-2.49 1.75,-0.41 0,0zm21.11,18.1c-0.87,0.49 -3.69,2.05 -1.69,0.25c0.39,-0.07 1.97,-1.49 1.69,-0.25zm-21.38,-17.65c-0.23,2.46 -1.73,0.43 0,0zm15.86,-7.15c1.39,0.64 1.76,2.29 0.04,0.64c-0.49,-0.05 -0.42,-0.54 -0.04,-0.64zm18.73,-8.69c-2.01,-2.54 0.9,-0.73 0,0zm-19.53,24.16c1.89,1.5 -1.35,0.81 0,0zm8.14,-21.13c-0.55,1.22 -2.03,1.54 -0.57,0.04c0.05,-0.43 0.48,-0.37 0.57,-0.04zm-1.94,-4.91c1.22,0.75 1.65,2.45 0.03,0.76c-0.37,-0.47 -0.61,-0.36 -0.03,-0.76zm19.63,24.15c-1.16,0.9 -2.8,0.34 -0.68,-0.28c0.69,-0.21 0.48,-0.3 0.68,0.28zm4.28,-24.95c1,-0.09 4.32,0.11 1.63,0.61c-0.33,-0.04 -2.59,0.21 -1.63,-0.61zm5.92,11.88c0,1.79 -1.17,1.29 -0.36,-0.15c0.11,0.04 0.32,0 0.36,0.15zm-13.51,5.89c1.31,-0.14 2.28,1.3 0.34,0.59c-0.48,0.17 -0.64,-0.31 -0.34,-0.59zm0.13,-15.67c2.3,-0.85 1.3,1.26 0,0zm5.25,-6.24c-0.39,1.42 -2.03,1.86 -0.7,0.17c0.26,-0.34 0.36,-0.68 0.7,-0.17zm6.69,15.13c-0.65,-1.23 0.47,-2.84 0.47,-0.56c0.45,0.87 -0.2,0.4 -0.47,0.56zm-28.36,-17.21c0.97,2.3 -1.14,0.44 0,0zm0.37,10.72c-2.09,-1.21 0.1,-1.38 0.13,-0.17l-0.11,0.08l-0.02,0.09zm8,0.1c0.77,-1.4 1.72,-1.15 0.4,0.17c-0.05,0.22 -0.42,-0.04 -0.4,-0.17zm-5.85,-8.67c0.48,-1.63 2.01,-1.44 0.57,0.07c-0.21,0.65 -0.3,-0.09 -0.57,-0.07zm-13.36,-10.75c0.63,1.89 -0.85,1.17 -0.23,-0.07l0.23,0.07zm-4.41,29.27c-2.57,-0.23 -0.65,-1.49 0.16,-0.21l-0.06,0.14l-0.1,0.07zm3.62,-6.45c-0.8,-1.98 0.86,-1.16 0.21,0.03l-0.21,-0.03zm-9.74,-5.66c0.93,0.71 0.72,2.8 -0.07,1c-0.15,-0.31 -0.84,-1.2 0.07,-1zm31.59,13.3c0.71,-0.73 2.66,-0.72 0.95,0.1c-0.26,-0.13 -1.09,0.86 -0.95,-0.1zm18.08,5.84c-0.29,1.51 -2.25,2 -0.77,0.2c0.17,-0.44 0.57,-0.87 0.77,-0.2zm-11.3,7.69c0.35,-1.9 1.46,-1.33 0.31,0.2l-0.31,-0.2zm13.13,-24.01c2.48,0.46 0.53,1.41 0,0zm-2.39,-9.06c-2.04,-2.09 0.85,-1.36 0.12,0.03c-0.28,-0.24 0,0.15 -0.12,-0.03zm-9.19,-8.1c1.76,2.08 -1.57,0.13 0,0zm-12.13,-2.51c-1.24,-0.43 -2.34,-2.4 -0.37,-0.92c0.4,0.3 1.19,0.42 0.37,0.92zm13.05,24.36c-0.28,1.13 -2.03,2.61 -0.99,0.58c0.44,-0.42 0.32,-1.37 0.99,-0.58zm6.85,-23.4c0.9,0.39 3.27,2.26 1.01,1.32c-0.24,-0.41 -2.06,-0.8 -1.01,-1.32zm-22.71,30.26c-1.71,-0.47 -1.55,-2.05 0.06,-0.6c0.48,0 0.24,0.63 -0.06,0.6zm-13.34,3.19c-2.03,-0.18 -0.72,-1.74 0,0zm-1.42,12.58c2.83,0.02 0.43,1.54 0,0zm-5.42,-2.22c0.93,-2.13 1.05,0.49 0,0zm1.83,-22.63c-0.45,-1.49 1.02,-2.59 0.54,-0.45c0.39,0.69 -0.58,0.36 -0.54,0.45zm10.18,-2.75c-0.13,1.14 -2.55,3.61 -1.26,1.3c0.47,-0.18 0.61,-1.98 1.26,-1.3zm-12.36,-1.8c1.45,-2.86 1.31,0.34 0,0zm25.26,24.88c-0.87,0.76 -3.06,1.18 -1.05,0.04c0.57,-0.1 0.89,-0.84 1.05,-0.04zm-10.88,-41.49c-0.38,-2 0.87,-1.98 0.48,-0.05c-0.14,0.03 -0.34,0.18 -0.48,0.05zm-6.38,4.93c0.42,0.96 0.49,2.99 -0.2,0.92c-0.04,-0.22 -0.44,-1.38 0.2,-0.92zm27.26,-1.77c1.98,0.6 0.59,1.41 -0.12,0.16l0.12,-0.16zm-16.1,-1.96c0.43,1.71 -1.02,2.34 -0.54,0.24c-0.25,-0.42 0.45,-0.52 0.54,-0.24zm-12.54,-3.71c-1.29,1.08 -2.31,0.33 -0.4,-0.33c0.43,-0.4 0.19,0.24 0.4,0.33zm12.53,-1.89c-0.81,1.68 -0.82,-0.83 0,0zm-13.22,16.7c1.16,-0.51 4.96,0.69 1.98,0.57c-0.58,-0.28 -2.33,0.35 -1.98,-0.57zm-7.07,1.55c1.12,0.3 2.56,2.06 0.56,0.99c-0.34,-0.31 -1.37,-0.52 -0.56,-0.99z" display="inline" enable-background="accumulate" fill="#faf0d1" fill-rule="nonzero" filter="url(#filter6039)" id="use4957" opacity="0.49" stroke-dashoffset="0" stroke-linecap="round" stroke-linejoin="round" stroke-miterlimit="4" stroke-width="0.16"/>
 </g>
</svg>