<svg width="80" height="120" xmlns="http://www.w3.org/2000/svg" xmlns:svg="http://www.w3.org/2000/svg" version="1.1">
 <defs id="defs6">
  <filter color-interpolation-filters="sRGB" id="filter3847">
   <feGaussianBlur id="feGaussianBlur3849" stdDeviation="0.16"/>
  </filter>
  <filter color-interpolation-filters="sRGB" id="filter3855">
   <feGaussianBlur id="feGaussianBlur3857" stdDeviation="0.2"/>
  </filter>
  <filter color-interpolation-filters="sRGB" id="filter3863">
   <feGaussianBlur id="feGaussianBlur3865" stdDeviation="0.2"/>
  </filter>
  <radialGradient cx="308.41" cy="364.1" gradientTransform="matrix(.93799 0 0 .24684 19.125 274.22)" gradientUnits="userSpaceOnUse" id="radialGradient4255" r="79.42">
   <stop id="stop3960" offset="0"/>
   <stop id="stop3962" offset="1" stop-opacity="0"/>
  </radialGradient>
  <linearGradient id="linearGradient4257" x1="0.31" x2="-0.05" y1="1.12" y2="0.03">
   <stop id="stop3910" offset="0" stop-color="#e6e6e6"/>
   <stop id="stop3912" offset="1" stop-color="#666"/>
  </linearGradient>
  <linearGradient id="linearGradient4259" x1="0.92" x2="-0.14" y1="0.32" y2="0.97">
   <stop id="stop3918" offset="0" stop-color="#fff"/>
   <stop id="stop3920" offset="1" stop-color="#fff" stop-opacity="0"/>
  </linearGradient>
  <linearGradient id="linearGradient4261" x1="0.07" x2="0.9" y1="0.5" y2="0.49">
   <stop id="stop3946" offset="0" stop-color="#fff" stop-opacity="0"/>
   <stop id="stop3952" offset="0.5" stop-color="#fff" stop-opacity="0.51"/>
   <stop id="stop3948" offset="1" stop-color="#fff" stop-opacity="0"/>
  </linearGradient>
  <linearGradient id="linearGradient4263" x1="0.55" x2="0.6" y1="0.55" y2="1.17">
   <stop id="stop3931" offset="0" stop-color="#ccc"/>
   <stop id="stop3933" offset="1" stop-color="#fff"/>
  </linearGradient>
  <linearGradient id="linearGradient4265" x1="0.5" x2="0.53" y1="0.96" y2="-0.09">
   <stop id="stop3788" offset="0" stop-color="#fff"/>
   <stop id="stop3790" offset="1" stop-color="#fff"/>
  </linearGradient>
  <linearGradient id="linearGradient4267" x1="0.51" x2="0.53" y1="0.97" y2="0.01">
   <stop id="stop3012" offset="0" stop-color="#d0d0d0"/>
   <stop id="stop3014" offset="1" stop-color="#ccdbd4"/>
  </linearGradient>
  <radialGradient cx="428.74" cy="-0.12" gradientTransform="matrix(2.5276 1.0206 -.13885 1.9334 -671.45 -142.1)" gradientUnits="userSpaceOnUse" id="radialGradient4269" r="32.31">
   <stop id="stop3885" offset="0" stop-color="#e6e6e6"/>
   <stop id="stop3887" offset="1" stop-color="#e6e6e6" stop-opacity="0"/>
  </radialGradient>
  <linearGradient id="linearGradient4271" x1="-0.12" x2="1.15" y1="0.5" y2="0.5">
   <stop id="stop3809" offset="0" stop-color="#6d6d6d"/>
   <stop id="stop3815" offset="0.5" stop-color="#b7b7b7"/>
   <stop id="stop3811" offset="1" stop-color="#797979"/>
  </linearGradient>
  <linearGradient id="linearGradient4273" x1="0.5" x2="0.52" y1="1.23" y2="-0.08">
   <stop id="stop3874" offset="0" stop-color="#999"/>
   <stop id="stop3876" offset="1" stop-color="#888" stop-opacity="0"/>
  </linearGradient>
  <linearGradient id="linearGradient4275" x1="0.4" x2="0.4" y1="1.65" y2="-0.1">
   <stop id="stop3796" offset="0" stop-color="#b3b3b3"/>
   <stop id="stop3798" offset="1" stop-color="#b3b3b3" stop-opacity="0"/>
  </linearGradient>
  <linearGradient id="linearGradient4277" x1="0.65" x2="1.11" y1="0.22" y2="1.36">
   <stop id="stop3995" offset="0" stop-color="#f9f9f9"/>
   <stop id="stop3997" offset="1" stop-color="#ccc"/>
  </linearGradient>
 </defs>
 <metadata>image/svg+xmlOpenclipartSoftdrink2011-07-13T13:38:59clip art, clipart, cola, cup, drink, fast
    food, food, juice, lemonade, soda,
    softdrink,http://openclipart.org/detail/149359/softdrink-by-gnokiignokiiclip artclipartcolacupdrinkfast
    foodfoodjuicelemonadesodasoftdrink</metadata>
 <g class="layer" display="inline">
  <title>Layer 1</title>
  <g id="g4231" transform="translate(0 -1) translate(0 -1) translate(0 -1) translate(0 -1) translate(0 -1) translate(0 -1) translate(0 1) translate(1 0) translate(0 1) translate(0 1) translate(0 1) translate(0 1) translate(0 1) translate(0 1) translate(0 1) translate(0 1) translate(0 1) translate(0 1) translate(0 1) translate(0 1) translate(0 -1) translate(0 -1) translate(0 -1) translate(0 1) translate(0 1) translate(0 1) translate(0 1) translate(0 1) translate(0 1) translate(0 1) translate(0 1) translate(0 1) translate(0 1) matrix(0.373574 0 0 0.282653 -112.251 -30.4369)">
   <path d="m387.83,364.1c0,12.69 -35.56,22.98 -79.42,22.98c-43.86,0 -79.42,-10.29 -79.42,-22.98s35.56,-22.98 79.42,-22.98c43.86,0 79.42,10.29 79.42,22.98z" fill="url(#radialGradient4255)" id="path3956" transform="matrix(.60914 0 0 1.1852 219.09 5.0157)"/>
   <path d="m370.76,426.38c-0.22,1.1 -0.34,2.21 -0.34,3.35c0,13.62 17.47,24.67 37.82,24.67s36.85,-11.05 36.85,-24.67c0,-1.14 -0.11,-2.25 -0.34,-3.35c-13.03,15.62 -20.26,19.86 -35.95,20.36c-15.46,0.5 -35.6,-8.32 -38.04,-20.36z" fill="url(#linearGradient4257)" id="path3897"/>
   <path d="m442.41,432.31c-8.88,11 -22.89,18.09 -37.25,16.28c-11.46,-0.67 -23.25,-4.49 -31.31,-12.94c6.57,13.06 23.02,17.03 36.56,16.69c13.14,-0.33 29.56,-6.5 32.53,-20.65l-0.53,0.62z" fill="url(#linearGradient4259)" id="path3902"/>
   <path d="m370.9,432.27l-23.39,-116.91l114.09,-12.5l-16.52,123.77s-13.65,23.31 -40.72,21.77c-25.3,-1.44 -33.46,-16.13 -33.46,-16.13z" fill="#d40000" id="path3891"/>
   <path d="m458.84,105.53l-108.53,11.88l22.81,113.93c0.18,0.32 1.84,3.16 6.44,6.57c4.86,3.6 12.7,7.43 24.91,8.12c25.02,1.43 37.67,-19.18 38.31,-20.25l16.06,-120.25z" fill="#f00" id="path3895" opacity="0.5" transform="translate(0,200)"/>
   <path d="m422.5,329.88l-41.94,4.03l11.38,110.03c3.55,1.05 7.69,1.82 12.53,2.09c5.08,0.3 9.65,-0.35 13.72,-1.53l4.31,-114.62z" fill="url(#linearGradient4261)" id="path3937" opacity="0.77"/>
   <path d="m461.59,302.88l-114.09,12.46l1.97,9.87c10.68,8.38 24.24,16.2 57.81,14.99c25.12,-0.91 42.26,-9.59 51.83,-19.48l2.48,-17.84z" fill="url(#linearGradient4263)" id="path3924"/>
   <path d="m78.11,111c0,21.25 -45.31,38.48 -101.2,38.48s-101.2,-17.23 -101.2,-38.48s45.31,-38.48 101.2,-38.48s101.2,17.23 101.2,38.48z" fill="url(#linearGradient4265)" id="path2993" transform="matrix(.62691 -.040690 .053989 .88798 412.78 200.19)"/>
   <path d="m409.59,267.56c28.66,0.49 51.34,12.13 52.31,27.88c1.08,17.37 -24.65,33.15 -57.47,35.25c-2.05,0.13 -4.09,0.19 -6.09,0.21c2.65,0.02 5.36,-0.04 8.09,-0.21c32.82,-2.1 58.55,-17.88 57.47,-35.25c-0.99,-16.12 -24.7,-27.92 -54.31,-27.88z" fill="#808080" filter="url(#filter3847)" id="path3802"/>
   <path d="m78.11,111c0,21.25 -45.31,38.48 -101.2,38.48s-101.2,-17.23 -101.2,-38.48s45.31,-38.48 101.2,-38.48s101.2,17.23 101.2,38.48z" fill="url(#linearGradient4267)" filter="url(#filter3855)" id="path2987" transform="matrix(.58714 -.037456 .050564 .81741 411.42 207.64)"/>
   <path d="m446.82,277.22c7.57,3.83 15.92,23.06 -2.3,36.33s-48.62,14.66 -63.67,11.72c-8.33,-1.63 5.05,-22.66 23.26,-35.93c18.22,-13.27 32.9,-17.08 42.71,-12.12z" fill="url(#radialGradient4269)" id="path3880"/>
   <path d="m78.11,111c0,21.25 -45.31,38.48 -101.2,38.48s-101.2,-17.23 -101.2,-38.48s45.31,-38.48 101.2,-38.48s101.2,17.23 101.2,38.48z" fill="#fff" fill-opacity="0.64" filter="url(#filter3863)" id="path3817" transform="matrix(.41227 0 0 .53003 413.71 238.56)"/>
   <path d="m78.11,111c0,21.25 -45.31,38.48 -101.2,38.48s-101.2,-17.23 -101.2,-38.48s45.31,-38.48 101.2,-38.48s101.2,17.23 101.2,38.48z" fill="#ccc" id="path2989" transform="matrix(.40101 0 0 .54485 413.45 234.48)"/>
   <path d="m404.2,273.99c-22.41,0 -40.59,9.39 -40.59,20.97c0,1.55 0.35,3.05 0.96,4.5c4,-9.42 20.21,-16.47 39.63,-16.47s35.63,7.05 39.62,16.47c0.62,-1.45 0.94,-2.95 0.94,-4.5c0,-11.58 -18.15,-20.97 -40.56,-20.97z" fill="url(#linearGradient4271)" id="path2995"/>
   <path d="m432.59,286.78l-55.59,1.97l-1.69,20.94c7.36,3.85 17.57,6.25 28.88,6.25c12.51,0 23.68,-2.94 31.12,-7.53l-2.72,-21.63z" fill="url(#linearGradient4273)" id="path3867"/>
   <path d="m78.11,111c0,21.25 -45.31,38.48 -101.2,38.48s-101.2,-17.23 -101.2,-38.48s45.31,-38.48 101.2,-38.48s101.2,17.23 101.2,38.48z" fill="#f2f2f2" id="path2991" transform="matrix(.27988 0 0 .38559 411.22 247.17)"/>
   <path d="m404.76,282.14c-13.01,0 -23.95,4.59 -27.28,10.84c3.34,6.25 14.29,10.82 27.28,10.82s23.94,-4.57 27.28,-10.82c-3.33,-6.25 -14.28,-10.84 -27.28,-10.84z" fill="url(#linearGradient4275)" id="path3000"/>
   <path d="m404.75,275.12c-15.64,0 -28.31,6.65 -28.31,14.84c0,0.17 0.02,0.34 0.03,0.5c0.51,-7.96 12.96,-14.34 28.28,-14.34s27.8,6.38 28.31,14.34c0.01,-0.16 0.03,-0.33 0.03,-0.5c0,-8.19 -12.7,-14.84 -28.34,-14.84z" fill="#fff" id="path3005"/>
   <path d="m397.39,291.76l11.4,0l2,-6.17l-10.83,0l-2.57,6.17z" fill="#4d4d4d" id="path3954"/>
   <path d="m352.24,207.67s-1.01,2.54 -1.15,3.89c-0.15,1.47 0.35,4.41 0.35,4.41s0.36,0.07 0.38,0.08c0,0 0,0.02 0,0.02c0.13,0.01 0.33,0.04 0.47,0.05c1.89,0.31 19.46,3.21 28.52,6.11c-0.1,-0.03 -0.19,-0.05 -0.3,-0.07c0.82,0.25 1.57,0.5 2.25,0.74c0.19,0.08 0.39,0.15 0.57,0.23c0.12,0.05 0.26,0.1 0.38,0.15c0.15,0.06 0.31,0.13 0.44,0.2c1,0.48 1.62,0.96 1.72,1.39c5.49,21.99 15.58,63.71 16.36,66.95l0.35,0.02l0.9,0.03l1.12,0.05l1.99,0.07l2.05,0.08l0.3,0.02l0.94,-2.92l0.05,-0.14c-2.66,-11.03 -11.65,-48.39 -16.8,-68.99c-0.02,-0.08 -0.05,-0.16 -0.08,-0.23c0,-0.01 -0.01,-0.03 -0.02,-0.05c-0.21,-0.41 -0.69,-0.85 -1.37,-1.27c-6.53,-5.19 -39.42,-10.82 -39.42,-10.82z" id="path4011"/>
   <path d="m352.24,207.67s-1.01,2.54 -1.15,3.89c-0.15,1.47 0.35,4.41 0.35,4.41s33.56,5.42 34.43,8.9c5.49,21.99 15.58,63.71 16.36,66.95l6.71,0.27l0.94,-2.92c-1.01,-4.14 -11.38,-46.28 -17.12,-69.28c-1.38,-5.53 -40.52,-12.22 -40.52,-12.22z" fill="url(#linearGradient4277)" id="path3966"/>
   <path d="m352.22,208.94c-0.28,0.81 -0.58,1.75 -0.7,2.57c5.34,0.74 39.04,5.55 39.84,8.77c5.38,21.53 16,66.38 17.28,71.79l0.3,0.02l1,-3.07c-2.67,-11.02 -11.66,-48.39 -16.81,-68.99c-0.01,-0.07 -0.04,-0.15 -0.07,-0.22c-0.01,-0.01 -0.02,-0.04 -0.03,-0.05c-2.09,-4.12 -29.22,-8.73 -40.81,-10.82zm-0.67,4.66c0.1,1.25 0.26,2.42 0.27,2.47c10.64,0.96 35.32,3.48 36,6.23c5.18,20.72 14.88,61.59 16.78,69.62l2,0.07c-2.52,-10.38 -11.76,-49.03 -16.98,-69.94c-0.96,-3.85 -25.1,-6.59 -38.07,-8.45zm28.97,8.55c3.27,1 5.52,2 5.73,2.87c5.48,21.93 15.51,63.39 16.33,66.82l0.9,0.03c-3.12,-12.95 -11.22,-46.74 -16.13,-66.4c-0.3,-1.22 -2.98,-2.31 -6.83,-3.32z" fill="#ff2a2a" id="path3982"/>
  </g>
 </g>
</svg>