<svg width="80" height="90" xmlns="http://www.w3.org/2000/svg" xmlns:svg="http://www.w3.org/2000/svg" version="1.1">
 <defs id="defs6">
  <linearGradient id="linearGradient24" x1="0.72" x2="-0.04" y1="-0.12" y2="0.99">
   <stop id="stop26" offset="0" stop-color="#454545"/>
   <stop id="stop28" offset="1" stop-color="#bababa"/>
  </linearGradient>
  <linearGradient id="linearGradient48" x1="0.49" x2="0.53" y1="0" y2="1.44">
   <stop id="stop50" offset="0" stop-color="#cf8d8d"/>
   <stop id="stop52" offset="0.18" stop-color="#ca9e9e"/>
   <stop id="stop54" offset="0.43" stop-color="#c4b0b0"/>
   <stop id="stop56" offset="0.7" stop-color="#c0bbbb"/>
   <stop id="stop58" offset="1" stop-color="#bfbfbf"/>
  </linearGradient>
  <linearGradient id="linearGradient76" x1="0.51" x2="0.34" y1="0.45" y2="1.1">
   <stop id="stop78" offset="0" stop-color="#3b3b3b"/>
   <stop id="stop80" offset="1" stop-color="#919191"/>
  </linearGradient>
  <linearGradient id="linearGradient96" x1="0.96" x2="0.03" y1="0.62" y2="0.34">
   <stop id="stop98" offset="0" stop-color="#3b3b3b"/>
   <stop id="stop100" offset="1" stop-color="#a1a1a1"/>
  </linearGradient>
  <linearGradient id="linearGradient124" x1="0.47" x2="0.52" y1="-0.12" y2="1.24">
   <stop id="stop126" offset="0" stop-color="#cf8d8d"/>
   <stop id="stop128" offset="0.18" stop-color="#ca9e9e"/>
   <stop id="stop130" offset="0.43" stop-color="#c4b0b0"/>
   <stop id="stop132" offset="0.7" stop-color="#c0bbbb"/>
   <stop id="stop134" offset="1" stop-color="#bfbfbf"/>
  </linearGradient>
  <linearGradient id="linearGradient150" x1="-0.47" x2="-5.08" y1="0.03" y2="-2.29">
   <stop id="stop152" offset="0" stop-color="#878787"/>
   <stop id="stop154" offset="0.19" stop-color="#a8a8a8"/>
   <stop id="stop156" offset="0.38" stop-color="#c2c2c2"/>
   <stop id="stop158" offset="0.57" stop-color="#d4d4d4"/>
   <stop id="stop160" offset="0.78" stop-color="#dfdfdf"/>
   <stop id="stop162" offset="1" stop-color="#e3e3e3"/>
  </linearGradient>
  <linearGradient id="linearGradient182" x1="0.67" x2="0.08" y1="0.9" y2="-0.05">
   <stop id="stop184" offset="0" stop-color="#878787"/>
   <stop id="stop186" offset="0.19" stop-color="#a8a8a8"/>
   <stop id="stop188" offset="0.38" stop-color="#c2c2c2"/>
   <stop id="stop190" offset="0.57" stop-color="#d4d4d4"/>
   <stop id="stop192" offset="0.78" stop-color="#dfdfdf"/>
   <stop id="stop194" offset="1" stop-color="#e3e3e3"/>
  </linearGradient>
  <linearGradient id="linearGradient212" x1="0.89" x2="0.1" y1="0.91" y2="0.18">
   <stop id="stop214" offset="0" stop-color="#878787"/>
   <stop id="stop216" offset="0.19" stop-color="#a8a8a8"/>
   <stop id="stop218" offset="0.38" stop-color="#c2c2c2"/>
   <stop id="stop220" offset="0.57" stop-color="#d4d4d4"/>
   <stop id="stop222" offset="0.78" stop-color="#dfdfdf"/>
   <stop id="stop224" offset="1" stop-color="#e3e3e3"/>
  </linearGradient>
  <linearGradient id="linearGradient248" x1="1.1" x2="-0.12" y1="0.32" y2="0.77">
   <stop id="stop250" offset="0" stop-color="#3d3d3d"/>
   <stop id="stop252" offset="1" stop-color="#c7c7c7"/>
  </linearGradient>
  <linearGradient id="linearGradient272" x1="1.02" x2="-0.05" y1="0.59" y2="0.43">
   <stop id="stop274" offset="0" stop-color="#424242"/>
   <stop id="stop276" offset="1" stop-color="#d1d1d1"/>
  </linearGradient>
  <linearGradient id="linearGradient292" x1="0.38" x2="0.65" y1="-1.08" y2="2.14">
   <stop id="stop294" offset="0" stop-color="#cf8d8d"/>
   <stop id="stop296" offset="0.18" stop-color="#ca9e9e"/>
   <stop id="stop298" offset="0.43" stop-color="#c4b0b0"/>
   <stop id="stop300" offset="0.7" stop-color="#c0bbbb"/>
   <stop id="stop302" offset="1" stop-color="#bfbfbf"/>
  </linearGradient>
 </defs>
 <metadata>image/svg+xmlOpenclipart</metadata>
 <g class="layer" display="inline">
  <title>Layer 1</title>
  <g id="g10" transform="translate(0 1) translate(0 1) translate(0 1) translate(0 1) translate(0 1) translate(0 1) translate(0 1) translate(0 1) translate(0 1) translate(0 1) translate(0 1) translate(0 1) translate(0 1) translate(0 1) translate(0 1) translate(0 1) translate(0 1) translate(0 1) translate(0 1) translate(0 1) translate(0 1) translate(0 1) translate(0 1) translate(0 1) translate(0 1) translate(0 1) translate(0 1) translate(0 1) translate(0 1) translate(0 1) translate(0 1) translate(0 1) translate(1 0) translate(0 1) translate(1 0) translate(0 1) translate(-1 0) translate(1 0) translate(1 0) translate(1 0) translate(1 0) translate(1 0) translate(-1 0) matrix(1.61344 0 0 -2.76314 -0.38325 46.6548)">
   <g id="g12">
    <g id="g14">
     <g id="g16">
      <g id="g22">
       <path d="m24.12,13.95c0.56,-0.12 1.02,-0.24 1.37,-0.39c0.53,-0.25 1.06,-0.66 1.6,-1.2c-1.47,0.35 -3.14,0.43 -5.02,0.26c-0.3,-0.03 -0.6,-0.07 -0.87,-0.13c0.09,0.06 0.22,0.13 0.37,0.22l0.04,0.12c0.05,0.06 0.18,0.12 0.38,0.18l0.27,0.08l0.04,0.22c0.02,0.14 0.17,0.24 0.45,0.29l-0.07,0.09c-0.18,0.14 -0.07,0.25 0.34,0.3c0.25,0.03 0.62,0.02 1.1,-0.04z" fill="url(#linearGradient24)" fill-rule="evenodd" id="path30"/>
      </g>
     </g>
    </g>
    <path d="m9.83,8.46c0.28,0.11 0.62,0.25 1.02,0.42c1.41,0.61 2.56,1.08 3.42,1.42c0.9,0.4 1.48,0.64 1.73,0.73c1.89,0.75 3.73,1.25 5.51,1.5c0.26,0.06 0.53,0.1 0.81,0.13c0.69,0.06 1.35,0.09 1.98,0.09l0,-0.47c-0.26,0.02 -0.51,0.02 -0.77,0l-0.57,0c-1.15,-0.09 -2.62,-0.39 -4.41,-0.91c-2.14,-0.57 -4.89,-1.63 -8.23,-3.17c-0.26,-0.12 -0.51,-0.2 -0.74,-0.26l0,0.04c0,0.09 -0.08,0.1 -0.25,0.05c-0.21,-0.09 -0.34,-0.16 -0.38,-0.22c-0.15,-0.03 -0.28,-0.04 -0.39,-0.04l-0.32,0l0,0.34l0.1,0c0.31,0 0.81,0.11 1.49,0.35zm-0.15,-0.91c-0.04,-0.02 -0.08,-0.06 -0.1,-0.08c-0.56,-0.2 -0.95,-0.33 -1.17,-0.39c-0.07,-0.03 -0.11,-0.04 -0.14,-0.04l-0.03,0l0,0.47c0.16,-0.09 0.39,-0.16 0.67,-0.22c0.28,0.09 0.54,0.18 0.77,0.26zm0.61,0.22c0.25,0.08 0.49,0.17 0.7,0.26c0,-0.03 0.01,-0.05 0.04,-0.05c-0.24,-0.08 -0.45,-0.17 -0.64,-0.26c-0.05,0.03 -0.08,0.05 -0.1,0.05z" fill="#595959" fill-rule="evenodd" id="path32"/>
    <path d="m24.3,10.38l0,-0.46c-0.07,0.02 -0.15,0.04 -0.25,0.04c-0.72,0.05 -1.45,0.08 -2.18,0.08c-1.49,0 -3.21,-0.17 -5.16,-0.51c-1.22,-0.23 -2.1,-0.45 -2.65,-0.64c-0.04,0 -0.09,-0.02 -0.14,-0.05l-0.03,0c-0.33,-0.08 -0.68,-0.17 -1.03,-0.26c-0.07,-0.02 -0.15,-0.05 -0.24,-0.08c-0.03,0.03 -0.06,0.04 -0.11,0.04c-0.21,0.03 -0.49,-0.01 -0.85,-0.13c-0.45,-0.17 -0.67,-0.3 -0.67,-0.38c-0.21,-0.09 -0.45,-0.18 -0.71,-0.26c-0.07,0.03 -0.17,0.01 -0.31,-0.04c-0.12,-0.06 -0.22,-0.12 -0.29,-0.18c-0.23,-0.08 -0.49,-0.17 -0.77,-0.25c-0.29,0.05 -0.51,0.12 -0.67,0.21l0,0.26l0.31,0c0.12,0 0.25,0.01 0.39,0.04c-0.04,-0.03 -0.05,-0.05 -0.03,-0.08c0.04,-0.09 0.18,-0.11 0.39,-0.05c0.11,0.09 0.21,0.17 0.28,0.26c0.23,0.06 0.48,0.14 0.74,0.26c3.34,1.55 6.09,2.6 8.23,3.17c1.79,0.52 3.26,0.82 4.41,0.91l0.57,0c0.25,0.02 0.51,0.02 0.77,0l0,-0.31c-0.07,0.03 -0.15,0.03 -0.25,0c-0.3,0 -0.61,-0.01 -0.91,-0.04c-0.76,-0.08 -1.45,-0.18 -2.09,-0.3c-0.04,0.09 -0.15,0.12 -0.31,0.09c-0.33,-0.09 -0.57,-0.18 -0.71,-0.26c-0.8,-0.17 -1.43,-0.36 -1.87,-0.56c-0.16,-0.03 -0.33,-0.07 -0.5,-0.13c-0.77,-0.28 -1.1,-0.48 -0.98,-0.6c0.33,-0.11 0.53,-0.21 0.6,-0.3c0.09,-0.08 0.27,-0.07 0.52,0.05c0.15,0.02 0.44,0.16 0.89,0.42c0.09,0.03 0.2,0.06 0.32,0.09c0.14,0 0.29,0.03 0.45,0.08c-0.04,-0.02 -0.08,-0.05 -0.1,-0.08c-0.05,-0.17 0.14,-0.22 0.57,-0.13c0.72,0.2 1.26,0.3 1.62,0.3c0.45,0.03 0.82,0 1.13,-0.09c0.37,-0.11 0.74,-0.18 1.09,-0.21l0.28,0c0.12,0.03 0.2,0.06 0.25,0.09l0,-0.01zm-11.05,-1.11c-0.09,0.03 -0.27,0 -0.53,-0.08c-0.59,-0.29 -0.75,-0.43 -0.49,-0.43c0.28,-0.03 0.57,0.04 0.88,0.21c0.21,0.17 0.26,0.27 0.14,0.3zm2.44,0.6c-0.1,-0.03 -0.18,-0.05 -0.25,-0.08c-0.45,-0.17 -0.51,-0.28 -0.17,-0.3c0.3,-0.06 0.65,0.01 1.05,0.21c0.31,0.23 0.32,0.33 0.04,0.3c-0.09,0 -0.19,-0.01 -0.29,-0.04c0.22,0.11 0.34,0.21 0.36,0.3c0,0.11 -0.09,0.16 -0.28,0.13c-0.64,-0.09 -0.97,-0.25 -0.99,-0.47c0.07,0.02 0.14,0.01 0.21,-0.05c0.07,-0.03 0.18,-0.03 0.32,0zm-1.63,-0.12c-0.07,0.02 -0.18,0 -0.35,-0.09c-0.42,-0.17 -0.56,-0.27 -0.42,-0.3c0.09,-0.09 0.26,-0.09 0.49,0c0.03,0 0.05,-0.02 0.07,-0.04c0.19,-0.12 0.41,-0.09 0.67,0.08c0.21,0.09 0.25,0.18 0.11,0.3c-0.14,0.14 -0.28,0.19 -0.43,0.13c-0.07,-0.03 -0.11,-0.06 -0.14,-0.08zm5.8,0.94c0.07,0.06 0.15,0.11 0.24,0.17c0.28,0.14 0.61,0.19 0.99,0.13c-0.05,0 -0.08,-0.02 -0.11,-0.05c-0.04,-0.02 -0.31,-0.08 -0.81,-0.17c-0.12,-0.02 -0.22,-0.05 -0.32,-0.08l0.01,0z" fill="#969696" fill-rule="evenodd" id="path34"/>
    <path d="m21.05,11.63c-0.37,-0.06 -0.71,-0.11 -1.02,-0.17c0.14,0.08 0.38,0.17 0.71,0.26c0.16,0.02 0.27,0 0.31,-0.09zm3.25,-1.25c-0.05,-0.02 -0.13,-0.05 -0.25,-0.08l-0.28,0c-0.35,0.03 -0.72,0.1 -1.09,0.21c-0.31,0.09 -0.68,0.12 -1.13,0.09c-0.36,0 -0.9,-0.1 -1.62,-0.3c-0.43,-0.09 -0.62,-0.04 -0.57,0.13c0.02,0.03 0.06,0.06 0.1,0.08c0.08,0.09 0.2,0.15 0.4,0.18c0.09,0.03 0.19,0.05 0.31,0.08c0.5,0.09 0.77,0.15 0.81,0.17c0.03,0.04 0.06,0.05 0.11,0.05l0.14,0c0.36,-0.06 0.75,-0.09 1.2,-0.09c0.29,0.06 0.65,0 1.1,-0.17c0.16,-0.09 0.34,-0.13 0.53,-0.13l0.25,0l0,-0.22l-0.01,0zm-14.72,-2.44c-0.07,-0.09 -0.17,-0.17 -0.28,-0.26c-0.21,-0.06 -0.34,-0.04 -0.39,0.04c-0.02,0.04 -0.02,0.06 0.03,0.09c0.05,0.06 0.18,0.13 0.39,0.22c0.17,0.05 0.25,0.04 0.25,-0.05l0,-0.04zm3.67,1.33c0.12,-0.03 0.07,-0.13 -0.14,-0.3c-0.31,-0.17 -0.6,-0.24 -0.88,-0.21c-0.26,0 -0.1,0.14 0.49,0.43c0.26,0.08 0.44,0.11 0.53,0.08zm0.81,0.47c0.03,0.03 0.07,0.06 0.14,0.09c0.15,0.05 0.29,0.01 0.43,-0.13c0.14,-0.12 0.1,-0.21 -0.11,-0.3c-0.26,-0.17 -0.48,-0.2 -0.67,-0.09c-0.02,0.03 -0.05,0.05 -0.07,0.05c0.02,0.02 0.05,0.04 0.07,0.04c0.24,0.06 0.32,0.14 0.25,0.26c0,0.05 -0.01,0.08 -0.04,0.08zm1.63,0.13c0.04,0 0.13,0.01 0.24,0.05c0.05,0.02 0.1,0.04 0.14,0.04c0.1,0.03 0.2,0.04 0.29,0.04c0.28,0.03 0.27,-0.07 -0.04,-0.3c-0.4,-0.2 -0.75,-0.27 -1.05,-0.21c-0.34,0.02 -0.28,0.13 0.17,0.3c0.07,0.02 0.15,0.05 0.25,0.08zm2.47,1.03c-0.05,-0.03 -0.08,-0.04 -0.11,-0.04c-0.68,-0.32 -0.84,-0.56 -0.49,-0.73c0.07,-0.06 0.17,-0.06 0.32,0c0.23,0.08 0.5,0.16 0.81,0.21c-0.45,-0.26 -0.74,-0.4 -0.89,-0.42c-0.25,-0.12 -0.43,-0.13 -0.52,-0.05c-0.07,0.09 -0.27,0.19 -0.6,0.3c-0.12,0.12 0.21,0.32 0.98,0.6c0.17,0.06 0.34,0.1 0.5,0.13z" fill="#737373" fill-rule="evenodd" id="path36"/>
    <g id="g38">
     <g id="g40">
      <g id="g46">
       <path d="m24.3,6.35c-0.16,-0.08 -0.21,-0.21 -0.14,-0.38c0.02,-0.06 0.07,-0.12 0.14,-0.17l0,-0.56c-0.12,-0.06 -0.12,-0.16 0,-0.3l0,-3.27c-2.12,-0.05 -3.84,0.02 -5.15,0.22c-1.7,0.26 -3.39,0.78 -5.09,1.59c-1.69,0.8 -2.87,1.35 -3.53,1.67c-0.63,0.32 -1.28,0.52 -1.94,0.6c-0.12,0.06 -0.24,0.09 -0.35,0.09l-0.04,0l0.04,0.34l0,0.86l0.03,0c0.03,0 0.07,0.01 0.14,0.04c0.21,0.06 0.61,0.19 1.17,0.39c-0.07,-0.06 -0.06,-0.1 0.03,-0.13c0.17,-0.09 0.37,-0.06 0.6,0.08c0.17,0.12 0.23,0.22 0.18,0.31c0.19,0.08 0.4,0.17 0.64,0.25c0.02,-0.06 0.13,-0.1 0.31,-0.13c0.38,-0.05 0.75,0.11 1.1,0.48c0.14,0.08 0.2,0.14 0.18,0.17c0.09,0.03 0.17,0.05 0.24,0.08c0.35,0.09 0.7,0.18 1.03,0.26c-0.07,-0.02 -0.14,-0.06 -0.21,-0.08c-0.24,-0.06 -0.18,-0.12 0.17,-0.18c0.35,-0.02 0.73,-0.01 1.13,0.05l1.13,0.17c0.42,0.09 0.77,0.09 1.03,0c0.25,-0.09 0.58,-0.09 0.98,0c0.47,0.06 0.86,0.11 1.17,0.17c0.35,0.06 0.58,0.09 0.67,0.09c0.14,-0.12 0.33,-0.22 0.56,-0.3c0.29,-0.12 0.59,-0.12 0.92,0c0.5,0.2 0.81,0.3 0.95,0.3c0.24,-0.03 0.5,-0.09 0.78,-0.17c0.36,-0.18 0.64,-0.28 0.85,-0.31c0.07,-0.02 0.15,-0.04 0.25,-0.04l0.03,0l0,-0.64c-0.05,0.11 -0.12,0.15 -0.21,0.13l-0.04,0c-0.39,-0.03 -0.52,-0.15 -0.38,-0.35c0.12,-0.11 0.24,-0.17 0.38,-0.17l0.15,0c0.05,0 0.08,0.02 0.1,0.04l0,-0.08l-0.1,0c-0.05,0 -0.1,-0.02 -0.15,-0.05c-0.3,-0.05 -0.43,-0.15 -0.38,-0.3c0,-0.02 0.01,-0.05 0.03,-0.08l0,-0.04c0.07,-0.09 0.19,-0.13 0.35,-0.13c0.05,0 0.1,0.01 0.15,0.04l0.1,0l0,-0.56zm-12.75,-2.7l0.04,0l-0.63,0.34c-0.07,0.03 -0.14,0.07 -0.21,0.13c0.35,-0.17 0.73,-0.37 1.16,-0.6c2.26,-1.17 4.05,-1.99 5.37,-2.45c1.62,-0.6 3.61,-0.91 5.96,-0.94c0.36,0 0.71,-0.01 1.06,-0.05l0,-0.08l-0.99,0c-1.38,0.03 -2.64,0.14 -3.77,0.34c-0.38,0.09 -0.75,0.17 -1.1,0.26c-0.16,0.06 -0.31,0.1 -0.46,0.13l-0.63,0.26c-0.14,0.06 -0.28,0.1 -0.43,0.13c-1.27,0.48 -2.92,1.25 -4.94,2.31c-0.14,0.09 -0.28,0.16 -0.43,0.22zm1.52,3.99c0.07,-0.11 0.2,-0.13 0.39,-0.04c0.17,0.06 0.2,0.14 0.11,0.25c-0.09,0.06 -0.2,0.07 -0.32,0.05c-0.21,-0.09 -0.27,-0.17 -0.18,-0.26zm-0.95,-0.17c-0.26,-0.03 -0.33,-0.1 -0.21,-0.22c0.07,-0.11 0.2,-0.14 0.39,-0.08c0.19,0.06 0.23,0.12 0.14,0.21c-0.07,0.06 -0.18,0.09 -0.32,0.09zm-0.78,-0.43c-0.07,0.12 -0.21,0.13 -0.42,0.04c-0.4,-0.17 -0.51,-0.27 -0.32,-0.3c0.15,-0.05 0.35,-0.05 0.6,0c0.19,0.03 0.24,0.12 0.14,0.26zm2.65,0.86c0.05,-0.09 0.17,-0.11 0.36,-0.05c0.19,0.06 0.23,0.13 0.14,0.22c-0.07,0.06 -0.18,0.09 -0.32,0.09c-0.17,-0.06 -0.22,-0.15 -0.18,-0.26zm0.96,0.13c-0.17,-0.06 -0.19,-0.15 -0.07,-0.26c0.09,-0.09 0.21,-0.12 0.35,-0.09c0.14,0.03 0.18,0.1 0.11,0.22c-0.1,0.11 -0.23,0.15 -0.39,0.13zm1.8,-0.09c-0.45,-0.15 -0.58,-0.26 -0.39,-0.34c0.16,-0.09 0.41,-0.09 0.74,0c0.26,0.08 0.29,0.18 0.11,0.3c-0.17,0.08 -0.32,0.1 -0.46,0.04zm-0.07,-0.65c-0.4,-0.08 -0.5,-0.21 -0.28,-0.38c0.23,-0.2 0.48,-0.24 0.74,-0.13c0.26,0.06 0.33,0.19 0.21,0.39c-0.14,0.14 -0.37,0.18 -0.67,0.12zm-0.92,0.22c-0.05,0.11 -0.14,0.14 -0.28,0.09c-0.29,-0.09 -0.37,-0.18 -0.25,-0.26c0.12,-0.09 0.26,-0.12 0.42,-0.09c0.14,0.06 0.18,0.15 0.11,0.26zm-1.59,0.04c-0.31,-0.14 -0.38,-0.24 -0.21,-0.3c0.14,-0.05 0.3,-0.04 0.49,0.04c0.17,0.09 0.2,0.18 0.11,0.26c-0.07,0.09 -0.2,0.09 -0.39,0zm-0.28,-0.77c0.23,0.09 0.29,0.17 0.17,0.26c-0.14,0.08 -0.3,0.12 -0.49,0.08c-0.24,-0.02 -0.3,-0.12 -0.18,-0.3c0.1,-0.08 0.26,-0.09 0.5,-0.04zm5.72,0.9c-0.43,-0.14 -0.53,-0.3 -0.32,-0.47c0.23,-0.17 0.46,-0.23 0.67,-0.17c0.14,0.06 0.17,0.2 0.07,0.43c-0.12,0.2 -0.26,0.27 -0.42,0.21zm-0.67,0.9c0.07,-0.08 0.2,-0.11 0.38,-0.08c0.19,0.03 0.24,0.08 0.15,0.17c-0.05,0.09 -0.16,0.11 -0.32,0.09c-0.19,-0.03 -0.26,-0.09 -0.21,-0.18zm1.44,-0.34c-0.16,0.09 -0.37,0.1 -0.63,0.04c-0.45,-0.06 -0.54,-0.17 -0.28,-0.34c0.28,-0.17 0.54,-0.18 0.77,-0.04c0.24,0.14 0.28,0.25 0.14,0.34zm-2.04,-0.82c0.21,0.06 0.29,0.18 0.24,0.35c-0.04,0.2 -0.15,0.3 -0.31,0.3c-0.43,-0.06 -0.58,-0.19 -0.46,-0.39c0.12,-0.23 0.29,-0.31 0.53,-0.26zm3.21,0.61c0.17,-0.15 0.32,-0.19 0.46,-0.13c0.14,0.06 0.17,0.15 0.1,0.3c-0.07,0.14 -0.15,0.2 -0.24,0.17c-0.36,-0.09 -0.46,-0.2 -0.32,-0.34zm-0.18,-0.95c0.26,0.14 0.29,0.27 0.07,0.39c-0.21,0.08 -0.47,0.13 -0.77,0.13c-0.17,0 -0.16,-0.13 0.03,-0.39c0.19,-0.2 0.41,-0.24 0.67,-0.13zm1.98,-0.3c-0.17,0.09 -0.33,0.04 -0.49,-0.13c-0.12,-0.17 -0.16,-0.3 -0.11,-0.38s0.19,-0.13 0.42,-0.13c0.22,0 0.42,0.07 0.6,0.21c0.24,0.14 0.1,0.29 -0.42,0.43zm-0.53,0.82c0.09,-0.18 0.27,-0.23 0.53,-0.18c0.26,0.03 0.34,0.13 0.25,0.3c-0.12,0.09 -0.32,0.15 -0.6,0.18c-0.21,0.02 -0.27,-0.07 -0.18,-0.3zm-5.26,-1.81c0.14,0.06 0.15,0.16 0.03,0.31c-0.14,0.11 -0.28,0.14 -0.42,0.08c-0.31,-0.06 -0.35,-0.14 -0.14,-0.26c0.21,-0.17 0.39,-0.21 0.53,-0.13zm1.09,0.61c-0.54,-0.06 -0.63,-0.18 -0.28,-0.35c0.33,-0.17 0.61,-0.17 0.85,0c0.37,0.32 0.19,0.43 -0.57,0.35zm0.99,-1.16c0.17,0.02 0.2,0.11 0.11,0.25c-0.12,0.09 -0.26,0.13 -0.43,0.13c-0.25,0.03 -0.3,-0.06 -0.14,-0.25c0.14,-0.18 0.3,-0.22 0.46,-0.13zm0.18,0.98c0.05,-0.14 0.15,-0.18 0.32,-0.12c0.16,0.05 0.22,0.14 0.17,0.25c-0.07,0.12 -0.18,0.16 -0.35,0.13c-0.19,-0.03 -0.23,-0.11 -0.14,-0.25l0,-0.01zm1.16,-0.73c0.17,0.12 0.18,0.23 0.04,0.35c-0.16,0.17 -0.34,0.21 -0.53,0.13c-0.38,-0.15 -0.43,-0.29 -0.18,-0.43c0.24,-0.09 0.46,-0.1 0.67,-0.05zm0.78,-0.68c0.19,-0.15 0.39,-0.2 0.6,-0.18c0.17,0.03 0.19,0.15 0.07,0.35c-0.12,0.17 -0.26,0.23 -0.42,0.17c-0.33,-0.09 -0.41,-0.2 -0.25,-0.34zm0.21,1.24c0.19,0.14 0.19,0.26 0,0.35c-0.14,0.05 -0.25,0.07 -0.35,0.04c-0.33,-0.03 -0.41,-0.13 -0.25,-0.3c0.22,-0.17 0.42,-0.2 0.6,-0.09zm2.12,-0.47c0.02,0.05 0.01,0.1 -0.03,0.13c-0.03,0.05 -0.06,0.1 -0.11,0.13c-0.07,0.05 -0.16,0.07 -0.28,0.04c-0.12,0 -0.21,-0.07 -0.28,-0.21c-0.1,-0.12 -0.1,-0.22 0,-0.3c0.09,-0.12 0.23,-0.15 0.42,-0.09c0.12,0.03 0.2,0.09 0.25,0.17c0.02,0.03 0.03,0.07 0.03,0.13zm-9.18,0.77c-0.33,0.03 -0.44,-0.06 -0.35,-0.25c0.07,-0.15 0.23,-0.22 0.49,-0.22c0.19,0 0.25,0.07 0.18,0.22c-0.07,0.17 -0.18,0.25 -0.32,0.25zm0.85,-0.25c0.21,0.05 0.27,0.15 0.17,0.3c-0.16,0.14 -0.31,0.2 -0.45,0.16c-0.24,-0.02 -0.32,-0.14 -0.25,-0.34c0.09,-0.14 0.27,-0.18 0.53,-0.12z" fill="url(#linearGradient48)" fill-rule="evenodd" id="path60"/>
      </g>
     </g>
    </g>
    <path d="m24.27,8.54c-0.07,0.03 -0.14,0.04 -0.22,0.04l-0.03,0c-0.21,0.03 -0.49,0.13 -0.85,0.3c-0.28,0.09 -0.54,0.15 -0.78,0.18c-0.14,0 -0.45,-0.1 -0.95,-0.3c-0.33,-0.12 -0.63,-0.12 -0.92,0c-0.23,0.08 -0.42,0.18 -0.56,0.3c-0.09,0 -0.32,-0.03 -0.67,-0.09c-0.31,-0.06 -0.7,-0.11 -1.17,-0.17c-0.4,-0.09 -0.73,-0.09 -0.98,0c-0.27,0.08 -0.61,0.08 -1.03,0l-1.13,-0.17c-0.4,-0.06 -0.78,-0.07 -1.13,-0.05c-0.35,0.06 -0.41,0.12 -0.17,0.18c0.07,0.02 0.14,0.05 0.21,0.08l0.03,0c0.05,0.03 0.1,0.04 0.14,0.04c0.54,0.2 1.43,0.42 2.65,0.65c1.95,0.34 3.67,0.51 5.16,0.51c0.73,0 1.45,-0.03 2.18,-0.08c0.1,0 0.18,-0.02 0.25,-0.04l0,-1.38l-0.03,0zm0.03,-1.07l0,-0.56l-0.1,0c-0.05,-0.03 -0.1,-0.04 -0.15,-0.04c-0.16,0 -0.28,0.04 -0.35,0.13l0,0.04c-0.02,0.03 -0.03,0.06 -0.03,0.08c-0.05,0.15 0.08,0.25 0.38,0.3c0.05,0.03 0.1,0.05 0.15,0.05l0.1,0zm0,0.08c-0.02,-0.02 -0.05,-0.04 -0.1,-0.04l-0.15,0c-0.14,0 -0.26,0.06 -0.38,0.17c-0.14,0.2 -0.01,0.32 0.38,0.35l0.04,0c0.09,0.02 0.16,-0.02 0.21,-0.13l0,-0.35zm0,-1.75c-0.07,0.05 -0.12,0.11 -0.14,0.17c-0.07,0.17 -0.02,0.3 0.14,0.38l0,-0.55zm-13.27,2.18c-0.03,0 -0.04,0.02 -0.04,0.05c0,0.08 0.22,0.21 0.67,0.38c0.36,0.12 0.64,0.16 0.85,0.13c0.04,0 0.08,-0.01 0.11,-0.04c0.02,-0.03 -0.04,-0.09 -0.18,-0.17c-0.35,-0.37 -0.72,-0.54 -1.1,-0.48c-0.18,0.03 -0.29,0.07 -0.31,0.13zm-1.35,-0.43c0.07,0.06 0.17,0.12 0.29,0.18c0.14,0.05 0.24,0.07 0.32,0.04c0.02,0 0.05,-0.02 0.1,-0.04c0.05,-0.09 -0.01,-0.19 -0.18,-0.31c-0.23,-0.14 -0.43,-0.17 -0.6,-0.08c-0.09,0.03 -0.1,0.07 -0.03,0.13c0.02,0.03 0.06,0.06 0.1,0.08zm1.66,-0.51c0.1,-0.14 0.05,-0.23 -0.14,-0.26c-0.25,-0.05 -0.45,-0.05 -0.6,0c-0.19,0.03 -0.08,0.13 0.32,0.3c0.21,0.09 0.35,0.08 0.42,-0.04zm0.78,0.43c0.14,0 0.25,-0.03 0.32,-0.09c0.09,-0.08 0.04,-0.15 -0.14,-0.21c-0.19,-0.06 -0.32,-0.03 -0.39,0.08c-0.12,0.12 -0.05,0.19 0.21,0.22zm0.95,0.17c-0.09,0.09 -0.03,0.17 0.18,0.26c0.12,0.02 0.23,0.01 0.32,-0.05c0.09,-0.11 0.06,-0.19 -0.11,-0.25c-0.19,-0.09 -0.32,-0.07 -0.39,0.04zm1.87,0.39c0.17,0.02 0.3,-0.02 0.4,-0.13c0.07,-0.12 0.03,-0.19 -0.11,-0.22c-0.14,-0.02 -0.26,0 -0.36,0.09c-0.11,0.11 -0.09,0.2 0.07,0.26zm-0.95,-0.13c-0.05,0.11 0.01,0.2 0.18,0.26c0.14,0 0.25,-0.03 0.32,-0.09c0.09,-0.09 0.05,-0.16 -0.14,-0.22c-0.19,-0.05 -0.31,-0.04 -0.36,0.05zm-0.1,-1.12c-0.24,-0.05 -0.4,-0.04 -0.5,0.04c-0.12,0.18 -0.06,0.28 0.18,0.3c0.19,0.04 0.35,0 0.49,-0.08c0.12,-0.09 0.06,-0.17 -0.17,-0.26zm0.28,0.77c0.19,0.09 0.32,0.09 0.39,0c0.09,-0.08 0.06,-0.17 -0.11,-0.25c-0.19,-0.09 -0.35,-0.1 -0.49,-0.05c-0.17,0.06 -0.1,0.16 0.21,0.3zm1.59,-0.04c0.07,-0.11 0.03,-0.2 -0.11,-0.26c-0.16,-0.02 -0.3,0 -0.42,0.09c-0.12,0.08 -0.04,0.17 0.25,0.26c0.14,0.06 0.23,0.02 0.28,-0.09zm0.92,-0.21c0.3,0.05 0.53,0.01 0.67,-0.13c0.11,-0.2 0.04,-0.33 -0.21,-0.39c-0.26,-0.11 -0.51,-0.07 -0.75,0.13c-0.21,0.17 -0.11,0.3 0.29,0.39zm0.07,0.64c0.14,0.06 0.29,0.04 0.46,-0.04c0.18,-0.12 0.15,-0.22 -0.11,-0.3c-0.33,-0.09 -0.58,-0.09 -0.74,0c-0.19,0.08 -0.06,0.2 0.39,0.34zm1.59,-0.52c-0.24,-0.05 -0.41,0.03 -0.54,0.26c-0.11,0.2 0.04,0.33 0.47,0.39c0.16,0 0.26,-0.1 0.31,-0.3c0.05,-0.17 -0.03,-0.29 -0.24,-0.35zm2.04,0.82c0.14,-0.08 0.1,-0.2 -0.14,-0.34c-0.23,-0.15 -0.49,-0.13 -0.78,0.04c-0.25,0.17 -0.16,0.29 0.29,0.34c0.26,0.06 0.47,0.05 0.63,-0.04zm-1.44,0.34c-0.05,0.09 0.02,0.15 0.21,0.18c0.16,0.02 0.27,0 0.31,-0.09c0.1,-0.09 0.05,-0.14 -0.14,-0.17c-0.18,-0.03 -0.31,0 -0.38,0.08zm0.67,-0.9c0.16,0.06 0.3,-0.01 0.42,-0.21c0.1,-0.23 0.07,-0.37 -0.07,-0.43c-0.21,-0.06 -0.44,0 -0.67,0.17c-0.21,0.17 -0.11,0.33 0.31,0.47l0.01,0zm1.76,-0.6c-0.26,-0.11 -0.48,-0.07 -0.67,0.13c-0.19,0.26 -0.2,0.39 -0.03,0.39c0.3,0 0.56,-0.05 0.77,-0.13c0.22,-0.12 0.19,-0.24 -0.07,-0.39zm0.18,0.95c-0.14,0.14 -0.04,0.25 0.32,0.34c0.09,0.03 0.17,-0.03 0.24,-0.17c0.07,-0.15 0.04,-0.24 -0.1,-0.3c-0.14,-0.06 -0.3,-0.02 -0.46,0.13zm1.27,-0.43c-0.09,0.23 -0.03,0.32 0.18,0.3c0.28,-0.03 0.48,-0.09 0.6,-0.17c0.09,-0.18 0.01,-0.27 -0.25,-0.31c-0.26,-0.05 -0.44,0 -0.53,0.18zm0.53,-0.82c0.52,-0.14 0.66,-0.28 0.42,-0.43c-0.18,-0.14 -0.38,-0.21 -0.6,-0.21c-0.23,0 -0.37,0.04 -0.42,0.13s-0.01,0.21 0.11,0.38c0.16,0.17 0.32,0.22 0.49,0.13zm0.74,-1.2c0,-0.06 -0.01,-0.1 -0.04,-0.13c-0.04,-0.08 -0.12,-0.14 -0.24,-0.17c-0.19,-0.06 -0.33,-0.03 -0.42,0.09c-0.1,0.08 -0.1,0.18 0,0.3c0.07,0.14 0.16,0.21 0.28,0.21c0.12,0.03 0.21,0.01 0.28,-0.04c0.05,-0.03 0.08,-0.08 0.1,-0.13c0.05,-0.03 0.06,-0.07 0.04,-0.13zm-2.12,0.47c-0.18,-0.11 -0.38,-0.08 -0.6,0.09c-0.16,0.17 -0.08,0.27 0.25,0.3c0.09,0.03 0.21,0.01 0.35,-0.04c0.19,-0.09 0.19,-0.21 0,-0.35zm-0.21,-1.24c-0.16,0.14 -0.08,0.26 0.25,0.34c0.16,0.06 0.3,0 0.42,-0.17c0.12,-0.2 0.1,-0.32 -0.07,-0.34c-0.21,-0.03 -0.41,0.02 -0.6,0.17zm-0.78,0.69c-0.21,-0.06 -0.43,-0.05 -0.67,0.04c-0.26,0.14 -0.2,0.28 0.18,0.43c0.19,0.08 0.37,0.04 0.53,-0.13c0.14,-0.12 0.13,-0.23 -0.04,-0.34zm-1.16,0.73c-0.09,0.14 -0.05,0.22 0.14,0.25c0.17,0.03 0.28,-0.01 0.35,-0.13c0.05,-0.11 -0.01,-0.2 -0.17,-0.25c-0.17,-0.06 -0.27,-0.02 -0.32,0.13zm-0.18,-0.99c-0.16,-0.09 -0.32,-0.05 -0.46,0.13c-0.16,0.2 -0.11,0.28 0.14,0.25c0.17,0 0.31,-0.04 0.43,-0.12c0.09,-0.15 0.06,-0.24 -0.11,-0.26zm-0.99,1.16c0.76,0.08 0.94,-0.03 0.57,-0.35c-0.24,-0.17 -0.52,-0.17 -0.85,0c-0.35,0.18 -0.26,0.29 0.28,0.35zm-1.09,-0.6c-0.14,-0.09 -0.32,-0.05 -0.53,0.12c-0.21,0.12 -0.17,0.2 0.14,0.26c0.14,0.06 0.28,0.03 0.42,-0.08c0.12,-0.15 0.11,-0.25 -0.03,-0.3zm-1.8,0.3c-0.26,-0.06 -0.44,-0.02 -0.53,0.13c-0.07,0.19 0.01,0.31 0.25,0.34c0.14,0.03 0.29,-0.03 0.45,-0.17c0.1,-0.15 0.04,-0.25 -0.17,-0.3zm-0.85,0.25c0.14,0 0.25,-0.08 0.32,-0.25c0.07,-0.15 0.01,-0.22 -0.18,-0.22c-0.26,0 -0.42,0.07 -0.49,0.22c-0.09,0.2 0.02,0.28 0.35,0.25z" fill="#f1fced" fill-rule="evenodd" id="path62"/>
    <path d="m24.3,11.97l0,-1.37l-0.25,0c-0.18,0 -0.36,0.04 -0.52,0.13c-0.45,0.17 -0.82,0.23 -1.1,0.17c-0.45,0 -0.84,0.03 -1.2,0.09l-0.14,0c-0.38,0.05 -0.71,0.01 -0.99,-0.13c-0.09,-0.06 -0.17,-0.11 -0.24,-0.17c-0.2,-0.03 -0.32,-0.09 -0.4,-0.18c-0.16,-0.05 -0.31,-0.08 -0.45,-0.08c-0.12,-0.03 -0.23,-0.06 -0.32,-0.09c-0.31,-0.05 -0.58,-0.13 -0.81,-0.21c-0.15,-0.06 -0.25,-0.06 -0.32,0c-0.35,0.17 -0.19,0.41 0.49,0.73c0.03,0 0.06,0.01 0.11,0.04c0.45,0.2 1.07,0.39 1.87,0.56c0.31,0.06 0.65,0.11 1.02,0.17c0.64,0.11 1.33,0.22 2.09,0.3c0.31,0.03 0.61,0.04 0.91,0.04c0.1,0.03 0.18,0.03 0.25,0zm-8.61,-2.1c-0.14,-0.03 -0.25,-0.03 -0.32,0c-0.07,0.06 -0.14,0.07 -0.21,0.05c0.02,0.22 0.35,0.38 0.99,0.46c0.19,0.04 0.28,-0.01 0.28,-0.12c-0.02,-0.09 -0.14,-0.19 -0.36,-0.3c-0.04,0 -0.09,-0.02 -0.14,-0.04c-0.11,-0.04 -0.2,-0.05 -0.24,-0.05zm-1.63,-0.13c0.03,0 0.04,-0.03 0.04,-0.08c0.07,-0.12 -0.01,-0.2 -0.25,-0.26c-0.02,0 -0.05,-0.02 -0.07,-0.04c-0.23,-0.09 -0.4,-0.09 -0.5,0c-0.14,0.02 0,0.13 0.43,0.3c0.16,0.09 0.28,0.11 0.35,0.09l0,-0.01z" fill="#f7f7f7" fill-rule="evenodd" id="path64"/>
    <g id="g66">
     <g id="g68">
      <g id="g74">
       <path d="m14.27,10.3c-0.86,-0.34 -2.01,-0.81 -3.42,-1.42c-0.4,-0.17 -0.74,-0.31 -1.02,-0.42c0,0.05 0.06,0.12 0.17,0.21c-0.19,-0.06 -0.25,-0.03 -0.17,0.09c0,0.05 0.13,0.14 0.38,0.25l0.36,0.18c-0.19,0 -0.19,0.07 0,0.21c0.12,0.09 0.27,0.13 0.46,0.13l0.1,0c-0.04,0.09 0.13,0.21 0.53,0.39c0.31,0.16 0.79,0.29 1.45,0.38c0.5,0.06 0.88,0.06 1.16,0z" fill="url(#linearGradient76)" fill-rule="evenodd" id="path82"/>
      </g>
     </g>
    </g>
    <path d="m8.91,5.58c0.24,-0.11 0.49,-0.26 0.77,-0.43c0.64,-0.4 1.61,-0.94 2.9,-1.63c1.3,-0.66 2.63,-1.22 3.99,-1.67c1.34,-0.46 2.71,-0.76 4.1,-0.91c1.2,-0.11 2.41,-0.17 3.63,-0.17l0,-0.69c-0.35,0.04 -0.7,0.05 -1.06,0.05c-2.35,0.03 -4.34,0.34 -5.96,0.94c-1.32,0.46 -3.11,1.28 -5.37,2.45c-0.43,0.23 -0.81,0.43 -1.16,0.6l-0.04,0c-0.35,0.26 -0.92,0.71 -1.69,1.38c-0.05,0.02 -0.09,0.05 -0.11,0.08z" fill="#c68484" fill-rule="evenodd" id="path84"/>
    <g id="g86">
     <g id="g88">
      <g id="g94">
       <path d="m8.2,5.84l0.04,0c0.12,0 0.23,-0.03 0.35,-0.09c0.09,-0.03 0.2,-0.08 0.32,-0.17c0.02,-0.03 0.06,-0.06 0.11,-0.09c0.77,-0.66 1.34,-1.11 1.69,-1.37l0.04,0c0.07,-0.06 0.14,-0.1 0.21,-0.13l0.63,-0.34l-0.04,0l-0.56,0.13c-0.45,0.14 -0.81,0.19 -1.09,0.17c-0.59,0 -0.9,0.06 -0.92,0.17l-0.11,0.13l-0.1,-0.04c-0.07,0.02 -0.17,0.08 -0.29,0.17c-0.14,0.14 -0.18,0.28 -0.14,0.43c-0.04,-0.03 -0.08,-0.06 -0.1,-0.09c-0.14,-0.11 -0.26,-0.09 -0.36,0.09c-0.07,0.17 -0.1,0.31 -0.1,0.43l0.1,0.13c-0.16,-0.06 -0.26,-0.06 -0.28,0l0,0.04c0,0.03 0.01,0.05 0.04,0.08c0,0.03 0.01,0.06 0.03,0.09c0.17,0.2 0.34,0.29 0.53,0.26z" fill="url(#linearGradient96)" fill-rule="evenodd" id="path102"/>
      </g>
     </g>
    </g>
    <path d="m24.3,0.77c-1.22,0 -2.43,0.06 -3.63,0.17c-1.39,0.15 -2.76,0.45 -4.1,0.91c-1.37,0.45 -2.69,1.01 -3.99,1.67c-1.29,0.69 -2.26,1.23 -2.9,1.63c-0.28,0.17 -0.53,0.32 -0.77,0.43c-0.12,0.09 -0.23,0.14 -0.32,0.17c0.66,-0.08 1.31,-0.28 1.94,-0.6c0.66,-0.32 1.84,-0.87 3.53,-1.68c1.7,-0.8 3.39,-1.32 5.09,-1.58c1.32,-0.2 3.03,-0.27 5.16,-0.22l0,-0.9l-0.01,0z" fill="#cc9191" fill-rule="evenodd" id="path104"/>
    <path d="m41.65,6.87c-0.02,0.17 -0.08,0.31 -0.15,0.42l-0.04,0.09c-0.08,0.09 -0.19,0.17 -0.34,0.26c-0.79,0.49 -2.31,0.96 -4.57,1.42c-0.71,0.14 -1.39,0.21 -2.05,0.21c-0.46,0.17 -1.32,0.52 -2.59,1.03c-1.51,0.66 -2.96,1.16 -4.33,1.5l-3.19,0.48c-0.05,0.02 -0.12,0.02 -0.19,0l0,0.47c1.04,-0.03 2,-0.15 2.89,-0.34c0.1,-0.03 0.21,-0.06 0.34,-0.09c1.7,-0.46 3.99,-1.27 6.88,-2.45c0.43,-0.11 0.99,-0.23 1.67,-0.34c1.17,-0.2 2,-0.4 2.51,-0.6c1.47,-0.43 2.35,-0.73 2.63,-0.9c0.78,-0.41 1.05,-0.92 0.79,-1.55c-0.25,-0.6 -0.64,-1.09 -1.18,-1.46c-0.04,-0.06 -0.1,-0.1 -0.15,-0.13l0.23,0.43l0.12,0.13c0.5,0.49 0.76,0.95 0.76,1.37l-0.04,0.05z" fill="#595959" fill-rule="evenodd" id="path106"/>
    <path d="m34.5,9.27c-0.46,-0.03 -0.89,-0.08 -1.29,-0.17c-0.03,0.05 -0.06,0.13 -0.12,0.21c-0.12,0.29 -0.37,0.42 -0.76,0.39c-0.6,0 -0.76,-0.13 -0.45,-0.39c0.15,-0.2 0.34,-0.32 0.57,-0.38c-0.15,-0.06 -0.29,-0.12 -0.42,-0.17c-0.18,0.2 -0.37,0.3 -0.57,0.3c-0.64,0.08 -0.8,0 -0.5,-0.26c0.18,-0.11 0.35,-0.2 0.5,-0.26c-0.08,-0.03 -0.15,-0.07 -0.23,-0.13c-0.1,0.03 -0.2,0.06 -0.3,0.09l-0.73,0.17c-0.22,0.06 -0.44,0.11 -0.64,0.17c-0.2,0.06 -0.4,0.1 -0.57,0.13c-0.61,0.17 -1.24,0.34 -1.9,0.52c-0.13,0.02 -0.26,0.04 -0.38,0.04c-0.08,0.03 -0.17,0.05 -0.27,0.09c-0.76,0.14 -1.51,0.24 -2.24,0.3l0,0.46c0.05,0.06 0.07,0.13 0.07,0.22c0.18,0.06 0.37,0.13 0.57,0.21s0.41,0.16 0.61,0.22c0.03,-0.03 0.05,-0.04 0.08,-0.04c0.23,-0.12 0.48,-0.19 0.76,-0.22l1.48,-0.13c0.25,-0.02 0.51,-0.02 0.76,0l0.23,0c0.43,0 0.58,0.06 0.46,0.18l0.03,0c0.31,0.08 0.03,0.3 -0.83,0.64c-0.44,0.11 -1.05,0.2 -1.86,0.26c-0.79,0.2 -1.58,0.28 -2.36,0.26l0,0.3c0.07,0.02 0.14,0.02 0.19,0l3.19,-0.48c1.37,-0.34 2.82,-0.84 4.33,-1.5c1.27,-0.51 2.13,-0.86 2.59,-1.03zm-6.65,0.99c-0.46,0.08 -0.55,-0.01 -0.27,-0.3c0.23,-0.23 0.53,-0.29 0.91,-0.17c0.39,0.08 0.46,0.17 0.23,0.25c-0.1,0.03 -0.39,0.1 -0.87,0.22zm-3.08,-0.05c0.38,-0.17 0.76,-0.22 1.14,-0.17c0.33,0.09 0.42,0.22 0.27,0.39c-0.24,0.14 -0.55,0.2 -0.96,0.17c-0.68,-0.09 -0.83,-0.21 -0.45,-0.39zm5.82,-0.64c0.25,-0.11 0.54,-0.13 0.87,-0.04c0.43,0.11 0.52,0.29 0.27,0.51c-0.31,0.23 -0.71,0.3 -1.22,0.22c-0.05,-0.03 -0.09,-0.05 -0.12,-0.05c-0.27,0.09 -0.54,0.13 -0.79,0.13c-0.23,0.03 -0.39,-0.02 -0.46,-0.17c-0.1,-0.11 -0.04,-0.23 0.19,-0.34c0.56,-0.2 0.97,-0.29 1.26,-0.26z" fill="#969696" fill-rule="evenodd" id="path108"/>
    <path d="m24.2,10.6l0,1.37c0.78,0.03 1.57,-0.05 2.35,-0.25c0.64,-0.12 1.27,-0.3 1.91,-0.56c0.43,-0.15 0.68,-0.26 0.75,-0.35c0.13,-0.11 -0.02,-0.17 -0.45,-0.17l-0.23,0c-0.17,0.03 -0.4,0.09 -0.68,0.17c-0.41,-0.14 -0.97,-0.07 -1.67,0.22c-0.21,0.09 -0.45,0.09 -0.73,0c-0.2,-0.06 -0.4,-0.13 -0.61,-0.22s-0.39,-0.15 -0.57,-0.21l-0.07,0zm6.19,-0.39c0.03,0 0.07,0.02 0.12,0.05c0.51,0.08 0.91,0.01 1.22,-0.22c0.25,-0.23 0.16,-0.4 -0.27,-0.51c-0.33,-0.09 -0.62,-0.07 -0.87,0.04c-0.11,0.03 -0.21,0.09 -0.31,0.17c-0.25,0.18 -0.21,0.33 0.12,0.47l-0.01,0z" fill="#f7f7f7" fill-rule="evenodd" id="path110"/>
    <path d="m29.21,10.81c-0.07,0.09 -0.32,0.2 -0.75,0.35c-0.64,0.26 -1.27,0.44 -1.91,0.56c0.82,-0.06 1.43,-0.15 1.87,-0.26c0.86,-0.34 1.14,-0.56 0.83,-0.65l-0.04,0zm-3.76,0.22c0.28,0.09 0.52,0.09 0.73,0c0.7,-0.29 1.26,-0.36 1.67,-0.22c0.28,-0.08 0.51,-0.14 0.68,-0.17c-0.25,-0.02 -0.51,-0.02 -0.76,0l-1.48,0.13c-0.28,0.03 -0.53,0.1 -0.76,0.22c-0.03,0 -0.05,0.01 -0.08,0.04zm-1.25,-0.65l0,0.22l0.07,0c0,-0.09 -0.02,-0.16 -0.07,-0.22zm8.25,-1.45c-0.23,0.05 -0.42,0.18 -0.57,0.38c-0.31,0.26 -0.15,0.39 0.45,0.39c0.39,0.03 0.64,-0.1 0.76,-0.39c0.06,-0.08 0.09,-0.16 0.12,-0.21c-0.28,-0.03 -0.53,-0.09 -0.76,-0.17zm-0.42,-0.17c-0.2,-0.06 -0.39,-0.13 -0.57,-0.22c-0.15,0.06 -0.32,0.15 -0.5,0.26c-0.3,0.26 -0.14,0.34 0.5,0.26c0.2,0 0.39,-0.1 0.57,-0.3zm-4.18,1.5c0.48,-0.12 0.77,-0.19 0.87,-0.22c0.23,-0.08 0.16,-0.17 -0.23,-0.25c-0.38,-0.12 -0.68,-0.06 -0.91,0.17c-0.28,0.28 -0.19,0.38 0.27,0.3zm-3.08,-0.05c-0.38,0.17 -0.23,0.3 0.45,0.39c0.41,0.03 0.73,-0.03 0.96,-0.17c0.15,-0.17 0.06,-0.3 -0.27,-0.39c-0.38,-0.05 -0.76,0 -1.14,0.17zm5.82,-0.64c-0.29,-0.03 -0.7,0.06 -1.26,0.26c-0.23,0.11 -0.29,0.23 -0.19,0.34c0.07,0.14 0.23,0.2 0.46,0.17c0.25,0 0.52,-0.04 0.79,-0.13c-0.32,-0.14 -0.36,-0.29 -0.11,-0.46c0.1,-0.09 0.2,-0.15 0.31,-0.18z" fill="#737373" fill-rule="evenodd" id="path112"/>
    <g id="g114">
     <g id="g116">
      <g id="g122">
       <path d="m26.93,7.51c-0.32,-0.09 -0.41,-0.2 -0.26,-0.34c0.13,-0.14 0.33,-0.19 0.61,-0.13c0.2,0.06 0.25,0.17 0.15,0.34c-0.13,0.15 -0.29,0.19 -0.5,0.13zm0,0.77c-0.05,0.06 -0.15,0.09 -0.3,0.09c-0.3,-0.09 -0.38,-0.19 -0.23,-0.3c0.1,-0.15 0.26,-0.16 0.46,-0.04c0.18,0.08 0.2,0.17 0.07,0.25zm-2.73,0.26l1.02,0.13c0.66,0.17 1.28,0.21 1.87,0.13c0.76,-0.09 1.01,-0.02 0.76,0.21c-0.23,0.23 -0.61,0.4 -1.14,0.52c0.12,0 0.25,-0.02 0.38,-0.04c0.66,-0.18 1.29,-0.35 1.9,-0.52l-0.19,0c-0.46,-0.09 -0.52,-0.2 -0.19,-0.34c0.3,-0.17 0.59,-0.23 0.87,-0.17c0.25,0.02 0.29,0.14 0.12,0.34l-0.04,0.04c0.2,-0.06 0.42,-0.11 0.64,-0.17l0.73,-0.17c0.1,-0.03 0.2,-0.06 0.3,-0.09c-0.18,-0.08 -0.34,-0.17 -0.49,-0.26c-1.63,-1 -2.5,-2.2 -2.63,-3.6c-0.07,-0.32 -0.1,-0.63 -0.07,-0.95c0.02,-0.31 0.08,-0.58 0.19,-0.81l0.15,-0.26l0.08,-0.06c0.16,-0.18 0.36,-0.33 0.6,-0.45c-0.38,-0.03 -0.78,-0.06 -1.21,-0.09c-1.32,-0.11 -2.54,-0.2 -3.66,-0.26l0,3.27c0.24,-0.18 0.4,-0.19 0.5,-0.05c0.23,0.26 0.11,0.39 -0.34,0.39c-0.05,0 -0.1,-0.02 -0.16,-0.04l0,0.55c0.13,-0.05 0.3,-0.05 0.5,0c0.33,0.06 0.43,0.19 0.31,0.39c-0.11,0.2 -0.3,0.29 -0.57,0.26c-0.11,-0.03 -0.18,-0.06 -0.24,-0.09l0,0.56c0.03,0.03 0.06,0.04 0.08,0.04c0.13,0.06 0.17,0.16 0.12,0.3c-0.05,0.12 -0.12,0.19 -0.2,0.22l0,0.08c0.08,0.06 0.09,0.15 0.04,0.26c0,0.03 -0.01,0.06 -0.04,0.09l0,0.64l0.01,0zm4.48,-0.51c-0.27,-0.06 -0.31,-0.15 -0.11,-0.26c0.2,-0.17 0.38,-0.22 0.53,-0.13c0.15,0.03 0.17,0.1 0.04,0.21c-0.13,0.15 -0.28,0.2 -0.46,0.18zm-3.19,-0.61c-0.15,-0.02 -0.14,-0.11 0.04,-0.25c0.17,-0.12 0.34,-0.13 0.49,-0.05c0.18,0.12 0.19,0.22 0.04,0.3c-0.13,0.03 -0.32,0.03 -0.57,0zm0.8,-0.94c-0.08,0.26 -0.22,0.37 -0.42,0.34c-0.35,-0.08 -0.49,-0.24 -0.42,-0.47c0.08,-0.2 0.27,-0.29 0.57,-0.25c0.28,0.02 0.37,0.15 0.27,0.38zm-2.1,-6.4c2.24,0.04 4.43,0.29 6.58,0.78c3.48,0.74 6.07,1.72 7.8,2.92c0.05,0.03 0.09,0.05 0.11,0.08l0.08,0.04c0.51,0.38 0.92,0.71 1.25,0.99l0,-0.04c-0.35,-0.37 -0.81,-0.76 -1.37,-1.16c-1.72,-1.2 -4.32,-2.19 -7.79,-2.96c-2.18,-0.46 -4.4,-0.7 -6.66,-0.73l0,0.08zm1.79,5.41c-0.32,-0.11 -0.49,-0.23 -0.49,-0.34c0.03,-0.17 0.19,-0.23 0.49,-0.17c0.28,0.03 0.38,0.13 0.31,0.3c-0.08,0.17 -0.18,0.24 -0.31,0.21zm0.35,-0.47c-0.15,-0.11 -0.19,-0.2 -0.12,-0.26c0.2,0 0.43,-0.02 0.69,-0.08c0.28,-0.03 0.43,-0.17 0.45,-0.43c0.05,-0.12 0.06,-0.22 0.04,-0.3c0.23,0.37 0.26,0.7 0.08,0.99c-0.06,0.08 -0.22,0.14 -0.5,0.17c-0.25,0.06 -0.47,0.02 -0.64,-0.09zm1.21,1.33c-0.1,0.03 -0.24,0.03 -0.41,0c-0.31,-0.03 -0.37,-0.13 -0.2,-0.3c0.18,-0.14 0.36,-0.16 0.54,-0.04c0.17,0.11 0.2,0.23 0.07,0.34z" fill="url(#linearGradient124)" fill-rule="evenodd" id="path136"/>
      </g>
     </g>
    </g>
    <path d="m24.2,8.54l0,1.38c0.73,-0.06 1.48,-0.16 2.24,-0.3c0.1,-0.04 0.19,-0.06 0.27,-0.09c0.53,-0.12 0.91,-0.29 1.14,-0.52c0.25,-0.23 0,-0.3 -0.76,-0.21c-0.59,0.08 -1.21,0.04 -1.87,-0.13l-1.02,-0.13zm2.73,-0.26c0.13,-0.08 0.11,-0.17 -0.07,-0.25c-0.2,-0.12 -0.36,-0.11 -0.46,0.04c-0.15,0.11 -0.07,0.21 0.23,0.3c0.15,0 0.25,-0.03 0.3,-0.09zm0,-0.77c0.21,0.06 0.37,0.02 0.5,-0.13c0.1,-0.17 0.05,-0.28 -0.15,-0.34c-0.28,-0.06 -0.48,-0.01 -0.61,0.13c-0.15,0.14 -0.06,0.25 0.26,0.34zm2.06,1.46c0.17,-0.03 0.37,-0.07 0.57,-0.13l0.04,-0.04c0.17,-0.2 0.13,-0.32 -0.12,-0.34c-0.28,-0.06 -0.57,0 -0.87,0.17c-0.33,0.14 -0.27,0.26 0.19,0.34l0.19,0zm-0.31,-0.94c0.18,0.02 0.33,-0.03 0.46,-0.18c0.13,-0.11 0.11,-0.18 -0.04,-0.21c-0.15,-0.09 -0.33,-0.04 -0.53,0.13c-0.2,0.11 -0.16,0.2 0.11,0.26zm-4.48,-0.48l0,0.35c0.02,-0.03 0.03,-0.06 0.03,-0.09c0.06,-0.11 0.04,-0.2 -0.03,-0.26zm0,-0.64l0,0.56c0.07,-0.03 0.14,-0.1 0.19,-0.22c0.05,-0.14 0.01,-0.24 -0.12,-0.3c-0.02,0 -0.05,-0.01 -0.07,-0.04zm0,-1.12l0,0.56c0.05,0.03 0.12,0.06 0.23,0.09c0.27,0.03 0.47,-0.06 0.57,-0.26c0.12,-0.2 0.02,-0.33 -0.31,-0.39c-0.2,-0.05 -0.37,-0.05 -0.49,0zm0,-0.85c-0.13,0.14 -0.13,0.24 0,0.3c0.05,0.02 0.1,0.04 0.15,0.04c0.45,0 0.57,-0.13 0.34,-0.39c-0.1,-0.14 -0.26,-0.13 -0.49,0.05zm1.29,2.48c0.25,0.03 0.44,0.03 0.57,0c0.15,-0.08 0.14,-0.18 -0.04,-0.3c-0.15,-0.08 -0.32,-0.07 -0.49,0.05c-0.18,0.14 -0.19,0.23 -0.04,0.25zm0.8,-0.94c0.1,-0.23 0.01,-0.36 -0.27,-0.38c-0.3,-0.03 -0.49,0.05 -0.57,0.25c-0.08,0.23 0.07,0.39 0.42,0.47c0.2,0.03 0.34,-0.08 0.42,-0.34zm1.25,-0.13c0.13,-0.11 0.1,-0.23 -0.07,-0.34c-0.18,-0.12 -0.36,-0.1 -0.54,0.04c-0.17,0.17 -0.11,0.27 0.19,0.3c0.18,0.03 0.32,0.03 0.42,0zm-1.21,-1.33c0.17,0.11 0.39,0.15 0.64,0.09c0.28,-0.03 0.44,-0.09 0.5,-0.17c0.17,-0.29 0.15,-0.62 -0.08,-0.99c0.02,0.08 0.01,0.18 -0.04,0.3c-0.02,0.26 -0.17,0.4 -0.45,0.43c-0.26,0.06 -0.49,0.08 -0.69,0.08c-0.07,0.06 -0.03,0.15 0.12,0.26zm-0.35,0.47c0.13,0.03 0.23,-0.04 0.31,-0.21c0.07,-0.17 -0.03,-0.27 -0.31,-0.3c-0.3,-0.06 -0.46,0 -0.49,0.17c0,0.11 0.17,0.23 0.49,0.34z" fill="#f1fced" fill-rule="evenodd" id="path138"/>
    <g id="g140">
     <g id="g142">
      <g id="g148">
       <path d="m41.65,6.87l-0.15,0.38l0,0.04c0.07,-0.11 0.13,-0.25 0.15,-0.42zm-1.6,-2.06c0,0.06 0.05,0.15 0.15,0.3c-0.02,-0.12 -0.06,-0.23 -0.11,-0.35l-0.04,-0.04l-0.07,-0.04c0.02,0.06 0.05,0.1 0.07,0.13z" fill="url(#linearGradient150)" fill-rule="evenodd" id="path164"/>
      </g>
     </g>
    </g>
    <path d="m40.81,5.32l-0.72,-1.29c0,0.26 -0.01,0.48 -0.04,0.65l0.76,0.64z" fill="#5c5c5c" fill-rule="evenodd" id="path166"/>
    <path d="m24.2,0.77c0.25,0.03 0.5,0.05 0.76,0.05c1.57,0.08 2.95,0.21 4.14,0.38c1.19,0.17 2.56,0.49 4.11,0.95c1.54,0.48 2.88,1.1 3.99,1.84c0.3,0.2 0.61,0.39 0.91,0.56c0.03,-0.03 0.05,-0.04 0.08,-0.04c0.15,0.14 0.3,0.27 0.46,0.38c0.15,0.12 0.3,0.23 0.45,0.35c0.41,0.08 0.67,0.06 0.8,-0.09c0.05,-0.06 0.09,-0.14 0.11,-0.26c-0.33,-0.28 -0.74,-0.61 -1.25,-0.98l-0.08,-0.05c-0.02,-0.03 -0.06,-0.05 -0.11,-0.08c-1.73,-1.2 -4.32,-2.18 -7.8,-2.92c-2.15,-0.49 -4.34,-0.74 -6.57,-0.78l0,0.69z" fill="#c68484" fill-rule="evenodd" id="path168"/>
    <path d="m29.06,2.02l0.08,0c0.51,-0.2 1.19,-0.26 2.05,-0.17c1.58,0.23 3.16,0.78 4.76,1.67c1.39,0.97 2.28,1.52 2.66,1.63c0.18,0.06 0.34,0.09 0.49,0.09c-0.15,-0.12 -0.3,-0.23 -0.45,-0.35c-0.16,-0.11 -0.31,-0.24 -0.46,-0.38c-0.03,0 -0.05,0.01 -0.08,0.04c-0.3,-0.17 -0.61,-0.36 -0.91,-0.56c-1.11,-0.74 -2.45,-1.36 -3.99,-1.84c-1.55,-0.46 -2.92,-0.78 -4.11,-0.95c-1.19,-0.17 -2.57,-0.3 -4.14,-0.38c-0.26,0 -0.51,-0.02 -0.76,-0.05l0,0.9c1.11,0.06 2.33,0.15 3.65,0.26c0.43,0.03 0.83,0.06 1.21,0.09z" fill="#cc9191" fill-rule="evenodd" id="path170"/>
    <g id="g172">
     <g id="g174">
      <g id="g180">
       <path d="m30.59,6.87c0.25,0.14 0.35,0.24 0.3,0.3c-0.05,0.08 -0.2,0.1 -0.46,0.04c-0.35,-0.14 -0.49,-0.27 -0.41,-0.39c0.1,-0.08 0.28,-0.07 0.57,0.05zm0.37,-3.91l-0.53,-0.08c-1.64,-0.06 -2.42,0.48 -2.32,1.63l0,0.04c0.13,1.4 1,2.61 2.63,3.61c0.15,0.08 0.31,0.17 0.49,0.25c0.08,0.06 0.15,0.1 0.23,0.13c0.18,0.09 0.37,0.16 0.57,0.22c0.13,0.05 0.27,0.11 0.42,0.17c0.23,0.08 0.48,0.14 0.76,0.17c0.4,0.09 0.83,0.14 1.29,0.17c0.66,0 1.34,-0.07 2.05,-0.21c2.26,-0.46 3.78,-0.93 4.57,-1.42c-0.05,0 -0.1,0.02 -0.16,0.04c-0.43,0.09 -1,-0.04 -1.71,-0.38c-0.2,-0.09 -0.43,-0.2 -0.68,-0.35c-0.76,-0.45 -1.8,-1.15 -3.12,-2.1c-1.19,-0.75 -2.46,-1.33 -3.8,-1.76l-0.76,-0.13l0.07,0zm2.63,4.89c-0.33,-0.17 -0.52,-0.47 -0.57,-0.9c-0.05,-0.46 0.05,-0.84 0.3,-1.16c0.31,-0.34 0.75,-0.41 1.33,-0.21l-0.83,0.6c-0.41,0.31 -0.48,0.87 -0.23,1.67zm1.67,0.78c-0.48,-0.29 -0.8,-0.52 -0.95,-0.69c-0.03,-0.03 -0.05,-0.07 -0.08,-0.13c-0.27,-0.32 -0.31,-0.7 -0.11,-1.16c0.13,-0.37 0.44,-0.6 0.95,-0.68c0.56,-0.06 1.18,0.14 1.86,0.59c0.51,0.35 0.85,0.66 1.03,0.95c0.23,0.43 0.15,0.82 -0.23,1.16c-0.18,0.17 -0.55,0.24 -1.14,0.21c-0.53,0 -0.97,-0.08 -1.33,-0.25zm-5.74,-2.79c0.18,0.08 0.27,0.18 0.27,0.3c-0.03,0.11 -0.12,0.14 -0.27,0.08c-0.25,-0.08 -0.37,-0.2 -0.34,-0.34c0,-0.12 0.11,-0.13 0.34,-0.04zm1.86,0.47c-0.56,-0.09 -0.81,-0.33 -0.76,-0.73c0,-0.37 0.2,-0.49 0.61,-0.34c0.33,0.11 0.47,0.32 0.42,0.64c0,0.31 -0.09,0.46 -0.27,0.43zm-0.76,-1.72c-0.15,0.26 -0.32,0.35 -0.49,0.26c-0.46,-0.14 -0.6,-0.32 -0.42,-0.52c0.2,-0.2 0.46,-0.24 0.76,-0.12c0.23,0.05 0.28,0.18 0.15,0.38zm2.02,0.47c0.15,0.18 0.11,0.26 -0.12,0.26c-0.27,0 -0.47,-0.1 -0.57,-0.3c-0.12,-0.2 -0.07,-0.27 0.16,-0.21c0.2,0.02 0.37,0.11 0.53,0.25z" fill="url(#linearGradient182)" fill-rule="evenodd" id="path196"/>
      </g>
     </g>
    </g>
    <path d="m30.59,6.87c-0.29,-0.12 -0.47,-0.13 -0.57,-0.05c-0.08,0.12 0.06,0.25 0.41,0.39c0.26,0.06 0.41,0.04 0.46,-0.04c0.05,-0.06 -0.05,-0.16 -0.3,-0.3zm2.05,-1.81c-0.16,-0.14 -0.33,-0.23 -0.53,-0.25c-0.23,-0.06 -0.28,0.01 -0.16,0.21c0.1,0.2 0.3,0.3 0.57,0.3c0.23,0 0.27,-0.08 0.12,-0.26zm-2.02,-0.47c0.13,-0.2 0.08,-0.33 -0.15,-0.38c-0.3,-0.12 -0.56,-0.08 -0.76,0.12c-0.18,0.2 -0.04,0.38 0.42,0.52c0.17,0.09 0.34,0 0.49,-0.26zm0.76,1.72c0.18,0.03 0.27,-0.12 0.27,-0.43c0.05,-0.31 -0.09,-0.53 -0.42,-0.64c-0.41,-0.15 -0.61,-0.03 -0.61,0.34c-0.05,0.4 0.2,0.65 0.76,0.73zm-1.86,-0.47c-0.23,-0.09 -0.34,-0.08 -0.34,0.04c-0.03,0.14 0.09,0.26 0.34,0.35c0.15,0.05 0.24,0.02 0.27,-0.09c0,-0.12 -0.09,-0.22 -0.27,-0.3z" fill="#f1fced" fill-rule="evenodd" id="path198"/>
    <path d="m33.59,7.85c-0.25,-0.8 -0.18,-1.35 0.23,-1.67l0.83,-0.6c-0.58,-0.2 -1.02,-0.13 -1.33,0.22c-0.25,0.31 -0.35,0.7 -0.3,1.15c0.05,0.43 0.24,0.73 0.57,0.9z" fill="#9e9e9e" fill-rule="evenodd" id="path200"/>
    <g id="g202">
     <g id="g204">
      <g id="g210">
       <path d="m35.26,8.63c0.36,0.17 0.8,0.26 1.33,0.26c0.59,0.02 0.97,-0.05 1.14,-0.22c0.38,-0.34 0.46,-0.73 0.23,-1.16c-0.17,-0.28 -0.52,-0.6 -1.03,-0.94c-0.68,-0.46 -1.3,-0.66 -1.86,-0.6c-0.51,0.08 -0.82,0.31 -0.95,0.68c-0.2,0.46 -0.16,0.85 0.11,1.16c0.03,0.06 0.06,0.1 0.08,0.13c0.15,0.17 0.47,0.4 0.95,0.69zm-0.53,-0.9c-0.2,-0.61 -0.07,-0.98 0.42,-1.12c0.41,-0.09 0.75,-0.11 1.02,-0.09c0.36,0.09 0.75,0.32 1.18,0.69c0.1,0.09 0.19,0.17 0.27,0.26c0.2,0.26 0.22,0.5 0.04,0.73c-0.23,0.26 -0.57,0.4 -1.03,0.43c-0.99,0 -1.61,-0.3 -1.86,-0.9l-0.04,0z" fill="url(#linearGradient212)" fill-rule="evenodd" id="path226"/>
      </g>
     </g>
    </g>
    <path d="m35.3,7.98c-0.05,-0.11 -0.09,-0.21 -0.12,-0.3c-0.02,-0.14 -0.01,-0.28 0.04,-0.43c0.1,-0.2 0.32,-0.33 0.65,-0.38c0.35,-0.06 0.7,0.05 1.03,0.34c0.1,0.08 0.19,0.17 0.26,0.26c0.15,0.2 0.18,0.41 0.08,0.64c0,-0.26 -0.17,-0.41 -0.5,-0.47c-0.38,-0.06 -0.58,0.06 -0.6,0.34c-0.03,0.23 0.1,0.39 0.38,0.48l-0.08,0c-0.53,-0.03 -0.91,-0.19 -1.14,-0.48zm-0.57,-0.26l0.04,0c0.25,0.61 0.87,0.91 1.86,0.91c0.46,-0.03 0.8,-0.17 1.03,-0.43c0.17,-0.23 0.16,-0.48 -0.04,-0.73c-0.08,-0.09 -0.17,-0.18 -0.27,-0.26c-0.43,-0.37 -0.82,-0.6 -1.18,-0.69c-0.27,-0.03 -0.61,0 -1.02,0.09c-0.49,0.14 -0.62,0.51 -0.42,1.11zm1.22,-0.43c0,-0.11 -0.08,-0.18 -0.23,-0.21c-0.15,-0.03 -0.23,0.02 -0.23,0.13c-0.02,0.12 0.04,0.19 0.19,0.21c0.15,0.03 0.24,-0.01 0.27,-0.13z" fill="#ffffff" fill-rule="evenodd" id="path228"/>
    <path d="m35.3,7.98c0.23,0.29 0.61,0.45 1.14,0.48l0.08,0c-0.28,-0.09 -0.41,-0.25 -0.38,-0.48c0.02,-0.28 0.22,-0.4 0.6,-0.34c0.33,0.06 0.5,0.21 0.5,0.47c0.1,-0.23 0.07,-0.44 -0.08,-0.64c-0.07,-0.09 -0.16,-0.17 -0.26,-0.26c-0.33,-0.29 -0.68,-0.4 -1.03,-0.34c-0.33,0.05 -0.55,0.18 -0.65,0.38c-0.05,0.15 -0.06,0.29 -0.04,0.43c0.03,0.09 0.07,0.19 0.12,0.3zm0.65,-0.69c-0.03,0.12 -0.12,0.17 -0.27,0.13c-0.15,-0.02 -0.22,-0.09 -0.19,-0.21c0,-0.11 0.08,-0.16 0.23,-0.13c0.15,0.03 0.23,0.1 0.23,0.21z" fill="#454545" fill-rule="evenodd" id="path230"/>
    <path d="m40.2,5.11c0.03,0.2 0.04,0.4 0.04,0.6c0,0.23 -0.05,0.4 -0.15,0.51c-0.13,0.18 -0.36,0.23 -0.68,0.18c-0.1,0 -0.22,-0.03 -0.35,-0.09c-0.48,-0.14 -1.06,-0.44 -1.75,-0.9l-0.72,-0.43c-0.05,-0.03 -0.1,-0.07 -0.15,-0.13c-0.86,-0.54 -1.52,-0.89 -1.98,-1.03c-0.71,-0.37 -1.42,-0.59 -2.13,-0.65c-0.5,-0.11 -0.96,-0.18 -1.36,-0.21l-0.08,0l0.76,0.13c1.34,0.43 2.61,1.02 3.8,1.76c1.32,0.94 2.36,1.64 3.12,2.1c0.25,0.15 0.48,0.26 0.68,0.34c0.71,0.35 1.28,0.48 1.72,0.39c0.05,-0.02 0.1,-0.04 0.15,-0.04c0.15,-0.09 0.26,-0.17 0.34,-0.26l0.04,-0.13l0.15,-0.38l0.04,-0.05c0,-0.42 -0.26,-0.88 -0.76,-1.37l-0.88,-0.77l0,0.04l0.04,0.04c0.05,0.12 0.09,0.24 0.11,0.35z" fill="#707070" fill-rule="evenodd" id="path232"/>
    <path d="m28.11,4.55l0,-0.04c-0.1,-1.15 0.68,-1.69 2.32,-1.63l0.53,0.08c0.41,0.03 0.87,0.1 1.37,0.21c0.71,0.06 1.42,0.28 2.13,0.65c0.46,0.14 1.12,0.49 1.98,1.03c0.05,0.05 0.1,0.1 0.15,0.13l0.72,0.43c0.69,0.46 1.27,0.76 1.75,0.9c0.13,0.06 0.24,0.09 0.35,0.09c0.32,0.05 0.55,0 0.68,-0.18c0.1,-0.11 0.15,-0.28 0.15,-0.51c0,-0.2 -0.01,-0.4 -0.04,-0.6c-0.1,-0.15 -0.15,-0.24 -0.15,-0.3l-0.04,0.04l0,0.04c-0.02,0.12 -0.06,0.2 -0.11,0.26c-0.13,0.14 -0.39,0.17 -0.8,0.09c-0.15,0 -0.32,-0.03 -0.5,-0.09c-0.37,-0.11 -1.26,-0.66 -2.66,-1.63c-1.59,-0.89 -3.17,-1.44 -4.75,-1.67c-0.86,-0.09 -1.54,-0.04 -2.05,0.17c-0.29,0.12 -0.52,0.27 -0.68,0.45l-0.08,0.06l-0.15,0.26c-0.11,0.23 -0.17,0.5 -0.19,0.81c-0.03,0.32 0,0.63 0.07,0.95z" fill="#5c5c5c" fill-rule="evenodd" id="path234"/>
    <path d="m26.82,3.39c0.2,0.06 0.27,-0.03 0.19,-0.26c-0.05,-0.22 -0.18,-0.48 -0.38,-0.77c-0.18,-0.26 -0.54,-0.53 -1.1,-0.82c-0.43,-0.23 -0.8,-0.37 -1.1,-0.42l-0.77,-0.22c0.05,0.11 0.09,0.22 0.12,0.3c0.02,0.2 -0.04,0.36 -0.19,0.47c-0.03,0.03 -0.2,0.15 -0.54,0.35c-0.17,0.08 -0.3,0.18 -0.37,0.3c-0.13,0.22 -0.18,0.4 -0.16,0.51c0.97,-0.2 1.73,-0.25 2.28,-0.17c0.59,0.09 1.26,0.33 2.02,0.73z" fill="#000000" fill-opacity="0.2" fill-rule="evenodd" id="path236"/>
    <g id="g238">
     <g id="g240">
      <g id="g246">
       <path d="m25.38,3.39c0.53,0.09 0.87,0.16 1.02,0.21c0.33,0.09 0.53,0.04 0.61,-0.17c0.08,-0.22 -0.06,-0.51 -0.42,-0.85c-0.76,-0.78 -1.54,-1.22 -2.36,-1.33l-0.68,-0.09c0.15,0.03 0.27,0.09 0.35,0.17c0.17,0.2 0.02,0.43 -0.46,0.69c-0.69,0.4 -1.05,0.77 -1.1,1.11c0.6,-0.14 1.19,-0.14 1.74,0c0.28,0.09 0.71,0.17 1.3,0.26z" fill="url(#linearGradient248)" fill-rule="evenodd" id="path254"/>
      </g>
     </g>
    </g>
    <path d="m26.71,3.65c0.15,-0.03 0.24,-0.05 0.26,-0.05c0,-0.02 0.03,-0.11 0.08,-0.25c0.02,-0.12 -0.18,-0.46 -0.61,-1.03l-0.26,-0.3l0.26,0.43l-0.53,-0.35c-0.28,-0.14 -0.55,-0.18 -0.8,-0.12c0.23,0.05 0.49,0.14 0.8,0.25c0.23,0.12 0.35,0.26 0.38,0.43l0.07,0.21l-0.34,-0.16c-0.25,-0.12 -0.49,-0.22 -0.72,-0.31c-0.41,-0.08 -0.84,-0.1 -1.29,-0.04l0.34,0.04c0.61,0.09 1.09,0.22 1.44,0.39c0.18,0.11 0.31,0.21 0.39,0.3l0.03,0.08l-1.17,-0.3c-0.34,-0.05 -0.83,-0.07 -1.49,-0.04c0.46,0.06 0.88,0.13 1.26,0.21c0.71,0.06 1.14,0.15 1.29,0.26c0.25,0.21 0.06,0.19 -0.57,-0.04c-0.15,0 -0.38,0.02 -0.69,0.04c0.31,0.06 0.64,0.13 0.99,0.22c0.48,0.08 0.78,0.13 0.88,0.13z" fill="#454545" fill-rule="evenodd" id="path256"/>
    <path d="m8.76,7.46c-0.18,0.07 -0.28,0.14 -0.28,0.21c0,0.03 0.1,0.07 0.28,0.1l0,-0.31z" fill="#969696" fill-rule="evenodd" id="path258"/>
    <path d="m8.76,7.77c-0.18,-0.03 -0.28,-0.07 -0.28,-0.1c0,-0.07 0.1,-0.14 0.28,-0.21l0,-0.57l-0.04,0c-0.52,0.17 -0.86,0.5 -1.02,0.98c-0.13,0.45 -0.1,0.95 0.08,1.5c0.03,0.1 0.07,0.21 0.12,0.31c0.05,-0.24 0.13,-0.57 0.23,-0.98c0.11,-0.31 0.31,-0.48 0.63,-0.52l0,-0.41z" fill="#595959" fill-rule="evenodd" id="path260"/>
    <g id="g262">
     <g id="g264">
      <g id="g270">
       <path d="m7.74,9.47l-0.47,0c-0.23,0.59 -0.48,1.02 -0.74,1.29c-0.21,0.21 -0.49,0.4 -0.86,0.57l-0.74,0.26c0.75,-0.31 1.23,-0.69 1.44,-1.14l0.28,-0.72l-0.04,-0.31c-0.13,-0.24 -0.31,-0.29 -0.55,-0.16c-0.42,0.18 -0.9,0.42 -1.45,0.73c0.14,-0.11 0.27,-0.21 0.39,-0.31c0.32,-0.28 0.47,-0.52 0.47,-0.72c0.06,-0.18 0.12,-0.31 0.2,-0.42c0.03,-0.03 -0.09,-0.07 -0.35,-0.1l-0.67,-0.16c0.31,-0.03 0.55,-0.18 0.71,-0.46c0.18,-0.34 0.23,-0.62 0.15,-0.83c-0.05,-0.2 -0.22,-0.27 -0.51,-0.2l-0.93,0.05c0.29,-0.34 0.57,-0.52 0.86,-0.52l0.82,0.11l0.2,-0.31c0.02,-0.28 -0.2,-0.49 -0.67,-0.62c-0.73,-0.21 -1.5,-0.26 -2.31,-0.16c0.13,-0.1 0.48,-0.22 1.06,-0.36c0.36,-0.1 0.82,-0.1 1.37,0l0.74,0.21l-0.04,-0.21c-0.15,-0.13 -0.47,-0.34 -0.94,-0.62c-0.52,-0.27 -1.09,-0.46 -1.72,-0.57c-0.49,-0.03 -0.86,-0.03 -1.09,0l-0.36,0c0.19,-0.27 0.79,-0.34 1.8,-0.2c0.68,0.07 1.29,0.22 1.84,0.46l0.63,0.31l-0.24,-0.36c-0.26,-0.28 -0.74,-0.56 -1.45,-0.88c-0.83,-0.31 -1.32,-0.49 -1.48,-0.56c-0.16,-0.04 -0.57,-0.07 -1.25,-0.1c-0.71,-0.11 -1.32,-0.09 -1.84,0.05l0.51,0.1c0.18,0 0.57,0.41 1.17,1.24c0.65,1 1.14,1.61 1.45,1.86c0.36,0.34 0.57,0.68 0.62,1.03c0.06,0.41 0.12,0.79 0.2,1.13c0.16,0.41 0.17,1.22 0.04,2.43c-0.05,0.58 -0.11,1.12 -0.16,1.6c0.37,0.07 0.8,0.07 1.29,0c0.99,-0.14 1.78,-0.59 2.35,-1.34c0.13,-0.18 0.22,-0.35 0.27,-0.52c0,-0.14 0.03,-0.31 0.08,-0.52l-0.08,-0.05z" fill="url(#linearGradient272)" fill-rule="evenodd" id="path278"/>
      </g>
     </g>
    </g>
    <path d="m7.27,9.47l0,-0.05l-0.39,-0.05c-1.15,-1 -1.29,-2.31 -0.43,-3.92c0.16,-0.35 0.48,-0.62 0.98,-0.83c-0.05,-0.03 -0.09,-0.07 -0.12,-0.1c-1.15,-0.96 -2.15,-1.6 -3.01,-1.91c-1.12,-0.45 -2.16,-0.62 -3.13,-0.52c-0.52,0.11 -0.91,0.24 -1.17,0.42c0.52,-0.14 1.13,-0.16 1.84,-0.05c0.68,0.03 1.09,0.06 1.25,0.1c0.16,0.07 0.65,0.25 1.48,0.56c0.71,0.32 1.19,0.6 1.45,0.88l0.24,0.36l-0.63,-0.31c-0.55,-0.24 -1.16,-0.39 -1.84,-0.46c-1.01,-0.14 -1.61,-0.07 -1.8,0.2l0.36,0c0.23,-0.03 0.59,-0.03 1.09,0c0.63,0.11 1.2,0.3 1.72,0.57c0.47,0.28 0.78,0.49 0.94,0.62l0.04,0.21l-0.75,-0.21c-0.54,-0.1 -1,-0.1 -1.36,0c-0.58,0.14 -0.93,0.26 -1.06,0.36c0.81,-0.1 1.58,-0.05 2.31,0.16c0.47,0.13 0.69,0.34 0.66,0.62l-0.19,0.31l-0.82,-0.11c-0.29,0 -0.58,0.18 -0.86,0.52l0.93,-0.05c0.29,-0.07 0.46,0 0.51,0.2c0.08,0.21 0.03,0.49 -0.16,0.83c-0.15,0.28 -0.39,0.43 -0.7,0.46l0.67,0.16c0.26,0.03 0.37,0.07 0.35,0.1c-0.08,0.11 -0.14,0.24 -0.2,0.42c0,0.2 -0.15,0.44 -0.47,0.72c-0.13,0.1 -0.25,0.2 -0.39,0.31c0.55,-0.31 1.03,-0.55 1.45,-0.73c0.24,-0.13 0.42,-0.08 0.55,0.16l0.04,0.31l-0.28,0.72c-0.21,0.45 -0.69,0.83 -1.44,1.14l0.74,-0.26c0.36,-0.17 0.65,-0.36 0.86,-0.57c0.26,-0.27 0.51,-0.7 0.74,-1.29z" fill="#454545" fill-rule="evenodd" id="path280"/>
    <g id="g282">
     <g id="g284">
      <g id="g290">
       <path d="m7.78,9.37c-0.18,-0.55 -0.21,-1.05 -0.08,-1.5c0.16,-0.48 0.5,-0.81 1.02,-0.98l0.04,0l0,-1.44c-0.24,0.03 -0.44,-0.07 -0.63,-0.31c-0.03,-0.04 -0.04,-0.07 -0.04,-0.11c-0.2,-0.09 -0.42,-0.22 -0.66,-0.41c-0.5,0.21 -0.82,0.48 -0.98,0.83c-0.86,1.61 -0.72,2.92 0.43,3.92l0.39,0.05l0,0.05l0.47,0c0.03,0 0.04,-0.03 0.04,-0.1z" fill="url(#linearGradient292)" fill-rule="evenodd" id="path304"/>
      </g>
     </g>
    </g>
   </g>
  </g>
 </g>
</svg>